<svg id="Layer_1" height="512" viewBox="0 0 512 512" width="512" xmlns="http://www.w3.org/2000/svg" data-name="Layer 1"><path d="m325.5 313.557-39.141 66.818a45.362 45.362 0 0 0 71.217 55 45.379 45.379 0 0 0 7.065-55zm32.381 89.992a33.065 33.065 0 0 1 -21.616 24.694 5 5 0 0 1 -3.252-9.456 23.063 23.063 0 0 0 15.065-17.217 5 5 0 0 1 9.8 1.979z"/><path d="m208.732 334.065h-41.847a5 5 0 0 1 0-10h46.187a125.514 125.514 0 0 1 20.5-30h-66.687a5 5 0 0 1 0-10h77a124.461 124.461 0 0 1 77.615-30.329v-231.402l-24.382 19.5a5 5 0 0 1 -6.246 0l-29.382-23.5-29.378 23.5a5 5 0 0 1 -6.247 0l-29.376-23.5-29.376 23.5a5 5 0 0 1 -6.247 0l-29.376-23.5-29.372 23.5a5 5 0 0 1 -6.247 0l-24.371-19.498v405.664l24.382-19.5a5 5 0 0 1 6.246 0l29.382 23.5 29.378-23.5a5 5 0 0 1 6.247 0l29.752 23.8 12.387-7.623a124.974 124.974 0 0 1 -.542-90.608zm84.028-80h-125.875a5 5 0 0 1 0-10h125.875a5 5 0 0 1 0 10zm-3.3-183.8a5 5 0 0 1 10 0v6.835a5 5 0 1 1 -10 0zm0 24.743a5 5 0 0 1 10 0v58.524a5 5 0 0 1 -10 0zm3.3 109.053a5 5 0 0 1 0 10h-125.875a5 5 0 0 1 0-10zm-190.2 130h-2.32a5 5 0 0 1 0-10h2.324a5 5 0 1 1 0 10zm0-40h-2.32a5 5 0 0 1 0-10h2.324a5 5 0 1 1 0 10zm0-40h-2.32a5 5 0 0 1 0-10h2.324a5 5 0 1 1 0 10zm0-40h-2.32a5 5 0 0 1 0-10h2.324a5 5 0 1 1 0 10zm17.442-44.129a5 5 0 0 1 -10 0v-4.451a19.784 19.784 0 0 1 -14.766-19.1 5 5 0 0 1 10 0 9.776 9.776 0 0 0 9.7 9.763c.023 0 .044-.007.067-.007s.045.007.068.007a9.765 9.765 0 0 0 -.068-19.53 19.754 19.754 0 0 1 -5-38.867v-3.776a5 5 0 0 1 10 0v3.779a19.783 19.783 0 0 1 14.767 19.1 5 5 0 0 1 -10 0 9.767 9.767 0 1 0 -9.767 9.766 19.754 19.754 0 0 1 5 38.868zm23.311 164.129h-17.56a5 5 0 0 1 0-10h17.56a5 5 0 0 1 0 10zm0-40h-17.56a5 5 0 0 1 0-10h17.56a5 5 0 0 1 0 10zm0-40h-17.56a5 5 0 0 1 0-10h17.56a5 5 0 0 1 0 10zm0-40h-17.56a5 5 0 0 1 0-10h17.56a5 5 0 0 1 0 10zm5.416-67.681a5 5 0 1 1 10 0 9.776 9.776 0 0 0 9.7 9.763c.023 0 .045-.007.068-.007s.045.007.068.007a9.765 9.765 0 0 0 -.068-19.53 19.753 19.753 0 0 1 -5-38.867v-3.775a5 5 0 0 1 10 0v3.779a19.783 19.783 0 0 1 14.767 19.1 5 5 0 0 1 -10 0 9.767 9.767 0 1 0 -9.767 9.766 19.754 19.754 0 0 1 5 38.868v4.451a5 5 0 1 1 -10 0v-4.451a19.784 19.784 0 0 1 -14.764-19.1z"/><path d="m325.5 263.665a115 115 0 1 0 115 115 115.131 115.131 0 0 0 -115-115zm39.147 178.785a55.362 55.362 0 0 1 -86.916-67.129l43.455-74.183a5 5 0 0 1 8.628 0l43.455 74.183a55.381 55.381 0 0 1 -8.622 67.129z"/></svg>