<svg id="Layer_1" height="512" viewBox="0 0 512 512" width="512" xmlns="http://www.w3.org/2000/svg" data-name="Layer 1"><path d="m190.352 283.086-20.595-12.422a1.873 1.873 0 0 0 -.981-.275 2.009 2.009 0 0 0 -.526.071 1.85 1.85 0 0 0 -1.151.918l-58.066 110.181a1.778 1.778 0 0 0 .731 2.39l20.723 11.575a1.914 1.914 0 0 0 1.482.164 1.857 1.857 0 0 0 1.12-.906l57.939-109.333a1.767 1.767 0 0 0 -.676-2.363z"/><path d="m178.61 415.364 5.839-8.032a9.23 9.23 0 0 0 -7.489-14.652 9.315 9.315 0 0 0 -7.549 3.825l-21.533 29.622a9.23 9.23 0 0 0 2.1 12.939 9.326 9.326 0 0 0 12.926-2.1l.091-.125 15.611-21.474z"/><path d="m211.827 149.552a36.54 36.54 0 0 0 5.689-44.289l-31.516-53.803-31.517 53.8a36.526 36.526 0 0 0 57.345 44.289zm-19.918-13.891a18.132 18.132 0 0 0 11.847-13.54 5 5 0 0 1 9.8 1.98 28.136 28.136 0 0 1 -18.4 21.017 5 5 0 0 1 -3.25-9.457z"/><path d="m165.567 260.827a11.963 11.963 0 0 1 9.355 1.274l20.6 12.422a11.792 11.792 0 0 1 4.347 15.608l-2.226 4.2a45.525 45.525 0 0 1 19.2 1.632 34.724 34.724 0 0 1 11.893-6.5l21.629-6.78a34.838 34.838 0 0 1 19.829-.318l22.411 6.242c9.008 2.51 15.082 2.764 23.817.959l1.5-.633-2.679-5.629a11.788 11.788 0 0 1 6.393-16.048l22.431-8.76a11.932 11.932 0 0 1 15.08 5.965l41.4 87.51-1.624-330.492h-278.467v316.955l37.8-71.718a11.911 11.911 0 0 1 7.311-5.889zm87.749-193.384h123.664a5 5 0 0 1 0 10h-123.664a5 5 0 0 1 0-10zm0 40h123.664a5 5 0 0 1 0 10h-123.664a5 5 0 0 1 0-10zm0 40h123.664a5 5 0 0 1 0 10h-123.664a5 5 0 0 1 0-10zm-107.462-47.235 35.831-61.167a5 5 0 0 1 8.628 0l35.832 61.167a46.526 46.526 0 1 1 -80.291 0zm-2.538 87.235h233.664a5 5 0 0 1 0 10h-233.664a5 5 0 0 1 0-10zm-5 45a5 5 0 0 1 5-5h233.664a5 5 0 0 1 0 10h-233.664a5 5 0 0 1 -5-5z"/><path d="m203.372 425.176a9.164 9.164 0 0 0 -3.747-6.033 9.33 9.33 0 0 0 -12.925 2.1l-15.612 21.476a9.215 9.215 0 0 0 2.1 12.919 9.339 9.339 0 0 0 12.946-2.1l15.6-21.451a9.16 9.16 0 0 0 1.638-6.911z"/><path d="m350.1 268.739a1.875 1.875 0 0 0 -1.7-1.059 1.932 1.932 0 0 0 -.7.133l-22.431 8.759a1.819 1.819 0 0 0 -1.047 1.032 1.741 1.741 0 0 0 .047 1.4l53.5 112.428a1.9 1.9 0 0 0 2.46.9l21.828-9.371a1.829 1.829 0 0 0 1-1.033 1.731 1.731 0 0 0 -.056-1.376z"/><path d="m318.96 299.252c-10.644 2.261-18.243 2-29.04-1.011l-22.41-6.241a24.88 24.88 0 0 0 -14.154.228l-21.628 6.78a24.565 24.565 0 0 0 -15.3 13.8l-10.964 27.677-5.113 15.469a23.89 23.89 0 0 0 19.966-2.7 22.65 22.65 0 0 0 10.183-16.728c.033-.343.063-.7.087-1.058.012-.169.032-.338.06-.506a32.6 32.6 0 0 1 3.3-9.275c3.627-6.659 9.244-10.341 15.818-10.368a6.121 6.121 0 0 1 1.367.184l10.136 2.834a31.95 31.95 0 0 1 13.732 7.925l58.874 57.687 17.341 14.837a34.778 34.778 0 0 0 13.167-12.209l-42.162-88.6z"/><path d="m221.737 448.435a9.237 9.237 0 0 0 -9.133-7.75 9.313 9.313 0 0 0 -7.546 3.824l-10.743 14.777a9.231 9.231 0 0 0 2.1 12.939 9.326 9.326 0 0 0 12.928-2.1l.091-.124 5.893-8.106 4.764-6.553a9.157 9.157 0 0 0 1.646-6.907z"/><path d="m236.356 465.669a9.331 9.331 0 0 0 -12.937 2.1l-5.9 8.109a9.219 9.219 0 0 0 2.1 12.917 9.341 9.341 0 0 0 12.946-2.1l5.885-8.094a9.223 9.223 0 0 0 -2.1-12.929z"/><path d="m358.242 417.959-31-26.522c-.085-.073-.168-.149-.248-.228l-58.994-57.809a21.928 21.928 0 0 0 -9.42-5.436l-9.372-2.62c-6.2.583-8.363 9.687-8.663 11.109-.025.347-.056.69-.088 1.03a32.616 32.616 0 0 1 -14.631 24.118 33.687 33.687 0 0 1 -32.3 2.464l-1.419-.627a5 5 0 0 1 -2.728-6.143l6.595-19.952 11.239-28.411a34.67 34.67 0 0 1 2.335-4.508 42.288 42.288 0 0 0 -17.9 1.209l-42.268 79.767 9.836 8.13 2.107-2.9a19.364 19.364 0 0 1 26.836-4.36 19.183 19.183 0 0 1 7.215 21.218 19.192 19.192 0 0 1 17.682 23.223 19.2 19.2 0 0 1 18.365 23.259 19.188 19.188 0 0 1 18.393 23.091l10.147 8.035c.05.04.1.08.147.121a10.794 10.794 0 0 0 15.113-1.09 10.458 10.458 0 0 0 -1.1-14.853l-8.428-7.215a5 5 0 0 1 6.5-7.6l15.324 13.119a10.792 10.792 0 0 0 15.111-1.089 10.457 10.457 0 0 0 -1.093-14.848l-15.325-13.126a5 5 0 0 1 -.546-7.05 4.872 4.872 0 0 1 1.1-.931 4.984 4.984 0 0 1 5.949.384l22.218 19.022a10.791 10.791 0 0 0 15.112-1.089 10.451 10.451 0 0 0 -1.073-14.828l-22.244-19.047a5 5 0 0 1 6.5-7.6l30.64 26.239a10.833 10.833 0 0 0 15.169-1.149l.258-.3a10.007 10.007 0 0 0 -1.055-14.215z"/></svg>