<svg id="Layer_1" height="512" viewBox="0 0 512 512" width="512" xmlns="http://www.w3.org/2000/svg" data-name="Layer 1"><path d="m85.172 143.345a16.43 16.43 0 0 0 -.323 12.711 16.837 16.837 0 0 0 21.636 9.588 16.6 16.6 0 0 0 9.356-8.81 16.425 16.425 0 0 0 .324-12.711 16.839 16.839 0 0 0 -21.636-9.588 16.6 16.6 0 0 0 -9.357 8.81z"/><path d="m177.386 182.387a15.049 15.049 0 0 0 .3-11.646 15.42 15.42 0 0 0 -19.812-8.783 15.209 15.209 0 0 0 -8.569 8.069 15.052 15.052 0 0 0 -.3 11.647 15.416 15.416 0 0 0 19.812 8.783 15.214 15.214 0 0 0 8.569-8.07z"/><path d="m181.915 145.512a5 5 0 0 0 -5-5h-13.015a5 5 0 0 0 0 10h13.019a5 5 0 0 0 4.996-5z"/><path d="m75.9 121.913h15.725a5 5 0 0 0 0-10h-15.725a5 5 0 0 0 0 10z"/><path d="m97.845 191.776a5 5 0 0 0 0-10h-5.813a5 5 0 1 0 0 10z"/><path d="m153.076 131.794v-11.748a5 5 0 0 0 -10 0v11.748a5 5 0 0 0 10 0z"/><path d="m347.256 380.5c10.431 0 15.5-4.578 21.358-9.878 5.385-4.869 11.385-10.264 21.5-11.93v-232.777h-16.532v152.1a5 5 0 0 1 -3.58 4.794 94.631 94.631 0 0 0 -48.15 33.363 92.831 92.831 0 0 0 -17.946 42.447c10.412 1.569 16.52 7.059 21.992 12.006 5.863 5.296 10.927 9.875 21.358 9.875zm-18.232-58.894a86.268 86.268 0 0 1 24.955-22.1 5 5 0 0 1 5.051 8.631 76.175 76.175 0 0 0 -22.038 19.515 5 5 0 1 1 -7.968-6.042zm-8.975 33.642a5.006 5.006 0 0 1 -4.8-6.41 83.906 83.906 0 0 1 4.176-11.195 5 5 0 1 1 9.1 4.155 73.656 73.656 0 0 0 -3.676 9.856 5 5 0 0 1 -4.8 3.593z"/><path d="m169.534 230.441a6.47 6.47 0 0 0 -6.462-6.462h-22.972v12.921h22.968a6.47 6.47 0 0 0 6.466-6.459z"/><path d="m466.037 246.628v48.929a103.67 103.67 0 0 1 13.447 14.568 105.191 105.191 0 0 1 6.341 9.4v-86.131a24.455 24.455 0 0 0 -24.425-24.428h-31.614v19.787h18.377a17.9 17.9 0 0 1 17.874 17.875z"/><path d="m364.009 97.196h65.349v18.718h-65.349z"/><path d="m386.709 75.179h-11.209v12.021h42.374v-12.021h-12.361a10.968 10.968 0 0 1 -18.8 0z"/><path d="m423.366 282.805a5 5 0 0 1 -3.58-4.794v-152.1h-19.675v232.4c12.054.97 18.715 6.959 24.634 12.309 5.865 5.3 10.929 9.879 21.362 9.879s15.5-4.578 21.361-9.879c5.473-4.946 11.581-10.436 21.994-12a92.831 92.831 0 0 0 -17.946-42.447 94.627 94.627 0 0 0 -48.15-33.368z"/><path d="m458 471.349a8.343 8.343 0 0 0 -8.334-8.334h-105.575a8.335 8.335 0 0 0 0 16.669h105.579a8.344 8.344 0 0 0 8.33-8.335z"/><path d="m446.107 390.5c-14.282 0-21.606-6.62-28.067-12.46-5.181-4.683-9.744-8.8-17.929-9.693v53.475a5 5 0 0 1 -10 0v-52.939c-6.293 1.488-10.312 5.107-14.791 9.156-6.461 5.84-13.783 12.46-28.064 12.46s-21.6-6.62-28.064-12.46c-4.818-4.355-9.1-8.217-16.26-9.458-.061 1.407-.1 2.817-.1 4.234a94.368 94.368 0 0 0 45.111 80.2h97.48a94.368 94.368 0 0 0 45.111-80.2c0-1.417-.038-2.827-.1-4.234-7.159 1.241-11.444 5.1-16.262 9.458-6.46 5.84-13.783 12.461-28.065 12.461z"/><path d="m118.1 339.247h-17.7v45.94a29.132 29.132 0 0 0 58.26 0v-45.94h-18.56v26.414a11 11 0 1 1 -22 0z"/><path d="m89.528 230.441a6.469 6.469 0 0 0 6.461 6.462h22.111v-12.924h-22.111a6.469 6.469 0 0 0 -6.461 6.462z"/><path d="m100.401 246.903h17.703v82.344h-17.703z"/><path d="m140.104 246.903h18.557v82.344h-18.557z"/><path d="m26.465 489.684h210.541a5 5 0 0 0 5-5v-242.267a5 5 0 0 0 -10 0v57.4l-63.345.006v85.369a39.132 39.132 0 0 1 -78.26 0v-85.366h-58.936v-57.409a5 5 0 0 0 -10 0v242.267a5 5 0 0 0 5 5zm25-147.267a5 5 0 0 1 10 0v7.829a5 5 0 0 1 -10 0zm0 28.743a5 5 0 0 1 10 0v54.524a5 5 0 0 1 -10 0zm-20 77.968 200.541.04v10l-200.541-.04z"/><path d="m129.1 370.661a5 5 0 0 0 5-5v-321.113a12.245 12.245 0 0 1 12.231-12.232h232.549a12.245 12.245 0 0 1 12.231 12.232v24.952a5 5 0 1 0 10 0v-24.952a22.257 22.257 0 0 0 -22.231-22.232h-232.545a22.257 22.257 0 0 0 -22.235 22.232v321.113a5 5 0 0 0 5 5z"/></svg>