<svg id="Layer_1" height="512" viewBox="0 0 512 512" width="512" xmlns="http://www.w3.org/2000/svg" data-name="Layer 1"><path d="m192.836 260.166a89.428 89.428 0 0 0 126.328 0 89.358 89.358 0 0 0 13.913-108.314l-77.077-131.578-77.077 131.578a89.358 89.358 0 0 0 13.913 108.314zm78.655-30.035a47.562 47.562 0 0 0 31.077-35.512 5 5 0 0 1 9.8 1.98 57.556 57.556 0 0 1 -37.627 42.988 5 5 0 1 1 -3.252-9.456z"/><path d="m185.765 267.238a99.142 99.142 0 0 1 -27.758-54.118 124.082 124.082 0 1 0 195.985 0 99.356 99.356 0 0 1 -168.227 54.116z"/><path d="m415.939 250.246a163.458 163.458 0 0 0 -19.273-46.52 5 5 0 0 1 .056-5.293l21.368-33.457-37.824-37.823-33.458 21.367a4.988 4.988 0 0 1 -3.776.656 99.059 99.059 0 0 1 12.246 49.958 133.594 133.594 0 0 1 34.8 90.108c0 73.933-60.148 134.081-134.081 134.081s-134.078-60.148-134.078-134.081a133.574 133.574 0 0 1 34.8-90.109 99.05 99.05 0 0 1 12.247-49.958 4.99 4.99 0 0 1 -3.777-.655l-33.458-21.367-37.821 37.823 21.368 33.457a5 5 0 0 1 .056 5.293 163.463 163.463 0 0 0 -19.273 46.52 5 5 0 0 1 -3.782 3.7l-38.763 8.554v53.49l38.763 8.548a5 5 0 0 1 3.782 3.7 163.458 163.458 0 0 0 19.273 46.52 5 5 0 0 1 -.056 5.293l-21.368 33.457 37.824 37.823 33.458-21.367a5 5 0 0 1 5.292-.056 163.458 163.458 0 0 0 46.516 19.273 5 5 0 0 1 3.7 3.782l8.548 38.763h53.49l8.548-38.763a5 5 0 0 1 3.7-3.782 163.458 163.458 0 0 0 46.52-19.273 5 5 0 0 1 5.292.056l33.458 21.367 37.824-37.823-21.368-33.457a5 5 0 0 1 -.056-5.293 163.441 163.441 0 0 0 19.273-46.52 5 5 0 0 1 3.782-3.7l38.763-8.548v-53.49l-38.763-8.549a5 5 0 0 1 -3.772-3.705z"/></svg>