<svg id="Layer_1" height="512" viewBox="0 0 512 512" width="512" xmlns="http://www.w3.org/2000/svg" data-name="Layer 1"><path d="m374.505 298.155h90.658v9.655h-90.658z"/><path d="m466.937 472.181h-94.207a25.152 25.152 0 0 0 -24.606 20.107h143.419a25.15 25.15 0 0 0 -24.606-20.107z"/><path d="m374.505 462.181h90.658v-144.37h-90.658zm14.21-103.21a5 5 0 0 1 10 0v5.829a5 5 0 0 1 -10 0zm0 23.743a5 5 0 0 1 10 0v59.523a5 5 0 0 1 -10 0z"/><path d="m294.938 281.765-44.632-16.949v-128.79a15.017 15.017 0 0 1 15-15h135.821a15.017 15.017 0 0 1 15 15v104.222a45.379 45.379 0 0 0 -41.622 45.165v2.742h90.658v-2.742a45.391 45.391 0 0 0 -39.036-44.883v-104.5a25.028 25.028 0 0 0 -25-25h-135.821a25.028 25.028 0 0 0 -25 25v124.989l-71.435-27.127v29.3l126.067 47.873z"/><path d="m126.51 175.625h-20.018a5 5 0 0 1 0-10h19.521l-4.683-94.331h-65.717l-2.023 46.514h10.153a5 5 0 0 1 0 10h-10.587l-3.724 85.634h10.2a5 5 0 1 1 0 10h-10.632l-.263 6.056 82 31.138zm-38.827-57.817h20.052a5 5 0 0 1 0 10h-20.052a5 5 0 0 1 0-10zm-19.758 52.817a5 5 0 0 1 5-5h15.466a5 5 0 1 1 0 10h-15.466a5 5 0 0 1 -5-5zm33.756 52.817h-21.026a5 5 0 1 1 0-10h21.026a5 5 0 0 1 0 10z"/><path d="m118.769 19.712h-60.913l-1.808 41.582h64.785z"/><path d="m210.208 389.67h38.657v49.688h-38.657z"/><path d="m158.871 282.019-126.736-48.127v29.303l126.736 48.127z"/><path d="m200.208 384.67a5 5 0 0 1 5-5h48.657a5 5 0 0 1 5 5v54.688h36.073v-117.593l-126.067-47.873v165.466h31.337zm5-38.089h48.657a5 5 0 0 1 0 10h-48.657a5 5 0 1 1 0-10z"/><path d="m20.457 449.358h286.16v17.25h-286.16z"/><path d="m63.472 384.67a5 5 0 0 1 5-5h48.657a5 5 0 0 1 5 5v54.688h36.742v-117.339l-126.736-48.127v165.466h31.337zm5-38.089h48.657a5 5 0 1 1 0 10h-48.657a5 5 0 1 1 0-10z"/><path d="m73.472 389.67h38.657v49.688h-38.657z"/></svg>