<svg id="Layer_1" height="512" viewBox="0 0 512 512" width="512" xmlns="http://www.w3.org/2000/svg" data-name="Layer 1"><path d="m373.794 58.13h56.805v60h-56.805z"/><path d="m190.065 288.326v-136.736a11.012 11.012 0 0 0 -11-11h-44.36a11.012 11.012 0 0 0 -11 11v120.167c2.562-.179 5.146-.276 7.752-.276a109.948 109.948 0 0 1 58.608 16.845z"/><path d="m131.457 320.671-36.68 62.618a42.511 42.511 0 1 0 73.361 0zm30.825 84.392a31.476 31.476 0 0 1 -20.577 23.509 5 5 0 0 1 -3.252-9.457 21.466 21.466 0 0 0 14.026-16.031 5 5 0 1 1 9.8 1.979z"/><path d="m367.686 48.13h69.022a9.419 9.419 0 0 0 0-18.838h-69.022a9.419 9.419 0 1 0 0 18.838z"/><path d="m373.794 128.13h56.805v37.295h-56.805z"/><path d="m422.836 214.736 38.725-.12a19.6 19.6 0 0 0 0-39.191h-94.991a25.26 25.26 0 0 1 -25.146-22.552 5 5 0 1 1 9.941-1.084 15.269 15.269 0 0 0 12.429 13.381v-56.785h-57.041c-21.2 0-29.125 11.21-33.657 20.976a72.071 72.071 0 0 1 -65.182 41.307h-7.849v124.724a111.245 111.245 0 0 1 32.5 41.855 152.258 152.258 0 0 1 64.1 21.925c21.911 13.594 47.793 14.72 74.606 14.72h76.599a21.178 21.178 0 0 0 0-42.356h-41.391a5 5 0 0 1 0-10h53.386a21.291 21.291 0 0 0 0-42.582h-37.029a5 5 0 0 1 0-10h36.211a22.109 22.109 0 0 0 0-44.218h-36.211a5 5 0 0 1 0-10zm-142.916-55.536a94.157 94.157 0 0 1 -42.74 28.8 5 5 0 1 1 -3.11-9.5 84.153 84.153 0 0 0 38.2-25.744 5 5 0 0 1 7.647 6.445zm13.132-20.578c-.8 1.734-1.68 3.474-2.6 5.171a5 5 0 0 1 -8.787-4.773c.821-1.513 1.6-3.063 2.317-4.607a5 5 0 0 1 9.072 4.209z"/><path d="m131.457 281.481a100.614 100.614 0 1 0 100.614 100.613 100.727 100.727 0 0 0 -100.614-100.613zm37.131 160.426a52.511 52.511 0 0 1 -82.44-63.673l41-69.983a5 5 0 0 1 8.628 0l41 69.983a52.529 52.529 0 0 1 -8.188 63.673z"/></svg>