<svg id="Layer_1" height="512" viewBox="0 0 512 512" width="512" xmlns="http://www.w3.org/2000/svg" data-name="Layer 1"><path d="m290.129 127.749a5.049 5.049 0 1 0 5.048 5.049 5.054 5.054 0 0 0 -5.048-5.049z"/><path d="m274.852 165.675v16.911a70.3 70.3 0 0 1 29.936 0v-16.632a36.146 36.146 0 0 1 -29.936-.279z"/><path d="m316.392 132.8a26.117 26.117 0 0 0 -4.888-15.231c-.069-.093-.139-.185-.2-.284a26.245 26.245 0 1 0 5.09 15.515zm-26.263 15.049a15.049 15.049 0 1 1 15.048-15.049 15.066 15.066 0 0 1 -15.048 15.047z"/><path d="m137.612 282.719h-10.145v-121.889a75.858 75.858 0 0 1 75.772-75.773h66.191v17.991a36.163 36.163 0 0 1 41.08-.226v-38.1a15.439 15.439 0 0 1 15.421-15.422h36.912a31.408 31.408 0 0 0 30.957-26.354h-104.335a20.058 20.058 0 0 0 -20.035 20.035v32.076h-66.191a85.87 85.87 0 0 0 -85.772 85.773v121.889h-8.541v93.013h52.75zm141.818-239.738a10.047 10.047 0 0 1 10.035-10.035h9.735a5 5 0 0 1 0 10h-9.735l-.035 15.387a5 5 0 1 1 -10 0zm0 31.019a5 5 0 0 1 10 0v3.6a5 5 0 1 1 -10 0z"/><path d="m286.262 314.586h64.167v123.121h-64.167z"/><path d="m350.429 251.583a60.61 60.61 0 0 0 -121.219 0v237.471h121.219v-41.347h-69.167a5 5 0 0 1 -5-5v-133.121a5 5 0 0 1 5-5h69.167zm-91.964 100.654a5 5 0 1 1 -10 0v-59.523a5 5 0 1 1 10 0zm0-77.438a5 5 0 0 1 -10 0v-5.828a5 5 0 1 1 10 0z"/><path d="m320.51 91.724 74.09 9.833a7.489 7.489 0 0 0 8.474-7.424 7.513 7.513 0 0 0 -6.5-7.424l-76.064-10.094z"/><path d="m164.263 385.732h-55.337v34h64.133z"/></svg>