<svg id="Layer_1" height="512" viewBox="0 0 512 512" width="512" xmlns="http://www.w3.org/2000/svg" data-name="Layer 1"><path d="m154.075 152.3a46.7 46.7 0 0 1 45.638 37.079 62.092 62.092 0 0 0 8.618-70.84l-53.983-99.791a95.815 95.815 0 0 0 -5.269 57.052l3.021 14.025a24.309 24.309 0 0 1 -45.447 16.089l-6.833 12.623a62.09 62.09 0 0 0 8.618 70.84 46.7 46.7 0 0 1 45.637-37.077z"/><path d="m154.075 162.3a36.662 36.662 0 0 0 -36.589 35.255 61.827 61.827 0 0 0 73.178 0 36.662 36.662 0 0 0 -36.589-35.255z"/><path d="m132.884 425.592h66.444v67.661h-66.444z"/><path d="m125.854 237.871h56.443v11.223h-56.443z"/><path d="m125.854 320.746 56.446 18.687v-80.34h-56.446zm11.611-49.781a5 5 0 0 1 10 0v2.828a5 5 0 0 1 -10 0zm0 18.743a5 5 0 0 1 10 0v20.523a5 5 0 0 1 -10 0z"/><path d="m86.859 493.252h36.025v-72.66a5 5 0 0 1 5-5h76.444a5 5 0 0 1 5 5v72.66h42.045v-90.415l-164.514-54.468z"/><path d="m261.373 337.835 163.768 54.221v-19.466l-163.768-54.221z"/><path d="m261.373 493.252h36.027v-72.66a5 5 0 0 1 5-5h76.444a5 5 0 0 1 5 5v72.66h41.3v-90.662l-163.771-54.221z"/><path d="m307.398 425.592h66.444v67.661h-66.444z"/><path d="m86.859 337.835 164.514 54.468v-19.466l-164.514-54.468z"/></svg>