<svg id="Layer_1" height="512" viewBox="0 0 512 512" width="512" xmlns="http://www.w3.org/2000/svg" data-name="Layer 1"><path d="m266.086 195.748a54.642 54.642 0 0 0 -38.886 16.109l-31.656 31.656 2.606 48.187 29.75 29.759 93.34-93.338-16.263-16.264a54.647 54.647 0 0 0 -38.891-16.109z"/><path d="m71 344.006a15.131 15.131 0 0 0 0 21.373l28.129 28.121a15.133 15.133 0 0 0 21.375 0l16.182-16.183-49.5-49.5z"/><path d="m188.262 294.151-2.225-41.136-40.158 40.159 55.154 55.155 19.8-19.8-31.113-31.113a5 5 0 0 1 -1.458-3.265z"/><path d="m18.993 396.751h69.884v30.232h-69.884z" transform="matrix(.707 -.707 .707 .707 -275.437 158.771)"/><path d="m359.861 74.988-46.379 46.379 21.218 21.213 34.664-34.663a44.7 44.7 0 0 1 31.817-13.18h92.285v-30h-108.857a34.769 34.769 0 0 0 -24.748 10.251z"/><path d="m274.186 108.163a28.664 28.664 0 0 0 -20.4 8.45l-40.094 40.1a5 5 0 0 1 -5.312 1.137l-19.766-7.523a34.869 34.869 0 0 0 -33.177 4.511l-64.044 47.068a34.827 34.827 0 0 0 -11.383 42.123l12.474 28.771a5 5 0 0 1 -1.052 5.524l-19.8 19.8 89.8 89.8 32.529-32.524-58.69-58.69a5 5 0 0 1 0-7.071l84.854-84.853a65 65 0 0 1 91.924 0l16.263 16.263 35.356-35.355-69.082-69.081a28.66 28.66 0 0 0 -20.4-8.45zm-148.079 142.45a5 5 0 0 1 -7.07 0l-12.17-12.17a5 5 0 0 1 7.071-7.071l12.169 12.17a5 5 0 0 1 0 7.071zm19.8-19.8a5 5 0 0 1 -7.07 0l-12.17-12.169a5 5 0 0 1 7.07-7.072l12.17 12.17a5 5 0 0 1 -.001 7.072zm19.8-19.8a5 5 0 0 1 -7.07 0l-12.17-12.171a5 5 0 0 1 7.07-7.071l12.17 12.17a5 5 0 0 1 -.002 7.075zm91.391-66.6-27.848 27.847a5 5 0 0 1 -7.07-7.072l27.847-27.846a5 5 0 0 1 7.071 7.071zm17.09-14.254a6.808 6.808 0 0 0 -4.844 2.006 5 5 0 0 1 -7.071-7.071 16.743 16.743 0 0 1 11.915-4.935 5 5 0 0 1 0 10z"/></svg>