<svg id="Layer_1" height="512" viewBox="0 0 512 512" width="512" xmlns="http://www.w3.org/2000/svg" data-name="Layer 1"><path d="m248 112.84h16v18.389h-16z"/><path d="m318.747 131.229v-74.067h-125.909v74.067h13v-40.067a17.019 17.019 0 0 1 17-17h65.909a17.019 17.019 0 0 1 17 17v40.067z"/><path d="m325.553 463.247h-139.524a53.125 53.125 0 0 1 -11.183-1.2v22.794h161.893v-22.78a53.228 53.228 0 0 1 -11.154 1.186z"/><path d="m178.838 47.162h153.909a10 10 0 0 0 0-20h-153.909a10 10 0 0 0 0 20z"/><path d="m142.894 410.113a43.232 43.232 0 0 0 43.138 43.134h139.55a43.638 43.638 0 0 0 43.524-43.174v-92.631h-226.212z"/><path d="m377.994 285.444h-243.988a11 11 0 0 0 0 22h243.988a11 11 0 0 0 0-22z"/><path d="m369.106 184.363a43.23 43.23 0 0 0 -43.138-43.134h-139.939a43.23 43.23 0 0 0 -43.135 43.137v91.078h226.212zm-181.641 73.874a5 5 0 0 1 -10 0v-59.523a5 5 0 0 1 10 0zm0-77.438a5 5 0 0 1 -10 0v-5.828a5 5 0 0 1 10 0z"/></svg>