<svg id="Layer_1" height="512" viewBox="0 0 512 512" width="512" xmlns="http://www.w3.org/2000/svg" data-name="Layer 1"><path d="m158.838 358.6a32.667 32.667 0 1 0 32.667 32.667 32.7 32.7 0 0 0 -32.667-32.667zm0 51.756a19.089 19.089 0 1 1 19.089-19.089 19.11 19.11 0 0 1 -19.089 19.091z"/><path d="m158.838 382.18a9.089 9.089 0 1 0 9.089 9.089 9.1 9.1 0 0 0 -9.089-9.089z"/><path d="m353.162 382.18a9.089 9.089 0 1 0 9.088 9.089 9.1 9.1 0 0 0 -9.088-9.089z"/><path d="m395.9 66.161-65.1 51.793a9.043 9.043 0 0 1 -12.187-.907l-72.713-78.027-72.709 83.162a9.05 9.05 0 0 1 -9.863 2.53l-54.483-19.9-33.96 53.428h363.115zm-168.564 36.982-28.811 32.943a5 5 0 0 1 -7.525-6.586l28.809-32.94a5 5 0 1 1 7.527 6.583zm17.785-20.353-5.687 6.516a5 5 0 0 1 -7.535-6.575l5.687-6.516a5 5 0 0 1 7.535 6.575z"/><path d="m34.01 168.235h443.979v30h-443.979z"/><path d="m353.162 358.6a32.667 32.667 0 1 0 32.666 32.667 32.7 32.7 0 0 0 -32.666-32.667zm0 51.756a19.089 19.089 0 1 1 19.088-19.089 19.11 19.11 0 0 1 -19.088 19.091z"/><path d="m462.99 306.48v-61.245h-413.98v61.245a72.576 72.576 0 0 0 69 72.4 42.662 42.662 0 0 1 81.678.089h112.622a42.662 42.662 0 0 1 81.678-.089 72.576 72.576 0 0 0 69.002-72.4zm-401.48-44.245a5 5 0 1 1 10 0v6.852a5 5 0 1 1 -10 0zm48.608 98.285a4.994 4.994 0 0 1 -6.25 3.306 59.716 59.716 0 0 1 -42.358-57.346v-19.1a5 5 0 1 1 10 0v19.1a50.4 50.4 0 0 0 35.3 47.789 5 5 0 0 1 3.308 6.251z"/><path d="m20 441.269h472v31.71h-472z"/><path d="m49.01 208.235h413.979v27h-413.979z"/></svg>