<svg id="Layer_1" height="512" viewBox="0 0 512 512" width="512" xmlns="http://www.w3.org/2000/svg" data-name="Layer 1"><path d="m366.8 465.567h-282.125a12.279 12.279 0 1 0 0 24.558h282.125a12.279 12.279 0 1 0 0-24.558z"/><path d="m101.832 98.181v156.419h247.813v-43.773a99.489 99.489 0 0 1 -98.126-112.646z"/><path d="m101.832 299.153v156.414h247.813v-156.414zm42.633 139.084a5 5 0 0 1 -10 0v-88.523a5 5 0 0 1 10 0zm0-107.438a5 5 0 0 1 -10 0v-5.828a5 5 0 0 1 10 0z"/><path d="m84.675 88.181h168.7a98.856 98.856 0 0 1 9.49-24.558h-178.19a12.279 12.279 0 0 0 0 24.558z"/><path d="m350.125 57.449-32.359 55.24a37.5 37.5 0 1 0 64.717 0zm28.091 74.557a28.683 28.683 0 0 1 -18.753 21.424 5 5 0 0 1 -3.253-9.456 18.686 18.686 0 0 0 12.205-13.948 5 5 0 1 1 9.8 1.98z"/><path d="m366.8 264.6h-282.125a12.279 12.279 0 1 0 0 24.558h282.125a12.279 12.279 0 1 0 0-24.558z"/><path d="m350.125 21.875a89.479 89.479 0 1 0 89.475 89.479 89.58 89.58 0 0 0 -89.475-89.479zm33.589 143.358a47.5 47.5 0 0 1 -74.577-57.6l36.673-62.6a5 5 0 0 1 8.629 0l36.673 62.605a47.519 47.519 0 0 1 -7.398 57.595z"/></svg>