<svg id="Layer_1" height="512" viewBox="0 0 512 512" width="512" xmlns="http://www.w3.org/2000/svg" data-name="Layer 1"><path d="m78.259 81.385h154.622a91.144 91.144 0 0 1 8.348-21.739h-162.97a10.87 10.87 0 0 0 0 21.739z"/><path d="m94.424 91.385v142.842h226.785v-39.389a91.816 91.816 0 0 1 -90.184-103.453z"/><path d="m322.059 155.747a34.036 34.036 0 0 0 29.367-51.239l-29.367-50.134-29.369 50.134a34.036 34.036 0 0 0 29.369 51.239zm5.457-23.1a16.746 16.746 0 0 0 10.94-12.5 5 5 0 0 1 9.8 1.98 26.748 26.748 0 0 1 -17.491 19.98 5 5 0 1 1 -3.252-9.456z"/><path d="m78.259 265.966h259.115a10.87 10.87 0 1 0 0-21.739h-259.115a10.87 10.87 0 0 0 0 21.739z"/><path d="m322.059 184.849a81.774 81.774 0 1 0 -81.775-81.773 81.866 81.866 0 0 0 81.775 81.773zm-38-85.395 33.682-57.5a5 5 0 0 1 8.629 0l33.682 57.5a44.035 44.035 0 1 1 -75.993 0z"/><rect height="8.648" rx="2.666" width="70.99" x="328.801" y="353.348"/><path d="m274.1 428.808h-195.841a10.87 10.87 0 0 0 0 21.739h197.641a64.515 64.515 0 0 1 -1.8-21.739z"/><path d="m320.845 366.207a12.578 12.578 0 0 1 -2.044-6.876v-3.317a12.678 12.678 0 0 1 7.937-11.741 75.333 75.333 0 0 0 -9.778-19.57 68.779 68.779 0 0 0 -6.916-8.26 15.542 15.542 0 0 1 -4.344-13.143 15.761 15.761 0 0 1 15.508-13.629v-13.7h-226.784v142.837h181.324q.478-1.948 1.078-3.883c.429-1.378.89-2.751 1.37-4.083 9.349-25.911 30.404-38.472 42.649-44.635zm-193.379 27.03a5 5 0 0 1 -10 0v-68.523a5 5 0 0 1 10 0zm0-87.438a5 5 0 0 1 -10 0v-5.828a5 5 0 0 1 10 0z"/><path d="m395.548 294.831c-2.791 2.965-8.384 5.542-9.729 6.069-.5.2-.989.365-1.468.506-8.686 2.559-14.767 1.121-21.689-5.133-3.32-3-6.2-3.686-8.79-2.1a23.059 23.059 0 0 0 -1.572 3.127 48.131 48.131 0 0 1 -2.352 4.728c-1.407 2.4-3.592 5.248-8.03 6.019a12.5 12.5 0 0 1 -7.48-.97 22.966 22.966 0 0 1 -4.1-2.638 49.28 49.28 0 0 0 -6.14-4.04 5.849 5.849 0 0 0 -5.7.012 5.783 5.783 0 0 0 -2.889 4.265 5.619 5.619 0 0 0 1.562 4.753 78.753 78.753 0 0 1 7.93 9.465 85.332 85.332 0 0 1 11.851 24.457h15.428c-1.425-5.963-3.564-13.669-5.219-16.31a5 5 0 1 1 8.475-5.309c2.893 4.619 5.643 15.621 7 21.619h7.208c0-8.673 2.478-15.947 7.422-21.662a32.324 32.324 0 0 1 8.893-7.165 5 5 0 0 1 4.828 8.758 22.347 22.347 0 0 0 -6.158 4.949c-4.255 4.919-5.038 10.927-5.019 15.12h14.836a146.619 146.619 0 0 1 12.838-23.551c5.566-8.211 10.863-12.376 15.537-16.05.507-.4 1.013-.8 1.519-1.2a1.162 1.162 0 0 0 .365-1.36 1.227 1.227 0 0 0 -.981-.711c-5.826-.9-11.247-4.085-15.6-6.646a42.794 42.794 0 0 0 -4.393-2.395c-2.952-1.197-4.752-.465-8.383 3.393z"/><path d="m442.725 420.3q-.2-.741-.413-1.479c-6.429-22.273-21.259-38.5-42.9-47.041a12.694 12.694 0 0 1 -2.288.218h-65.348c-.7.347-1.475.722-2.355 1.145-10.6 5.1-32.657 15.7-41.818 41.1-.431 1.194-.844 2.424-1.228 3.657a55.292 55.292 0 0 0 8.525 49.62 56.216 56.216 0 0 0 45.657 23.18h47.52a56.214 56.214 0 0 0 44.874-22.216 55.2 55.2 0 0 0 9.774-48.184zm-77.551 8.331a19.957 19.957 0 0 1 4.826 39.323v4.046a5 5 0 0 1 -10 0v-4.135a19.987 19.987 0 0 1 -14.8-19.265 5 5 0 0 1 10 0 9.97 9.97 0 1 0 9.97-9.97 19.956 19.956 0 0 1 -5.17-39.23v-5.4a5 5 0 0 1 10 0v5.307a19.986 19.986 0 0 1 15.143 19.354 5 5 0 0 1 -10 0 9.97 9.97 0 1 0 -9.969 9.969z"/></svg>