<svg id="Layer_1" height="512" viewBox="0 0 512 512" width="512" xmlns="http://www.w3.org/2000/svg" data-name="Layer 1"><path d="m188.697 230.607h35.687v23.92h-35.687z"/><path d="m188.697 196.686h35.687v23.921h-35.687z"/><path d="m188.697 264.527h35.687v32.008h-35.687z"/><path d="m188.697 162.766h35.687v23.92h-35.687z"/><path d="m119.439 302.6v-188.767a9.3 9.3 0 1 0 -18.595 0v188.767a9.3 9.3 0 1 0 18.6 0z"/><path d="m129.439 120.93h49.258v175.605h-49.258z"/><path d="m139.439 306.535h-10.407a19.3 19.3 0 0 1 -37.781 0h-.94a73.21 73.21 0 0 1 -9.467-.634v21.065h58.6z"/><path d="m392.561 113.833v188.767a9.3 9.3 0 1 0 18.6 0v-188.767a9.3 9.3 0 1 0 -18.6 0z"/><path d="m484.689 233.535v-49.6a63.072 63.072 0 0 0 -63-63h-.533v175.6h.533a63.072 63.072 0 0 0 63-63z"/><path d="m431.156 305.9a73.21 73.21 0 0 1 -9.467.634h-.94a19.3 19.3 0 0 1 -37.781 0h-10.407v20.431h58.6z"/><path d="m267.753 89.333h88.491v21.597h-88.491z"/><path d="m188.697 120.93h35.687v31.835h-35.687z"/><path d="m149.439 306.535h213.122v20.431h-213.122z"/><path d="m234.385 120.93h148.176v175.605h-148.176z"/><path d="m73.838 380.911a9.089 9.089 0 1 0 9.089 9.089 9.1 9.1 0 0 0 -9.089-9.089z"/><path d="m438.162 380.911a9.089 9.089 0 1 0 9.089 9.089 9.1 9.1 0 0 0 -9.089-9.089z"/><path d="m438.162 357.333a32.667 32.667 0 1 0 32.666 32.667 32.7 32.7 0 0 0 -32.666-32.667zm0 51.756a19.089 19.089 0 1 1 19.089-19.089 19.111 19.111 0 0 1 -19.089 19.089z"/><path d="m173.838 380.911a9.089 9.089 0 1 0 9.089 9.089 9.1 9.1 0 0 0 -9.089-9.089z"/><path d="m260.991 387.701h90.018v16.998h-90.018z"/><path d="m173.838 357.333a32.667 32.667 0 1 0 32.667 32.667 32.7 32.7 0 0 0 -32.667-32.667zm0 51.756a19.089 19.089 0 1 1 19.089-19.089 19.112 19.112 0 0 1 -19.089 19.089z"/><path d="m90.844 296.535v-175.605h-.533a63.072 63.072 0 0 0 -63 63v49.6a63.072 63.072 0 0 0 63 63zm-14.844-60.215a5 5 0 0 1 -10 0v-59.52a5 5 0 0 1 10 0zm0-77.439a5 5 0 0 1 -10 0v-5.828a5 5 0 0 1 10 0z"/><path d="m73.838 357.333a32.667 32.667 0 1 0 32.667 32.667 32.7 32.7 0 0 0 -32.667-32.667zm0 51.756a19.089 19.089 0 1 1 19.089-19.089 19.112 19.112 0 0 1 -19.089 19.089z"/><path d="m20.01 377.7h12.976a42.662 42.662 0 0 1 81.7 0h18.3a42.662 42.662 0 0 1 81.7 0h182.624a42.661 42.661 0 0 1 81.7 0h12.98v-40.734h-471.98z"/></svg>