<svg id="Layer_1" height="512" viewBox="0 0 512 512" width="512" xmlns="http://www.w3.org/2000/svg" data-name="Layer 1"><path d="m140.167 462.058h223.399v18.942h-223.399z"/><path d="m443.792 151h-102.2a25.125 25.125 0 0 0 -11.193 2.646l-27.545 14.412a5 5 0 0 0 -2.232 6.71 5 5 0 0 0 6.711 2.232l27.545-14.412a15 15 0 0 1 6.716-1.588h47.857v131.585c0 29.821 23.68 54.705 53.5 55.16a54.4 54.4 0 0 0 55.185-54.335v-88.069a54.341 54.341 0 0 0 -54.344-54.341z"/><path d="m186.457 182.364a76.667 76.667 0 0 1 21.347-7.439v-22.125l-51.087-51.087-9.533 9.533-78.784-78.782a5 5 0 0 0 -3.533-1.464h-46a5 5 0 0 0 0 10h43.933l77.316 77.317-8.851 8.851z"/><path d="m281.517 173.557c1.482 0 2.951.051 4.413.134v-37.609h83.014a5 5 0 0 0 2.607-.734l67.241-41.086a5 5 0 0 0 -5.214-8.533l-66.04 40.353h-81.608v-19.007h-68.13v66.616c1.462-.083 2.931-.134 4.413-.134z"/><path d="m222.217 183.557a67.334 67.334 0 0 0 -67.063 62.362h193.426a67.334 67.334 0 0 0 -67.063-62.362z"/><path d="m154.956 284.862v167.2h193.822v-167.2zm29.509 104.375a5 5 0 0 1 -10 0v-60.523a5 5 0 0 1 10 0zm0-77.438a5 5 0 0 1 -10 0v-5.828a5 5 0 0 1 10 0zm102.479 114.201a49.606 49.606 0 0 1 -77.88-60.15l38.489-65.7a5 5 0 0 1 8.629 0l38.488 65.7a49.624 49.624 0 0 1 -7.726 60.15z"/><path d="m140.167 255.919h223.399v18.942h-223.399z"/><path d="m251.867 312.563-34.174 58.337a39.606 39.606 0 0 0 62.18 48.024l3.535 3.536-3.535-3.536a39.619 39.619 0 0 0 6.168-48.024zm30.779 85.154a29.853 29.853 0 0 1 -19.52 22.3 5 5 0 1 1 -3.251-9.456 19.857 19.857 0 0 0 12.969-14.822 5 5 0 1 1 9.8 1.979z"/></svg>