<svg id="Layer_1" height="512" viewBox="0 0 512 512" width="512" xmlns="http://www.w3.org/2000/svg" data-name="Layer 1"><path d="m441.713 149.731v39.19h29.631v-61.211h-7.61a22.045 22.045 0 0 0 -22.021 22.021z"/><path d="m435.057 253.74h8.349v192.229a29.531 29.531 0 1 1 -59.062 0v-76.469a39.044 39.044 0 0 0 -39-39h-20.787v-32.711h-26.866v86h26.866v-43.289h20.787a29.033 29.033 0 0 1 29 29v76.469a39.531 39.531 0 1 0 79.062 0v-192.229h8.531v-28.173h-26.88z"/><path d="m472.121 27.964-18.421 18.418a22.862 22.862 0 0 0 -6.741 16.274v38.032h-16.859a10.257 10.257 0 0 0 -10.245 10.245v18.536a5 5 0 0 1 -2.953 4.562l-8.689 3.9a12.963 12.963 0 0 0 -7.538 9.909l-5.409 33.99a12.942 12.942 0 0 0 8.087 14.037l13.135 5.191a5 5 0 0 1 3.163 4.649v9.862h51.7v-16.648h-34.638a5 5 0 0 1 -5-5v-44.19a32.058 32.058 0 0 1 32.021-32.021h7.61v-17.022h-14.382v-38.032a12.925 12.925 0 0 1 3.812-9.2l18.418-18.417a5 5 0 1 0 -7.071-7.072z"/><path d="m96.54 69.197h152.034v66.364h-152.034z"/><path d="m172.557 263.134-36.32 62a42.093 42.093 0 0 0 66.084 51.04l3.535 3.535-3.535-3.535a42.108 42.108 0 0 0 6.556-51.04zm32.222 90.4a31.239 31.239 0 0 1 -20.425 23.334 5 5 0 1 1 -3.252-9.456 21.246 21.246 0 0 0 13.875-15.857 5 5 0 1 1 9.8 1.979z"/><path d="m287.691 65.079a35.04 35.04 0 0 0 -35-35h-160.269a35.04 35.04 0 0 0 -35 35v109.6h230.269zm-29.117 75.482a5 5 0 0 1 -5 5h-162.034a5 5 0 0 1 -5-5v-76.361a5 5 0 0 1 5-5h162.034a5 5 0 0 1 5 5z"/><path d="m31.344 450.382h282.426v33.118h-282.426z"/><path d="m287.691 184.679h-230.269v255.7h230.269zm-194.882 214.348a5 5 0 0 1 -10 0v-147.527a5 5 0 0 1 10 0zm0-165.438a5 5 0 0 1 -10 0v-7.829a5 5 0 0 1 10 0zm116.584 149.659a52.094 52.094 0 0 1 -81.785-63.166l40.635-69.367a5 5 0 0 1 8.629 0l40.634 69.367a52.114 52.114 0 0 1 -8.113 63.166z"/></svg>