<svg id="Layer_1" height="512" viewBox="0 0 512 512" width="512" xmlns="http://www.w3.org/2000/svg" data-name="Layer 1"><path d="m193.662 217.561h20.138v25.008h-20.138z"/><path d="m261.471 217.561h26.729v25.008h-26.729z"/><path d="m22.714 270.456h35.582v41.642h-35.582z"/><path d="m53.682 219.057h-26.354a4.618 4.618 0 0 0 -4.614 4.613v36.786h35.586v-36.786a4.618 4.618 0 0 0 -4.618-4.613z"/><path d="m180.046 166.083h151.908a8.791 8.791 0 0 0 0-17.581h-151.908a8.791 8.791 0 0 0 0 17.581z"/><path d="m298.2 217.561h20.138v25.008h-20.138z"/><path d="m242.164 176.083h27.672v31.478h-27.672z"/><path d="m223.8 217.561h27.671v25.008h-27.671z"/><path d="m22.714 358.883a4.619 4.619 0 0 0 4.614 4.615h26.354a4.619 4.619 0 0 0 4.614-4.615v-36.783h-35.582z"/><path d="m453.7 356.96a6.545 6.545 0 0 0 6.537 6.538h22.513a6.544 6.544 0 0 0 6.536-6.538v-34.86h-35.586z"/><path d="m453.704 270.456h35.582v41.642h-35.582z"/><path d="m401.949 236.798h41.755v108.958h-41.755z"/><path d="m482.75 219.057h-22.509a6.544 6.544 0 0 0 -6.537 6.536v34.863h35.582v-34.863a6.543 6.543 0 0 0 -6.536-6.536z"/><path d="m120.052 329.985h271.9v-77.416h-271.9zm60.637-28.77h95.855a5 5 0 0 1 0 10h-95.855a5 5 0 0 1 0-10zm-24.209.962h6.237a5 5 0 0 1 0 10h-6.237a5 5 0 0 1 0-10z"/><path d="m68.296 236.798h41.756v108.958h-41.756z"/></svg>