<svg id="Layer_1" height="512" viewBox="0 0 512 512" width="512" xmlns="http://www.w3.org/2000/svg" data-name="Layer 1"><path d="m360.9 249.914a125.8 125.8 0 0 1 24.386 2.382 174.231 174.231 0 0 0 6.728-60.416 187.236 187.236 0 0 0 -54.058-119.739 175.2 175.2 0 0 0 -248.143 0 187.236 187.236 0 0 0 -54.055 119.739 175.855 175.855 0 0 0 10.642 72.379c8.415 23.061 22.173 44.864 40.893 64.8l126.592 134.841 33.051-35.2a125.692 125.692 0 0 1 113.964-178.786zm-170.585-210.908a168.41 168.41 0 0 1 33.567-3.368 5 5 0 0 1 0 10 158.327 158.327 0 0 0 -31.569 3.167 5 5 0 0 1 -2-9.8zm-115.503 112.782a5 5 0 1 1 -9.381-3.464 176.339 176.339 0 0 1 40.758-63.831 165.131 165.131 0 0 1 55.567-36.908 5 5 0 1 1 3.734 9.276 155.179 155.179 0 0 0 -52.217 34.691 166.4 166.4 0 0 0 -38.461 60.236zm56.112 37.557c0-46.9 37.216-85.054 82.961-85.054s82.96 38.155 82.96 85.054-37.216 85.055-82.96 85.055-82.961-38.156-82.961-85.055z"/><ellipse cx="213.885" cy="189.345" rx="72.96" ry="75.054"/><path d="m360.9 259.914a115.692 115.692 0 0 0 -103.9 166.637 4.935 4.935 0 0 1 .781 1.57 115.718 115.718 0 1 0 103.119-168.207zm39.147 179.509a55.362 55.362 0 0 1 -86.917-67.13l43.456-74.183a5 5 0 0 1 8.628 0l43.455 74.183a55.384 55.384 0 0 1 -8.625 67.13z"/><path d="m360.9 310.53-39.141 66.818a45.362 45.362 0 1 0 78.282 0zm32.381 89.991a33.069 33.069 0 0 1 -21.616 24.695 5 5 0 0 1 -3.253-9.456 23.061 23.061 0 0 0 15.066-17.218 5 5 0 0 1 9.8 1.979z"/></svg>