<svg id="Layer_1" height="512" viewBox="0 0 512 512" width="512" xmlns="http://www.w3.org/2000/svg" data-name="Layer 1"><path d="m203.635 272.672h35.106v180.361h-35.106z"/><path d="m458.415 463.033h-389.83a5 5 0 0 1 -5-5v-337l103.108 19.163 83.585 96.173a5 5 0 0 0 2.452 1.542l150.3 41.19-34.526 22.19a5 5 0 1 0 5.407 8.412l41.3-26.542a8.592 8.592 0 0 0 2.465-11.846l-28.512-44.926a5 5 0 1 0 -8.443 5.359l23.716 37.369-147.6-40.451-83.74-96.351a5 5 0 0 0 -2.87-1.637l-106.642-19.855v-38.623a10 10 0 0 0 -20 0v410.833h414.83a10 10 0 1 0 0-20z"/><path d="m112.718 193.76h35.106v259.272h-35.106z"/><path d="m382.467 372.172h35.106v80.861h-35.106z"/><path d="m294.551 313.099h35.106v139.934h-35.106z"/><path d="m301 28.967-49.994 85.346a57.94 57.94 0 1 0 99.988 0zm41.416 123.814a40.068 40.068 0 0 1 -26.2 29.928 5 5 0 1 1 -3.251-9.456 30.071 30.071 0 0 0 19.649-22.453 5 5 0 1 1 9.8 1.979z"/></svg>