<svg id="Layer_1" height="512" viewBox="0 0 512 512" width="512" xmlns="http://www.w3.org/2000/svg" data-name="Layer 1"><path d="m284.829 329.713.008-47.87-52.015 23.937z"/><path d="m284.84 265.979.007-46.603-50.637 23.303z"/><path d="m227.855 297.058 50.301-23.148-50.297-23.146z"/><path d="m284.85 203.381.008-48.568-52.773 24.286z"/><path d="m284.818 394.547.009-48.679-52.894 24.342z"/><path d="m76.662 52.9v38.839h413.52l-.112-38.839zm58.6 28.37h-5.829a5 5 0 1 1 0-10h5.829a5 5 0 0 1 0 10zm127.438 0h-109.524a5 5 0 0 1 0-10h109.524a5 5 0 0 1 0 10z"/><path d="m227.849 361.082 50.612-23.292-50.607-23.289z"/><path d="m227.841 451.739h56.968l.007-41.308-56.974 26.219z"/><path d="m227.843 425.642 50.313-23.153-50.308-23.152z"/><path d="m227.867 170.033 50.747-23.353-50.743-23.352z"/><path d="m227.861 234.594 50.447-23.216-50.443-23.213z"/><path d="m412.936 289.378h36v191.361h-36z"/><path d="m311.188 461.739h-110.506a26.685 26.685 0 0 0 -26.168 21.639h162.841a26.681 26.681 0 0 0 -26.167-21.639z"/><path d="m400.102 101.739h61.666v16.639h-61.666z"/><path d="m425.436 128.378h11v151h-11z"/><path d="m66.662 53.257h-44.14l.418 14.636h43.722z"/><path d="m284.867 101.739h-56.994l-.001 10.582 56.989 26.226z"/><path d="m66.662 28.622h-44.844l.418 14.635h44.426z"/><path d="m66.662 93.629v-15.736h-43.436l.572 20h42.902q-.036-2.132-.038-4.264z"/><path d="m67.076 107.893h-42.632a86.394 86.394 0 0 0 4.8 20h39.777q-1.374-9.955-1.945-20z"/><path d="m74.568 156.112q-2.323-9.036-3.963-18.219h-36.916a86.669 86.669 0 0 0 14.452 20h26.885z"/><path d="m78.935 227.343v-50.343h1l-2.342-9.1h-18.978l9.671 9.1h.649v50.347a21.621 21.621 0 0 0 0 42.071v212.8h10v-212.8a21.621 21.621 0 0 0 0-42.071z"/></svg>