<svg id="Layer_1" height="512" viewBox="0 0 512 512" width="512" xmlns="http://www.w3.org/2000/svg" data-name="Layer 1"><path d="m107.285 266.17h106.141v18.668h-106.141z"/><path d="m124.274 146.12h23.336v19.493h-23.336z"/><path d="m124.274 175.613h23.336v19.493h-23.336z"/><path d="m92.255 114.679h22.02v141.491h-22.02z"/><path d="m124.274 234.599h23.336v21.571h-23.336z"/><path d="m124.274 205.106h23.336v19.493h-23.336z"/><path d="m461.325 284.232c.4 0 .806.027 1.208.042l-26.108-94.8h-61.6a17.019 17.019 0 0 0 -17 17v.3h67.384a5 5 0 0 1 4.869 3.865l17.153 73.6z"/><path d="m357.823 216.771v67.461h79.138l-15.723-67.461z"/><path d="m76.51 267.712a5.751 5.751 0 0 0 5.745-5.745v-153.867a5.746 5.746 0 0 0 -11.491 0v153.867a5.752 5.752 0 0 0 5.746 5.745z"/><path d="m305.212 210.064v-49.28a46.15 46.15 0 0 0 -45.265-46.084v141.449a46.151 46.151 0 0 0 45.265-46.085z"/><path d="m244.2 267.712a5.751 5.751 0 0 0 5.745-5.745v-153.867a5.745 5.745 0 1 0 -11.49 0v153.867a5.751 5.751 0 0 0 5.745 5.745z"/><path d="m170.167 90.932h40.511v13.747h-40.511z"/><path d="m157.61 114.679h70.847v141.491h-70.847z"/><path d="m223.426 284.838h41.553v-18.977q-2.772.289-5.617.3a15.724 15.724 0 0 1 -30.318.007h-5.618z"/><path d="m124.274 114.679h23.336v21.441h-23.336z"/><path d="m423.885 369.7a13.373 13.373 0 1 0 13.372 13.373 13.388 13.388 0 0 0 -13.372-13.373z"/><path d="m454.316 179.47v-.853c0-15.242-15.779-27.642-35.174-27.642h-59.419a25.028 25.028 0 0 0 -25 25v108.863h13.1v-78.368a27.032 27.032 0 0 1 27-27z"/><path d="m25.5 312.068h116.867 205.456v-17.23h-322.323z"/><path d="m423.885 345.068a38 38 0 1 0 38 38 38.043 38.043 0 0 0 -38-38zm0 61.372a23.373 23.373 0 1 1 23.372-23.372 23.4 23.4 0 0 1 -23.372 23.372z"/><path d="m461.325 294.232h-103.5v78.385h19.221a47.991 47.991 0 0 1 93.682 0h25.772v-34.171c0-19.489-16.562-44.214-35.175-44.214z"/><path d="m25.5 322.068v50.549h23.774a47.991 47.991 0 0 1 93.682 0h204.867v-50.549z"/><path d="m96.115 369.7a13.373 13.373 0 1 0 13.373 13.373 13.388 13.388 0 0 0 -13.373-13.373z"/><path d="m60.764 256.149v-141.449a46.15 46.15 0 0 0 -45.264 46.084v49.28a46.151 46.151 0 0 0 45.264 46.085zm-21.3-116.178a5 5 0 0 1 10 0v5.829a5 5 0 0 1 -10 0zm0 22.743a5 5 0 0 1 10 0v46.523a5 5 0 0 1 -10 0z"/><path d="m55.733 284.838h41.552v-18.668h-5.617a15.725 15.725 0 0 1 -30.319-.007q-2.842-.012-5.616-.3z"/><path d="m96.115 345.068a38 38 0 1 0 38 38 38.043 38.043 0 0 0 -38-38zm0 61.372a23.373 23.373 0 1 1 23.373-23.372 23.4 23.4 0 0 1 -23.373 23.372z"/></svg>