<svg id="Layer_1" height="512" viewBox="0 0 512 512" width="512" xmlns="http://www.w3.org/2000/svg" data-name="Layer 1"><path d="m133.017 367.323h121.658v-68.638l-15.721-6.178c-15.931 7.655-30.521 11.493-45.108 11.493s-29.177-3.836-45.109-11.491l-15.72 6.178z"/><path d="m235.893 67.425a6.388 6.388 0 0 0 6.574-6.385v-23.4a6.388 6.388 0 1 0 -12.775 0v23.4a6.357 6.357 0 0 0 6.201 6.385z"/><path d="m193.659 67.425a6.277 6.277 0 0 0 4.637-1.8 6.34 6.34 0 0 0 1.937-4.583v-34.917a6.388 6.388 0 0 0 -12.775 0v34.915a6.357 6.357 0 0 0 6.201 6.385z"/><path d="m151.426 67.425a6.388 6.388 0 0 0 6.574-6.385v-23.4a6.388 6.388 0 1 0 -12.775 0v23.4a6.356 6.356 0 0 0 6.201 6.385z"/><path d="m154.205 284.037c28.239 13.293 51.043 13.293 79.282 0v-27.059a79.942 79.942 0 0 1 -79.282.214z"/><path d="m265.427 153.793a2.7 2.7 0 0 0 .854-1.793l.873-12.658h-8.314l5.722 15.258z"/><path d="m264.675 367.323h15.639v-58.562l-15.639-6.146z"/><path d="m284.4 234.657-8.949-44.216c-.555.251-1.121.483-1.7.692a80.117 80.117 0 0 1 -30.264 59.067v33.346l30.487 11.981c13.711-14.911 14.492-40.873 10.426-60.87z"/><path d="m193.656 257.606a70.269 70.269 0 0 0 70.185-70.194v-.121a5 5 0 0 1 4.128-4.923 14.11 14.11 0 0 0 11.652-13.923 14.273 14.273 0 0 0 -.4-3.379 9.079 9.079 0 0 0 -5.052-6.241 12.775 12.775 0 0 1 -1.913 2.278l-6.331 5.91a5 5 0 0 1 -8.094-1.9l-9.667-25.772h-111.152l-3.7 23.047a5 5 0 0 1 -7.22 3.656l-9.008-4.625a11.155 11.155 0 0 1 -3.484-2.819 9.1 9.1 0 0 0 -5.558 6.464 14.167 14.167 0 0 0 11.28 17.307 5 5 0 0 1 4.138 4.925v.114a70.274 70.274 0 0 0 70.196 70.196z"/><path d="m266.568 76.06a76.96 76.96 0 0 0 -14.1-21.866v6.846a16.389 16.389 0 0 1 -16.368 16.388c-.165 0-.329 0-.5-.007a16.309 16.309 0 0 1 -15.908-16.381v-23.4a16.338 16.338 0 0 1 .654-4.542 80.045 80.045 0 0 0 -10.113-2.8v30.742a16.387 16.387 0 0 1 -16.372 16.388c-.165 0-.329 0-.495-.007a16.309 16.309 0 0 1 -15.908-16.381v-30.727a80.1 80.1 0 0 0 -10.106 2.809 16.31 16.31 0 0 1 .648 4.522v23.4a16.389 16.389 0 0 1 -16.372 16.388c-.165 0-.329 0-.495-.007a16.309 16.309 0 0 1 -15.908-16.385v-6.776a77.16 77.16 0 0 0 -14.075 21.848 93.557 93.557 0 0 0 -6.966 30.947h159.333a93.4 93.4 0 0 0 -6.949-30.999z"/><path d="m121.655 152.524 2.879 1.476 2.351-14.66h-6.726l.841 12.188a1.218 1.218 0 0 0 .655.996z"/><path d="m107.377 367.323h15.64v-64.708l-15.64 6.146z"/><path d="m338.844 349.94a55.48 55.48 0 0 0 -26.193-28.471l-22.337-8.778v54.632h5.6a5 5 0 0 1 5 5v82.463h14.275a85.16 85.16 0 0 1 23.655-104.846z"/><path d="m391.646 376.054-25.093 42.837a29.081 29.081 0 1 0 50.185 0zm23.5 58.021a23.994 23.994 0 0 1 -15.69 17.925 5 5 0 0 1 -3.252-9.457 13.989 13.989 0 0 0 9.136-10.443 5 5 0 0 1 9.8 1.978z"/><path d="m391.646 341.571a75.346 75.346 0 1 0 75.345 75.346 75.431 75.431 0 0 0 -75.345-75.346zm27.633 119.653a39.081 39.081 0 0 1 -61.355-47.388l29.407-50.2a5 5 0 0 1 8.629 0l29.407 50.2a39.093 39.093 0 0 1 -6.088 47.388z"/><path d="m108.565 129.342h170.562a6.142 6.142 0 0 0 0-12.283h-170.562a6.142 6.142 0 0 0 0 12.283z"/><path d="m96.775 454.786h194.141v-77.463h-194.141zm58.8-56.182h58.525a5 5 0 0 1 0 10h-58.526a5 5 0 0 1 0-10zm-24.743 0h5.829a5 5 0 1 1 0 10h-5.829a5 5 0 1 1 0-10z"/><path d="m144.205 283.544v-33.052a80.117 80.117 0 0 1 -30.568-58.09l-11.937 42.434c-7.39 36.585 1.275 54.141 8.531 62.059z"/><path d="m97.377 312.691-22.337 8.778a55.382 55.382 0 0 0 -30.031 44.37v88.947h41.766v-82.463a5 5 0 0 1 5-5h5.6z"/></svg>