<?xml version="1.0"?>
<svg xmlns="http://www.w3.org/2000/svg" id="Layer_1" data-name="Layer 1" viewBox="0 0 512 512" width="512" height="512"><path d="M370.826,281.16l-37.2,63.5a43.11,43.11,0,0,0,67.681,52.273h0a43.125,43.125,0,0,0,6.715-52.273ZM400.335,367.7a31.807,31.807,0,0,1-20.8,23.757A5,5,0,1,1,376.288,382a21.806,21.806,0,0,0,14.245-16.279,5,5,0,1,1,9.8,1.979Z"/><path d="M415.931,252.907a99.605,99.605,0,0,0-45.1-10.647,100.588,100.588,0,1,0,45.1,10.647ZM408.38,404a53.11,53.11,0,0,1-83.38-64.4l41.511-70.865a5,5,0,0,1,8.629,0l41.512,70.865A53.128,53.128,0,0,1,408.38,404Z"/><path d="M345.433,235.205V110.756a13.4,13.4,0,0,0-26.807,0v34.178a5,5,0,0,1-10,0V98.925a13.4,13.4,0,0,0-26.807,0v46.009a5,5,0,1,1-10,0V83.151a13.4,13.4,0,0,0-26.807,0v61.783a5,5,0,1,1-10,0v-63.1a13.4,13.4,0,1,0-26.806,0l-.051,85.055c-.816,18.818-13.14,35.187-31.4,41.7l-.575.2a5,5,0,0,1-3.366-9.417l.578-.206c14.189-5.061,24.141-18.208,24.77-32.716q.042-.963.042-1.93v-3.406H149.052v57.426a26.561,26.561,0,0,0,7.831,18.905l9.724,9.725a85.288,85.288,0,0,1,25.011,55.759h76.03A111.1,111.1,0,0,1,345.433,235.205ZM227.458,174.75a66.52,66.52,0,0,1-36.916,49.712,5,5,0,0,1-4.374-8.993,56.523,56.523,0,0,0,31.4-42.215,5,5,0,1,1,9.887,1.5Zm.748-16.223a5,5,0,0,1-10,0v-2.739a5,5,0,0,1,10,0Z"/><path d="M456.176,106.861a5,5,0,0,1,4.1-2.133h.017l23.511.08A52.934,52.934,0,0,0,440.42,82.479a53.494,53.494,0,0,0-49.9,34.613,5,5,0,0,1-4.684,3.251h-30.4v30.778h30.4a5,5,0,0,1,4.684,3.251,53.493,53.493,0,0,0,49.9,34.614,52.949,52.949,0,0,0,43.338-22.273H459.166A5,5,0,0,1,455,164.485a50.151,50.151,0,0,1,.654-56.883Zm-29.251,2.944A29.242,29.242,0,0,0,413,125.489a5,5,0,1,1-9.368-3.5A39.236,39.236,0,0,1,422.3,100.939a5,5,0,0,1,4.628,8.866Zm22.03-7.636a5,5,0,0,1-4.968,4.491c-.17,0-.342-.009-.515-.026a30.088,30.088,0,0,0-3.052-.155,5,5,0,0,1,0-10,39.972,39.972,0,0,1,4.07.207A5,5,0,0,1,448.955,102.169Z"/><path d="M198.206,120.343H126.164a5,5,0,0,1-4.684-3.251,53.494,53.494,0,0,0-49.9-34.613,52.948,52.948,0,0,0-43.338,22.272H52.834A5,5,0,0,1,57,106.979a50.153,50.153,0,0,1-.654,56.884l-.518.74a5.077,5.077,0,0,1-4.114,2.134L28.2,166.656a52.935,52.935,0,0,0,43.381,22.33,53.493,53.493,0,0,0,49.9-34.614,5,5,0,0,1,4.684-3.251h72.042Z"/><path d="M176.8,312.936a8.154,8.154,0,0,0-8.146,8.145v39.436a8.155,8.155,0,0,0,8.146,8.145h86.4a110.868,110.868,0,0,1,1.1-55.726Z"/></svg>
