<svg id="Layer_1" height="512" viewBox="0 0 512 512" width="512" xmlns="http://www.w3.org/2000/svg" data-name="Layer 1"><path d="m132.661 297.185v68.638h121.659v-68.637l-15.72-6.179c-15.932 7.655-30.522 11.491-45.108 11.491s-29.178-3.836-45.108-11.491z"/><path d="m233.132 255.478a79.939 79.939 0 0 1 -79.282.213v26.846c28.238 13.294 51.044 13.293 79.282 0z"/><path d="m107.022 365.823h15.639v-64.708l-15.639 6.146z"/><path d="m108.21 127.842h170.561a6.142 6.142 0 1 0 0-12.283h-170.561a6.142 6.142 0 0 0 0 12.283z"/><path d="m263.486 185.791a5 5 0 0 1 4.128-4.923 14.159 14.159 0 0 0 11.247-17.3 9.082 9.082 0 0 0 -5.051-6.242 12.729 12.729 0 0 1 -1.915 2.28l-6.331 5.909a5 5 0 0 1 -8.093-1.9l-9.671-25.773h-111.144l-3.694 23.047a5 5 0 0 1 -7.221 3.656l-9.009-4.625a11.178 11.178 0 0 1 -3.486-2.818 9.1 9.1 0 0 0 -5.557 6.464 14.273 14.273 0 0 0 -.4 3.379 14.109 14.109 0 0 0 11.686 13.928 5 5 0 0 1 4.137 4.925v.114a70.19 70.19 0 1 0 140.379 0z"/><path d="m121.3 151.024 2.878 1.478 2.35-14.66h-6.724l.84 12.186a1.217 1.217 0 0 0 .656.996z"/><path d="m193.3 65.925a6.388 6.388 0 0 0 6.574-6.385v-34.915a6.387 6.387 0 1 0 -12.774 0v34.915a6.356 6.356 0 0 0 6.2 6.385z"/><path d="m235.538 65.925a6.386 6.386 0 0 0 6.574-6.385v-23.4a6.388 6.388 0 1 0 -12.775 0v23.4a6.357 6.357 0 0 0 6.201 6.385z"/><path d="m151.07 65.925a6.388 6.388 0 0 0 6.575-6.385v-23.4a6.388 6.388 0 1 0 -12.775 0v23.4a6.357 6.357 0 0 0 6.2 6.385z"/><path d="m266.213 74.561a76.96 76.96 0 0 0 -14.1-21.866v6.845a16.387 16.387 0 0 1 -16.373 16.388c-.165 0-.329 0-.5-.007a16.309 16.309 0 0 1 -15.903-16.381v-23.4a16.3 16.3 0 0 1 .654-4.542 79.952 79.952 0 0 0 -10.113-2.8v30.742a16.389 16.389 0 0 1 -16.372 16.388c-.165 0-.329 0-.5-.007a16.308 16.308 0 0 1 -15.906-16.381v-30.727a80.079 80.079 0 0 0 -10.1 2.809 16.311 16.311 0 0 1 .649 4.522v23.4a16.389 16.389 0 0 1 -16.373 16.388c-.165 0-.329 0-.5-.007a16.308 16.308 0 0 1 -15.906-16.385v-6.776a77.172 77.172 0 0 0 -14.07 21.849 93.588 93.588 0 0 0 -6.967 30.946h159.329a93.33 93.33 0 0 0 -6.949-30.998z"/><path d="m392 343.071a75.346 75.346 0 1 0 75.346 75.346 75.431 75.431 0 0 0 -75.346-75.346zm27.635 119.653a39.082 39.082 0 0 1 -61.357-47.388l29.408-50.2a5 5 0 0 1 8.628 0l29.408 50.2a39.1 39.1 0 0 1 -6.087 47.388z"/><path d="m96.42 453.286h194.142v-77.463h-194.142zm59.154-54.686h58.526a5 5 0 0 1 0 10h-58.526a5 5 0 0 1 0-10zm-24.743 0h5.829a5 5 0 1 1 0 10h-5.829a5 5 0 1 1 0-10z"/><path d="m339.524 351.184a55.148 55.148 0 0 0 -27.224-31.215l-22.337-8.778v54.632h5.6a5 5 0 0 1 5 5v82.463h13.571a85.143 85.143 0 0 1 25.391-102.1z"/><path d="m265.071 152.293a2.7 2.7 0 0 0 .856-1.8l.872-12.655h-8.315l5.723 15.258z"/><path d="m392 377.554-25.093 42.837a29.081 29.081 0 1 0 50.186 0zm23.5 58.022a24 24 0 0 1 -15.687 17.92 5 5 0 1 1 -3.252-9.457 13.989 13.989 0 0 0 9.139-10.439 5 5 0 0 1 9.8 1.98z"/><path d="m97.022 311.191-22.336 8.778a55.383 55.383 0 0 0 -30.032 44.37v88.947h41.766v-82.463a5 5 0 0 1 5-5h5.6z"/><path d="m279.96 307.261-15.64-6.146v64.708h15.64z"/></svg>