<svg height="512" viewBox="0 0 64 64" width="512" xmlns="http://www.w3.org/2000/svg"><g id="Accountant"><path d="m54.32 7.68a16.009 16.009 0 0 0 -27.32 11.32v24.01a3.7 3.7 0 0 1 1.43-.5l10.57-1.51v-3.69a11.939 11.939 0 0 0 8 0v3.69l10.57 1.51a3.7 3.7 0 0 1 1.43.5v-24.01a15.987 15.987 0 0 0 -4.68-11.32z" fill="#a78966"/><path d="m59 19v24.01a3.7 3.7 0 0 0 -1.43-.5l-2.57-.37v-23.14a15.958 15.958 0 0 0 -14.02-15.87 15.009 15.009 0 0 1 2.02-.13 15.979 15.979 0 0 1 16 16z" fill="#806749"/><path d="m61 46.47v14.53h-18v-12l8-2-4-6 10.57 1.51a3.7 3.7 0 0 1 1.43.5 3.972 3.972 0 0 1 2 3.46z" fill="#bdfdff"/><path d="m61 46.47v14.53h-4v-14.53a3.972 3.972 0 0 0 -2-3.46 3.7 3.7 0 0 0 -1.43-.5l-6.15-.88-.42-.63 10.57 1.51a3.7 3.7 0 0 1 1.43.5 3.972 3.972 0 0 1 2 3.46z" fill="#46f8ff"/><path d="m59 23a4 4 0 0 1 -4 4h-.04c.03-.33.04-.66.04-1v-7a3.995 3.995 0 0 1 4 4z" fill="#ffa733"/><path d="m55 19v7c0 .34-.01.67-.04 1a11.976 11.976 0 0 1 -7.96 10.31 11.939 11.939 0 0 1 -8 0 11.976 11.976 0 0 1 -7.96-10.31c-.03-.33-.04-.66-.04-1v-7l17-5z" fill="#ffb655"/><path d="m55 19v7c0 .34-.01.67-.04 1a11.976 11.976 0 0 1 -7.96 10.31 11.8 11.8 0 0 1 -4 .69 12 12 0 0 1 -2-.17 11.082 11.082 0 0 0 2-.52 11.976 11.976 0 0 0 7.96-10.31c.03-.33.04-.66.04-1v-7l-5.83-4.17 2.83-.83z" fill="#ff9811"/><path d="m52 22v4h-6v-2-2z" fill="#c6c5ca"/><path d="m47 41 4 6-8 2z" fill="#2488ff"/><path d="m47 37.31v3.69l-4 8-4-8v-3.69a11.939 11.939 0 0 0 8 0z" fill="#ffa733"/><path d="m43 49v12h-18v-14.53a3.972 3.972 0 0 1 2-3.46 3.7 3.7 0 0 1 1.43-.5l10.57-1.51-4 6z" fill="#bdfdff"/><path d="m39 41 4 8-8-2z" fill="#2488ff"/><path d="m40 24v2h-6v-4h6z" fill="#c6c5ca"/><path d="m49 22h3v4h-3z" fill="#898890"/><path d="m37 22h3v4h-3z" fill="#898890"/><path d="m31.04 27h-.04a4 4 0 1 1 0-8v7c0 .34.01.67.04 1z" fill="#ffa733"/><rect fill="#c6c5ca" height="28" rx="2" width="20" x="3" y="29"/><path d="m23 31v24a2.006 2.006 0 0 1 -2 2h-4a2.006 2.006 0 0 0 2-2v-24a2.006 2.006 0 0 0 -2-2h4a2.006 2.006 0 0 1 2 2z" fill="#898890"/><path d="m15 49h4v4h-4z" fill="#57a4ff"/><path d="m15 41h4v4h-4z" fill="#ffde55"/><path d="m7 33h12v4h-12z" fill="#bdfdff"/><path d="m15 33h4v4h-4z" fill="#46f8ff"/><path d="m13.04 5h-.04a10 10 0 0 0 -.04 20h.04a10 10 0 0 0 .04-20z" fill="#ffcd00"/><path d="m23 15a10 10 0 0 1 -10 10h-.04a9.614 9.614 0 0 1 -2.47-.32 10 10 0 0 0 .02-19.36 9.769 9.769 0 0 1 2.49-.32h.04a10 10 0 0 1 9.96 10z" fill="#ddb200"/><path d="m7 49h4v4h-4z" fill="#ff3051"/><path d="m7 41h4v4h-4z" fill="#9cdd05"/><path d="m17 49h2v4h-2z" fill="#006df0"/><path d="m17 41h2v4h-2z" fill="#ebbf00"/><path d="m9 49h2v4h-2z" fill="#cd2a00"/><path d="m9 41h2v4h-2z" fill="#5eac24"/><path d="m43 32c-1.936 0-3-.751-3-1h-2c0 1.71 2.149 3 5 3s5-1.29 5-3h-2c0 .249-1.064 1-3 1z"/><path d="m39 52h2v2h-2z"/><path d="m39 56h2v2h-2z"/><path d="m45 52h2v2h-2z"/><path d="m45 56h2v2h-2z"/><path d="m19 32h-12a1 1 0 0 0 -1 1v4a1 1 0 0 0 1 1h12a1 1 0 0 0 1-1v-4a1 1 0 0 0 -1-1zm-1 4h-10v-2h10z"/><path d="m11 40h-4a1 1 0 0 0 -1 1v4a1 1 0 0 0 1 1h4a1 1 0 0 0 1-1v-4a1 1 0 0 0 -1-1zm-1 4h-2v-2h2z"/><path d="m19 40h-4a1 1 0 0 0 -1 1v4a1 1 0 0 0 1 1h4a1 1 0 0 0 1-1v-4a1 1 0 0 0 -1-1zm-1 4h-2v-2h2z"/><path d="m19 48h-4a1 1 0 0 0 -1 1v4a1 1 0 0 0 1 1h4a1 1 0 0 0 1-1v-4a1 1 0 0 0 -1-1zm-1 4h-2v-2h2z"/><path d="m11 48h-4a1 1 0 0 0 -1 1v4a1 1 0 0 0 1 1h4a1 1 0 0 0 1-1v-4a1 1 0 0 0 -1-1zm-1 4h-2v-2h2z"/><path d="m60 42.475v-23.475a17 17 0 0 0 -34 0v23.476a4.994 4.994 0 0 0 -2 3.994v-15.47a3 3 0 0 0 -3-3h-16a3 3 0 0 0 -3 3v24a3 3 0 0 0 3 3h16a3 3 0 0 0 3-3v6a1 1 0 0 0 1 1h36a1 1 0 0 0 1-1v-14.53a4.991 4.991 0 0 0 -2-3.995zm-38 12.525a1 1 0 0 1 -1 1h-16a1 1 0 0 1 -1-1v-24a1 1 0 0 1 1-1h16a1 1 0 0 1 1 1zm35.118-34.128a3.018 3.018 0 0 1 .882 2.128 2.987 2.987 0 0 1 -2 2.81v-5.63a3.019 3.019 0 0 1 1.118.692zm-11.118 19.892-3 6-3-6v-2.127a12.578 12.578 0 0 0 6 0zm-3-3.764a11.013 11.013 0 0 1 -11-11v-4.586l1 1v3.586a1 1 0 0 0 1 1h6a1 1 0 0 0 1-1v-1h4v1a1 1 0 0 0 1 1h6a1 1 0 0 0 1-1v-3.586l1-1v4.586a11.013 11.013 0 0 1 -11 11zm-8-12v-2h4v2zm12 0v-2h4v2zm4.586-4h-5.586a1 1 0 0 0 -1 1v1h-4v-1a1 1 0 0 0 -1-1h-5.586l-1.514-1.516 14.915-4.384 5.643 4.031zm-21.586 4.816a2.992 2.992 0 0 1 -1.128-4.934 3.063 3.063 0 0 1 1.128-.7zm.157 2.1a13.026 13.026 0 0 0 7.843 10.084v2.136l-9.7 1.386c-.1.013-.2.05-.3.07v-14.624a5.006 5.006 0 0 0 2.157.944zm10.976 19.584-4.514-1.128 2.257-3.385zm5.991-4.513 2.257 3.385-4.514 1.128zm.876-4.987a13.027 13.027 0 0 0 7.843-10.082 4.946 4.946 0 0 0 2.157-.944v14.615c-.1-.019-.189-.056-.289-.069l-9.711-1.387zm-5-34a14.98 14.98 0 0 1 15 15v.025a4.962 4.962 0 0 0 -2.628-.989l-6.791-4.85a1 1 0 0 0 -.863-.145l-16.935 4.98a4.965 4.965 0 0 0 -2.783 1v-.021a15.017 15.017 0 0 1 15-15zm-17 42.47a3 3 0 0 1 1.517-2.6 2.723 2.723 0 0 1 1.055-.366l8.355-1.194-2.759 4.139a1 1 0 0 0 .589 1.525l7.243 1.807v10.219h-16zm34 13.53h-16v-10.219l7.243-1.811a1 1 0 0 0 .589-1.525l-2.759-4.139 8.363 1.2a2.753 2.753 0 0 1 1.068.377 2.986 2.986 0 0 1 1.496 2.587z"/><path d="m13 26a11 11 0 1 0 -11-11 11.013 11.013 0 0 0 11 11zm0-20a9 9 0 1 1 -9 9 9.011 9.011 0 0 1 9-9z"/><path d="m13 20a2 2 0 0 1 -2-2h-2a4 4 0 0 0 3 3.858v1.142h2v-1.142a3.992 3.992 0 0 0 -1-7.858 2 2 0 1 1 2-2h2a4 4 0 0 0 -3-3.858v-1.142h-2v1.142a3.992 3.992 0 0 0 1 7.858 2 2 0 0 1 0 4z"/></g></svg>