<svg height="512" viewBox="0 0 64 64" width="512" xmlns="http://www.w3.org/2000/svg"><g id="Analysis"><path d="m60.97 38h-17.97v-17a17.994 17.994 0 0 1 17.97 17z" fill="#ff3051"/><path d="m60.97 38h-4a18 18 0 0 0 -13.97-16.55v-.45a17.994 17.994 0 0 1 17.97 17z" fill="#cd2a00"/><path d="m56.97 42c.02.33.03.67.03 1a17.994 17.994 0 0 1 -35.54 4h9.54a4 4 0 0 0 4-4v-17.54a17.1 17.1 0 0 1 4-.46v17z" fill="#9cdd05"/><path d="m57 43a18 18 0 0 1 -18 18 18.851 18.851 0 0 1 -2-.11 18.01 18.01 0 0 0 16-17.89c0-.33-.01-.67-.03-1h4c.02.33.03.67.03 1z" fill="#5eac24"/><path d="m35 7v36a4 4 0 0 1 -4 4h-25c-2.21 0-3-1.79-3-4v-36a4 4 0 0 1 4-4h24a4 4 0 0 1 4 4z" fill="#c6c5ca"/><path d="m35 7v36a4 4 0 0 1 -4 4h-4a4 4 0 0 0 4-4v-36a4 4 0 0 0 -4-4h4a4 4 0 0 1 4 4z" fill="#898890"/><path d="m21 31h10v12h-10z" fill="#57a4ff"/><path d="m21 17h10v10h-10z" fill="#ff3051"/><rect fill="#bdfdff" height="6" rx="1" width="24" x="7" y="7"/><path d="m31 8v4a1 1 0 0 1 -1 1h-4a1 1 0 0 0 1-1v-4a1 1 0 0 0 -1-1h4a1 1 0 0 1 1 1z" fill="#46f8ff"/><path d="m7 31h10v12h-10z" fill="#9cdd05"/><path d="m7 17h10v10h-10z" fill="#ffde55"/><path d="m27 31h4v12h-4z" fill="#006df0"/><path d="m27 17h4v10h-4z" fill="#cd2a00"/><path d="m13 31h4v12h-4z" fill="#5eac24"/><path d="m13 17h4v10h-4z" fill="#ebbf00"/><path d="m8 14h22a2 2 0 0 0 2-2v-4a2 2 0 0 0 -2-2h-22a2 2 0 0 0 -2 2v4a2 2 0 0 0 2 2zm0-6h22v4h-22z"/><path d="m17 16h-10a1 1 0 0 0 -1 1v10a1 1 0 0 0 1 1h10a1 1 0 0 0 1-1v-10a1 1 0 0 0 -1-1zm-1 10h-8v-8h8z"/><path d="m31 16h-10a1 1 0 0 0 -1 1v10a1 1 0 0 0 1 1h10a1 1 0 0 0 1-1v-10a1 1 0 0 0 -1-1zm-1 10h-8v-8h8z"/><path d="m32 43v-12a1 1 0 0 0 -1-1h-10a1 1 0 0 0 -1 1v12a1 1 0 0 0 1 1h10a1 1 0 0 0 1-1zm-2-1h-8v-10h8z"/><path d="m11 25h2v-2h2v-2h-2v-2h-2v2h-2v2h2z"/><path d="m23 21h6v2h-6z"/><path d="m17 30h-10a1 1 0 0 0 -1 1v12a1 1 0 0 0 1 1h10a1 1 0 0 0 1-1v-12a1 1 0 0 0 -1-1zm-1 12h-8v-10h8z"/><path d="m10.832 40.555 1.168-1.752 1.168 1.752 1.664-1.11-1.63-2.445 1.63-2.445-1.664-1.11-1.168 1.752-1.168-1.752-1.664 1.11 1.63 2.445-1.63 2.445z"/><path d="m23 36h6v2h-6z"/><path d="m25 33h2v2h-2z"/><path d="m25 39h2v2h-2z"/><path d="m56.97 41h-16.97v-16a1 1 0 0 0 -1-1 18.5 18.5 0 0 0 -3 .245v-17.245a5.006 5.006 0 0 0 -5-5h-24a5.006 5.006 0 0 0 -5 5v36c0 3.131 1.5 5 4 5h14.7a18.985 18.985 0 0 0 37.3-5c0-.351-.011-.712-.032-1.062a1 1 0 0 0 -.998-.938zm-52.97 2v-36a3 3 0 0 1 3-3h24a3 3 0 0 1 3 3v36a3 3 0 0 1 -3 3h-25c-.495 0-2 0-2-3zm35 17a16.865 16.865 0 0 1 -16.234-12h8.234a5.006 5.006 0 0 0 5-5v-16.715a16.07 16.07 0 0 1 2-.256v15.971a1 1 0 0 0 1 1h17a17.019 17.019 0 0 1 -17 17z"/><path d="m61.969 37.946a18.983 18.983 0 0 0 -18.969-17.946 1 1 0 0 0 -1 1v17a1 1 0 0 0 1 1h18v-.006a.993.993 0 0 0 .969-1.048zm-17.969-.946v-14.971a16.984 16.984 0 0 1 15.882 14.971z"/></g></svg>