<svg height="512" viewBox="0 0 64 64" width="512" xmlns="http://www.w3.org/2000/svg"><g id="Analysis_Report" data-name="Analysis Report"><path d="m35 61h-32v-50h8v-8h24z" fill="#fee9ab"/><path d="m30 3h5v58h-5z" fill="#ffd422"/><rect fill="#c6c5ca" height="28" rx="2" width="20" x="41" y="33"/><path d="m61 35v24a2.006 2.006 0 0 1 -2 2h-4a2.006 2.006 0 0 0 2-2v-24a2.006 2.006 0 0 0 -2-2h4a2.006 2.006 0 0 1 2 2z" fill="#898890"/><path d="m60.97 20h-17.97v-17a17.994 17.994 0 0 1 17.97 17z" fill="#ff3051"/><path d="m60.97 20h-4a18 18 0 0 0 -13.97-16.55v-.45a17.994 17.994 0 0 1 17.97 17z" fill="#cd2a00"/><path d="m53 53h4v4h-4z" fill="#57a4ff"/><path d="m53 45h4v4h-4z" fill="#ffde55"/><path d="m45 37h12v4h-12z" fill="#bdfdff"/><path d="m53 37h4v4h-4z" fill="#46f8ff"/><path d="m56.97 24c.02.33.03.67.03 1a17.881 17.881 0 0 1 -1.88 8h-12.12a2.006 2.006 0 0 0 -2 2v7.89a18.851 18.851 0 0 1 -2 .11 17.1 17.1 0 0 1 -4-.46 17.988 17.988 0 0 1 0-35.08 17.1 17.1 0 0 1 4-.46v17z" fill="#9cdd05"/><path d="m39 24h-4v-16.54a17.1 17.1 0 0 1 4-.46z" fill="#5eac24"/><path d="m57 25a17.881 17.881 0 0 1 -1.88 8h-4a17.881 17.881 0 0 0 1.88-8c0-.33-.01-.67-.03-1h4c.02.33.03.67.03 1z" fill="#5eac24"/><path d="m45 53h4v4h-4z" fill="#ff3051"/><path d="m45 45h4v4h-4z" fill="#9cdd05"/><path d="m55 53h2v4h-2z" fill="#006df0"/><path d="m55 45h2v4h-2z" fill="#ebbf00"/><path d="m47 53h2v4h-2z" fill="#cd2a00"/><path d="m47 45h2v4h-2z" fill="#5eac24"/><path d="m19.05 41h-.05a8 8 0 0 0 -.05 16h.05a8 8 0 0 0 .05-16z" fill="#ffcd00"/><path d="m27 49a8 8 0 0 1 -8 8h-.05a8.163 8.163 0 0 1 -1.93-.25 8.005 8.005 0 0 0 -.04-15.5 8.4 8.4 0 0 1 2.02-.25h.05a8 8 0 0 1 7.95 8z" fill="#ddb200"/><path d="m11 3v8h-8z" fill="#ffd422"/><path d="m43 21h18v-.006a.993.993 0 0 0 .969-1.048 18.983 18.983 0 0 0 -18.969-17.946 1 1 0 0 0 -1 1v17a1 1 0 0 0 1 1zm16.882-2h-15.882v-14.971a16.984 16.984 0 0 1 15.882 14.971z"/><path d="m59 32h-2.346a18.756 18.756 0 0 0 1.346-7c0-.351-.011-.712-.032-1.062a1 1 0 0 0 -1-.938h-16.968v-16a1 1 0 0 0 -1-1 18.9 18.9 0 0 0 -3 .261v-3.261a1 1 0 0 0 -1-1h-24a1 1 0 0 0 -.707.293l-8 8a1 1 0 0 0 -.293.707v50a1 1 0 0 0 1 1h32a1 1 0 0 0 1-1v-17.261a18.9 18.9 0 0 0 3 .261c.331 0 .663-.01 1-.028v15.028a3 3 0 0 0 3 3h16a3 3 0 0 0 3-3v-24a3 3 0 0 0 -3-3zm-49-26.586v4.586h-4.586zm24 54.586h-30v-48h7a1 1 0 0 0 1-1v-7h22v2.69a18.973 18.973 0 0 0 0 36.62zm5-18a17 17 0 0 1 -1-33.971v15.971a1 1 0 0 0 1 1h17a16.781 16.781 0 0 1 -1.538 7h-11.462a3 3 0 0 0 -3 3v6.968c-.338.02-.671.032-1 .032zm21 17a1 1 0 0 1 -1 1h-16a1 1 0 0 1 -1-1v-24a1 1 0 0 1 1-1h16a1 1 0 0 1 1 1z"/><path d="m57 36h-12a1 1 0 0 0 -1 1v4a1 1 0 0 0 1 1h12a1 1 0 0 0 1-1v-4a1 1 0 0 0 -1-1zm-1 4h-10v-2h10z"/><path d="m49 44h-4a1 1 0 0 0 -1 1v4a1 1 0 0 0 1 1h4a1 1 0 0 0 1-1v-4a1 1 0 0 0 -1-1zm-1 4h-2v-2h2z"/><path d="m57 44h-4a1 1 0 0 0 -1 1v4a1 1 0 0 0 1 1h4a1 1 0 0 0 1-1v-4a1 1 0 0 0 -1-1zm-1 4h-2v-2h2z"/><path d="m57 52h-4a1 1 0 0 0 -1 1v4a1 1 0 0 0 1 1h4a1 1 0 0 0 1-1v-4a1 1 0 0 0 -1-1zm-1 4h-2v-2h2z"/><path d="m49 52h-4a1 1 0 0 0 -1 1v4a1 1 0 0 0 1 1h4a1 1 0 0 0 1-1v-4a1 1 0 0 0 -1-1zm-1 4h-2v-2h2z"/><path d="m19 40a9 9 0 1 0 9 9 9.01 9.01 0 0 0 -9-9zm0 16a7 7 0 1 1 7-7 7.009 7.009 0 0 1 -7 7z"/><path d="m19 46a1 1 0 0 1 1 1h2a3 3 0 0 0 -2-2.816v-1.184h-2v1.184a2.993 2.993 0 0 0 1 5.816 1 1 0 1 1 -1 1h-2a3 3 0 0 0 2 2.816v1.184h2v-1.184a2.993 2.993 0 0 0 -1-5.816 1 1 0 0 1 0-2z"/><path d="m8 16h10v2h-10z"/><path d="m8 22h10v2h-10z"/><path d="m8 28h10v2h-10z"/><path d="m8 34h10v2h-10z"/></g></svg>