<svg height="512" viewBox="0 0 64 64" width="512" xmlns="http://www.w3.org/2000/svg"><g id="Basket"><path d="m61 21v36a4 4 0 0 1 -4 4h-25c-2.21 0-3-1.79-3-4v-36a4 4 0 0 1 4-4h24a4 4 0 0 1 4 4z" fill="#c6c5ca"/><path d="m61 21v36a4 4 0 0 1 -4 4h-4a4 4 0 0 0 4-4v-36a4 4 0 0 0 -4-4h4a4 4 0 0 1 4 4z" fill="#898890"/><path d="m47 45h10v12h-10z" fill="#57a4ff"/><path d="m47 31h10v10h-10z" fill="#ff3051"/><rect fill="#bdfdff" height="6" rx="1" width="24" x="33" y="21"/><path d="m39 3 8 14h-6l-8-14z" fill="#acabb1"/><path d="m33 45h10v12h-10z" fill="#9cdd05"/><path d="m33 31h10v10h-10z" fill="#ffde55"/><path d="m53 45h4v12h-4z" fill="#006df0"/><path d="m53 31h4v10h-4z" fill="#cd2a00"/><path d="m57 22v4a1 1 0 0 1 -1 1h-4a1 1 0 0 0 1-1v-4a1 1 0 0 0 -1-1h4a1 1 0 0 1 1 1z" fill="#46f8ff"/><path d="m39 45h4v12h-4z" fill="#5eac24"/><path d="m39 31h4v10h-4z" fill="#ebbf00"/><path d="m33 17a4 4 0 0 0 -4 4v24h-20l-6-28z" fill="#ccfc5c"/><path d="m23 3-8 14h-6l8-14z" fill="#acabb1"/><path d="m47 17h-3l-8-14h3z" fill="#787680"/><path d="m23 3-8 14h-3l8-14z" fill="#787680"/><path d="m57 16h-9.42l-7.712-13.5a1 1 0 0 0 -.868-.5h-6a1 1 0 0 0 -.868 1.5l7.145 12.5h-22.554l7.145-12.5a1 1 0 0 0 -.868-1.5h-6a1 1 0 0 0 -.868.5l-7.712 13.5h-5.42a1 1 0 0 0 -.978 1.209l6 28a1 1 0 0 0 .978.791h19v11c0 3.131 1.5 5 4 5h25a5.006 5.006 0 0 0 5-5v-36a5.006 5.006 0 0 0 -5-5zm-22.276-12h3.7l6.856 12h-3.7zm-17.144 0h3.7l-6.86 12h-3.7zm-7.771 40-5.572-26h24.789a4.948 4.948 0 0 0 -1.026 3v23zm50.191 13a3 3 0 0 1 -3 3h-25c-.5 0-2 0-2-3v-36a3 3 0 0 1 3-3h24a3 3 0 0 1 3 3z"/><path d="m56 20h-22a2 2 0 0 0 -2 2v4a2 2 0 0 0 2 2h22a2 2 0 0 0 2-2v-4a2 2 0 0 0 -2-2zm-22 6v-4h22v4z"/><path d="m43 30h-10a1 1 0 0 0 -1 1v10a1 1 0 0 0 1 1h10a1 1 0 0 0 1-1v-10a1 1 0 0 0 -1-1zm-1 10h-8v-8h8z"/><path d="m57 30h-10a1 1 0 0 0 -1 1v10a1 1 0 0 0 1 1h10a1 1 0 0 0 1-1v-10a1 1 0 0 0 -1-1zm-1 10h-8v-8h8z"/><path d="m57 44h-10a1 1 0 0 0 -1 1v12a1 1 0 0 0 1 1h10a1 1 0 0 0 1-1v-12a1 1 0 0 0 -1-1zm-1 12h-8v-10h8z"/><path d="m37 39h2v-2h2v-2h-2v-2h-2v2h-2v2h2z"/><path d="m49 35h6v2h-6z"/><path d="m43 44h-10a1 1 0 0 0 -1 1v12a1 1 0 0 0 1 1h10a1 1 0 0 0 1-1v-12a1 1 0 0 0 -1-1zm-1 12h-8v-10h8z"/><path d="m36.832 54.555 1.168-1.752 1.168 1.752 1.664-1.11-1.63-2.445 1.63-2.445-1.664-1.11-1.168 1.752-1.168-1.752-1.664 1.11 1.63 2.445-1.63 2.445z"/><path d="m49 50h6v2h-6z"/><path d="m51 47h2v2h-2z"/><path d="m51 53h2v2h-2z"/><path d="m12 22h2v18h-2z"/><path d="m18 22h2v18h-2z"/><path d="m24 22h2v18h-2z"/></g></svg>