<svg height="512" viewBox="0 0 64 64" width="512" xmlns="http://www.w3.org/2000/svg"><g id="Briefcase"><path d="m3 15v12h58v-12a2 2 0 0 0 -2-2h-54a2 2 0 0 0 -2 2z" fill="#c0ab91"/><path d="m3 27v26a2 2 0 0 0 2 2h24v-28z" fill="#c6c5ca"/><path d="m61 21v36a4 4 0 0 1 -4 4h-25c-2.21 0-3-1.79-3-4v-36a4 4 0 0 1 4-4h24a4 4 0 0 1 4 4z" fill="#c6c5ca"/><path d="m47 45h10v12h-10z" fill="#57a4ff"/><path d="m47 31h10v10h-10z" fill="#ff3051"/><rect fill="#bdfdff" height="6" rx="1" width="24" x="33" y="21"/><path d="m44 5v8h-4v-6h-16v6h-4v-8a2.006 2.006 0 0 1 2-2h20a2.006 2.006 0 0 1 2 2z" fill="#a78966"/><path d="m33 45h10v12h-10z" fill="#9cdd05"/><path d="m33 31h10v10h-10z" fill="#ffde55"/><path d="m20 21a11 11 0 1 0 9 17.32v-12.64a10.984 10.984 0 0 0 -9-4.68z" fill="#ffcd00"/><path d="m61 21v36a4 4 0 0 1 -4 4h-4a4 4 0 0 0 4-4v-36a4 4 0 0 0 -4-4h4a4 4 0 0 1 4 4z" fill="#898890"/><path d="m57 22v4a1 1 0 0 1 -1 1h-4a1 1 0 0 0 1-1v-4a1 1 0 0 0 -1-1h4a1 1 0 0 1 1 1z" fill="#46f8ff"/><path d="m53 45h4v12h-4z" fill="#006df0"/><path d="m53 31h4v10h-4z" fill="#cd2a00"/><path d="m39 45h4v12h-4z" fill="#5eac24"/><path d="m39 31h4v10h-4z" fill="#ebbf00"/><path d="m59 12h-14v-7a3 3 0 0 0 -3-3h-20a3 3 0 0 0 -3 3v7h-14a3 3 0 0 0 -3 3v38a3 3 0 0 0 3 3h23v1c0 3.131 1.5 5 4 5h25a5.006 5.006 0 0 0 5-5v-42a3 3 0 0 0 -3-3zm-38-7a1 1 0 0 1 1-1h20a1 1 0 0 1 1 1v7h-2v-5a1 1 0 0 0 -1-1h-16a1 1 0 0 0 -1 1v5h-2zm18 7h-14v-4h14zm-34 2h54a1 1 0 0 1 1 1v2.026a4.948 4.948 0 0 0 -3-1.026h-24a5.006 5.006 0 0 0 -5 5v2.072a11.964 11.964 0 0 0 -18.376 2.928h-5.624v-11a1 1 0 0 1 1-1zm15 8a10.006 10.006 0 0 1 8 4.027v11.946a9.993 9.993 0 1 1 -8-15.973zm-15 32a1 1 0 0 1 -1-1v-25h4.7a11.982 11.982 0 0 0 19.3 12.928v13.072zm55 3a3 3 0 0 1 -3 3h-25c-.5 0-2 0-2-3v-36a3 3 0 0 1 3-3h24a3 3 0 0 1 3 3z"/><path d="m8 47h-2v4a1 1 0 0 0 1 1h4v-2h-3z"/><path d="m6 43h2v2h-2z"/><path d="m18 37-.011 1.958 2 .01.011-1.968h2l-.011 1.958 2 .01.011-2.151a2.972 2.972 0 0 0 1.22-4.817 2.972 2.972 0 0 0 -1.231-4.819l.011-2.176-2-.005-.011 2h-2l.01-2h-1.999l-.011 2h-3.989v2h2v6h-2v2zm5-2h-5v-2h5a1 1 0 0 1 0 2zm0-4h-5v-2h5a1 1 0 0 1 0 2z"/><path d="m56 20h-22a2 2 0 0 0 -2 2v4a2 2 0 0 0 2 2h22a2 2 0 0 0 2-2v-4a2 2 0 0 0 -2-2zm-22 6v-4h22v4z"/><path d="m43 30h-10a1 1 0 0 0 -1 1v10a1 1 0 0 0 1 1h10a1 1 0 0 0 1-1v-10a1 1 0 0 0 -1-1zm-1 10h-8v-8h8z"/><path d="m57 30h-10a1 1 0 0 0 -1 1v10a1 1 0 0 0 1 1h10a1 1 0 0 0 1-1v-10a1 1 0 0 0 -1-1zm-1 10h-8v-8h8z"/><path d="m57 44h-10a1 1 0 0 0 -1 1v12a1 1 0 0 0 1 1h10a1 1 0 0 0 1-1v-12a1 1 0 0 0 -1-1zm-1 12h-8v-10h8z"/><path d="m37 39h2v-2h2v-2h-2v-2h-2v2h-2v2h2z"/><path d="m49 35h6v2h-6z"/><path d="m43 44h-10a1 1 0 0 0 -1 1v12a1 1 0 0 0 1 1h10a1 1 0 0 0 1-1v-12a1 1 0 0 0 -1-1zm-1 12h-8v-10h8z"/><path d="m36.832 54.555 1.168-1.752 1.168 1.752 1.664-1.11-1.63-2.445 1.63-2.445-1.664-1.11-1.168 1.752-1.168-1.752-1.664 1.11 1.63 2.445-1.63 2.445z"/><path d="m49 50h6v2h-6z"/><path d="m51 47h2v2h-2z"/><path d="m51 53h2v2h-2z"/><path d="m4 2h2v2h-2z"/><path d="m2 4h2v2h-2z"/><path d="m6 4h2v2h-2z"/><path d="m4 6h2v2h-2z"/><path d="m58 2h2v2h-2z"/><path d="m56 4h2v2h-2z"/><path d="m60 4h2v2h-2z"/><path d="m58 6h2v2h-2z"/></g></svg>