<svg height="512" viewBox="0 0 64 64" width="512" xmlns="http://www.w3.org/2000/svg"><g id="Browser"><path d="m61 11v48a2.006 2.006 0 0 1 -2 2h-54a2.006 2.006 0 0 1 -2-2v-48z" fill="#57a4ff"/><path d="m61 11v48a2.006 2.006 0 0 1 -2 2h-4a2.006 2.006 0 0 0 2-2v-48z" fill="#006df0"/><path d="m61 5v6h-58v-6a2.006 2.006 0 0 1 2-2h54a2.006 2.006 0 0 1 2 2z" fill="#ff9811"/><path d="m61 5v6h-4v-6a2.006 2.006 0 0 0 -2-2h4a2.006 2.006 0 0 1 2 2z" fill="#cc7400"/><path d="m49.05 41h-.05a8 8 0 0 0 -.05 16h.05a8 8 0 0 0 .05-16z" fill="#ffcd00"/><path d="m57 49a8 8 0 0 1 -8 8h-.05a8.163 8.163 0 0 1 -1.93-.25 8.005 8.005 0 0 0 -.04-15.5 8.4 8.4 0 0 1 2.02-.25h.05a8 8 0 0 1 7.95 8z" fill="#ddb200"/><path d="m7 47h28v4h-28z" fill="#fee9ab"/><path d="m31 47h4v4h-4z" fill="#ffd422"/><path d="m23 31h12v12h-12z" fill="#c0ab91"/><path d="m23 15h12v12h-12z" fill="#ff3051"/><path d="m7 31h12v12h-12z" fill="#9cdd05"/><path d="m7 15h12v12h-12z" fill="#ffde55"/><path d="m31 31h4v12h-4z" fill="#a78966"/><path d="m31 15h4v12h-4z" fill="#cd2a00"/><path d="m15 31h4v12h-4z" fill="#5eac24"/><path d="m15 15h4v12h-4z" fill="#ffcd00"/><path d="m59 2h-54a3 3 0 0 0 -3 3v54a3 3 0 0 0 3 3h54a3 3 0 0 0 3-3v-54a3 3 0 0 0 -3-3zm-54 2h54a1 1 0 0 1 1 1v5h-56v-5a1 1 0 0 1 1-1zm54 56h-54a1 1 0 0 1 -1-1v-47h56v47a1 1 0 0 1 -1 1z"/><path d="m6 6h2v2h-2z"/><path d="m10 6h2v2h-2z"/><path d="m14 6h2v2h-2z"/><path d="m7 28h12a1 1 0 0 0 1-1v-12a1 1 0 0 0 -1-1h-12a1 1 0 0 0 -1 1v12a1 1 0 0 0 1 1zm1-12h10v10h-10z"/><path d="m35 14h-12a1 1 0 0 0 -1 1v12a1 1 0 0 0 1 1h12a1 1 0 0 0 1-1v-12a1 1 0 0 0 -1-1zm-1 12h-10v-10h10z"/><path d="m35 30h-12a1 1 0 0 0 -1 1v12a1 1 0 0 0 1 1h12a1 1 0 0 0 1-1v-12a1 1 0 0 0 -1-1zm-1 12h-10v-10h10z"/><path d="m14 17h-2v3h-3v2h3v3h2v-3h3v-2h-3z"/><path d="m25 20h8v2h-8z"/><path d="m7 44h12a1 1 0 0 0 1-1v-12a1 1 0 0 0 -1-1h-12a1 1 0 0 0 -1 1v12a1 1 0 0 0 1 1zm1-12h10v10h-10z"/><path d="m15.293 33.293-2.293 2.293-2.293-2.293-1.414 1.414 2.293 2.293-2.293 2.293 1.414 1.414 2.293-2.293 2.293 2.293 1.414-1.414-2.293-2.293 2.293-2.293z"/><path d="m25 36h8v2h-8z"/><path d="m28 33h2v2h-2z"/><path d="m28 39h2v2h-2z"/><path d="m49 40a9 9 0 1 0 9 9 9.011 9.011 0 0 0 -9-9zm0 16a7 7 0 1 1 7-7 7.008 7.008 0 0 1 -7 7z"/><path d="m49 46a1 1 0 0 1 1 1h2a3 3 0 0 0 -2-2.816v-1.184h-2v1.184a2.993 2.993 0 0 0 1 5.816 1 1 0 1 1 -1 1h-2a3 3 0 0 0 2 2.816v1.184h2v-1.184a2.993 2.993 0 0 0 -1-5.816 1 1 0 0 1 0-2z"/><path d="m40 14h4v2h-4z"/><path d="m46 14h12v2h-12z"/><path d="m40 20h4v2h-4z"/><path d="m46 20h12v2h-12z"/><path d="m40 26h4v2h-4z"/><path d="m46 26h12v2h-12z"/><path d="m40 32h4v2h-4z"/><path d="m46 32h12v2h-12z"/><path d="m35 46h-28a1 1 0 0 0 -1 1v4a1 1 0 0 0 1 1h28a1 1 0 0 0 1-1v-4a1 1 0 0 0 -1-1zm-1 4h-26v-2h26z"/><path d="m6 55h26v2h-26z"/><path d="m34 55h2v2h-2z"/></g></svg>