<svg height="512" viewBox="0 0 64 64" width="512" xmlns="http://www.w3.org/2000/svg"><g id="Calculate"><rect fill="#c6c5ca" height="44" rx="4" width="32" x="7" y="3"/><path d="m39 7v36a4 4 0 0 1 -4 4h-4a4 4 0 0 0 4-4v-36a4 4 0 0 0 -4-4h4a4 4 0 0 1 4 4z" fill="#898890"/><path d="m57 34v3.96a6.045 6.045 0 0 1 -.35 2.02l-4.65 13.02h-20l-2.14-6-1.43-4-1.08-3.02a6.045 6.045 0 0 1 -.35-2.02v-10.97a2.992 2.992 0 0 1 2.99-2.99 3.034 3.034 0 0 1 2.13.88 2.993 2.993 0 0 1 .88 2.12v-15a2.968 2.968 0 0 1 2-2.82 2.772 2.772 0 0 1 1-.18 3 3 0 0 1 3 3v19a3 3 0 0 1 6 0v1a3 3 0 0 1 6 0v2a3 3 0 0 1 6 0z" fill="#ffb655"/><g fill="#ee8700"><path d="m39 12v25h-3v-25a2.993 2.993 0 0 0 -.88-2.12 3.1 3.1 0 0 0 -.61-.47 2.193 2.193 0 0 1 .49-.23 2.772 2.772 0 0 1 1-.18 3 3 0 0 1 3 3z"/><path d="m51 32v5h-3v-5a2.993 2.993 0 0 0 -.88-2.12 3.1 3.1 0 0 0 -.61-.47 2.193 2.193 0 0 1 .49-.23 2.772 2.772 0 0 1 1-.18 3 3 0 0 1 3 3z"/><path d="m45 31v6h-3v-6a2.993 2.993 0 0 0 -.88-2.12 3.1 3.1 0 0 0 -.61-.47 2.193 2.193 0 0 1 .49-.23 2.772 2.772 0 0 1 1-.18 3 3 0 0 1 3 3z"/><path d="m33 27v10h-3v-10a2.993 2.993 0 0 0 -.88-2.12 3.1 3.1 0 0 0 -.61-.47 2.193 2.193 0 0 1 .49-.23 2.772 2.772 0 0 1 1-.18 3 3 0 0 1 3 3z"/><path d="m57 34v3.96a6.045 6.045 0 0 1 -.35 2.02l-4.65 13.02h-3l4.65-13.02a6.045 6.045 0 0 0 .35-2.02v-3.96a2.993 2.993 0 0 0 -.88-2.12 3.3 3.3 0 0 0 -.62-.48 3.026 3.026 0 0 1 1.5-.4 3 3 0 0 1 3 3z"/></g><path d="m32 53h20v8h-20z" fill="#2488ff"/><path d="m48 53h4v8h-4z" fill="#005ece"/><path d="m35 8v1.18a2.968 2.968 0 0 0 -2 2.82v1h-21a1 1 0 0 1 -1-1v-4a1 1 0 0 1 1-1h22a1 1 0 0 1 1 1z" fill="#bdfdff"/><path d="m35 8v1.18a2.968 2.968 0 0 0 -2 2.82v1h-2v-5a1 1 0 0 0 -1-1h4a1 1 0 0 1 1 1z" fill="#46f8ff"/><path d="m33 22v5a2.993 2.993 0 0 0 -.88-2.12 3.034 3.034 0 0 0 -2.13-.88 2.992 2.992 0 0 0 -2.99 2.99v.01h-2v-10h8z" fill="#ff3051"/><path d="m27.35 39.98 1.08 3.02h-3.43v-12h2v6.96a6.045 6.045 0 0 0 .35 2.02z" fill="#57a4ff"/><path d="m11 31h10v12h-10z" fill="#9cdd05"/><path d="m11 17h10v10h-10z" fill="#ffde55"/><path d="m17 31h4v12h-4z" fill="#5eac24"/><path d="m17 17h4v10h-4z" fill="#ebbf00"/><path d="m54 30a3.98 3.98 0 0 0 -2.239.687 3.956 3.956 0 0 0 -6.336-1.722 3.937 3.937 0 0 0 -5.425-1.409v-20.556a5.006 5.006 0 0 0 -5-5h-24a5.006 5.006 0 0 0 -5 5v36c0 3.131 1.5 5 4 5h19.153l1.847 5.173v7.827a1 1 0 0 0 1 1h20a1 1 0 0 0 1-1v-7.827l4.592-12.858a6.989 6.989 0 0 0 .408-2.354v-3.961a4 4 0 0 0 -4-4zm-44 16c-.495 0-2 0-2-3v-36a3 3 0 0 1 3-3h24a3 3 0 0 1 3 3v1.556a3.959 3.959 0 0 0 -2-.556 2 2 0 0 0 -2-2h-22a2 2 0 0 0 -2 2v4a2 2 0 0 0 2 2h20v2h-7a1 1 0 0 0 -1 1v10a1 1 0 0 0 1 1h1v2h-1a1 1 0 0 0 -1 1v12a1 1 0 0 0 1 1h2.724l.715 2zm16.408-5.686.602 1.686h-1.01v-4.039a6.979 6.979 0 0 0 .408 2.353zm-.268-14.314h-.14v-8h6v3h-5v2h5v.56a3.949 3.949 0 0 0 -5.86 2.44zm5.86-14h-20v-4h22v.556a3.987 3.987 0 0 0 -2 3.444zm1 48v-6h18v6zm23-22.039a4.993 4.993 0 0 1 -.291 1.682l-4.409 12.357h-18.6l-4.409-12.358a4.983 4.983 0 0 1 -.291-1.681v-10.968a2 2 0 0 1 4 .007v10h2v-25a2 2 0 0 1 4 0v25h2v-6a2 2 0 0 1 4 0v6h2v-5a2 2 0 0 1 4 0v5h2v-3a2 2 0 0 1 4 0z"/><path d="m21 16h-10a1 1 0 0 0 -1 1v10a1 1 0 0 0 1 1h10a1 1 0 0 0 1-1v-10a1 1 0 0 0 -1-1zm-1 10h-8v-8h8z"/><path d="m15 25h2v-2h2v-2h-2v-2h-2v2h-2v2h2z"/><path d="m21 30h-10a1 1 0 0 0 -1 1v12a1 1 0 0 0 1 1h10a1 1 0 0 0 1-1v-12a1 1 0 0 0 -1-1zm-1 12h-8v-10h8z"/><path d="m14.832 40.555 1.168-1.752 1.168 1.752 1.664-1.11-1.63-2.445 1.63-2.445-1.664-1.11-1.168 1.752-1.168-1.752-1.664 1.11 1.63 2.445-1.63 2.445z"/></g></svg>