<svg height="512" viewBox="0 0 64 64" width="512" xmlns="http://www.w3.org/2000/svg"><g id="Calculation"><rect fill="#ff7956" height="34" rx="4" width="58" x="3" y="27"/><path d="m61 31v26a4 4 0 0 1 -4 4h-4a4 4 0 0 0 4-4v-26a4 4 0 0 0 -4-4h4a4 4 0 0 1 4 4z" fill="#ff5023"/><rect fill="#46f8ff" height="26" rx="1" width="50" x="7" y="31"/><path d="m57 32v24a1 1 0 0 1 -1 1h-4a1 1 0 0 0 1-1v-24a1 1 0 0 0 -1-1h4a1 1 0 0 1 1 1z" fill="#00d7df"/><path d="m48 7v36a4 4 0 0 1 -4 4h-25c-2.21 0-3-1.79-3-4v-36a4 4 0 0 1 4-4h24a4 4 0 0 1 4 4z" fill="#c6c5ca"/><path d="m48 7v36a4 4 0 0 1 -4 4h-4a4 4 0 0 0 4-4v-36a4 4 0 0 0 -4-4h4a4 4 0 0 1 4 4z" fill="#898890"/><path d="m34 31h10v12h-10z" fill="#57a4ff"/><path d="m34 17h10v10h-10z" fill="#ff3051"/><rect fill="#bdfdff" height="6" rx="1" width="24" x="20" y="7"/><path d="m44 8v4a1 1 0 0 1 -1 1h-4a1 1 0 0 0 1-1v-4a1 1 0 0 0 -1-1h4a1 1 0 0 1 1 1z" fill="#46f8ff"/><path d="m20 31h10v12h-10z" fill="#9cdd05"/><path d="m20 17h10v10h-10z" fill="#ffde55"/><path d="m40 31h4v12h-4z" fill="#006df0"/><path d="m40 17h4v10h-4z" fill="#cd2a00"/><path d="m26 31h4v12h-4z" fill="#5eac24"/><path d="m26 17h4v10h-4z" fill="#ebbf00"/><path d="m21 14h22a2 2 0 0 0 2-2v-4a2 2 0 0 0 -2-2h-22a2 2 0 0 0 -2 2v4a2 2 0 0 0 2 2zm0-6h22v4h-22z"/><path d="m20 28h10a1 1 0 0 0 1-1v-10a1 1 0 0 0 -1-1h-10a1 1 0 0 0 -1 1v10a1 1 0 0 0 1 1zm1-10h8v8h-8z"/><path d="m44 16h-10a1 1 0 0 0 -1 1v10a1 1 0 0 0 1 1h10a1 1 0 0 0 1-1v-10a1 1 0 0 0 -1-1zm-1 10h-8v-8h8z"/><path d="m44 30h-10a1 1 0 0 0 -1 1v12a1 1 0 0 0 1 1h10a1 1 0 0 0 1-1v-12a1 1 0 0 0 -1-1zm-1 12h-8v-10h8z"/><path d="m26 19h-2v2h-2v2h2v2h2v-2h2v-2h-2z"/><path d="m36 21h6v2h-6z"/><path d="m20 44h10a1 1 0 0 0 1-1v-12a1 1 0 0 0 -1-1h-10a1 1 0 0 0 -1 1v12a1 1 0 0 0 1 1zm1-12h8v10h-8z"/><path d="m26.168 33.445-1.168 1.752-1.168-1.752-1.664 1.11 1.63 2.445-1.63 2.445 1.664 1.11 1.168-1.752 1.168 1.752 1.664-1.11-1.63-2.445 1.63-2.445z"/><path d="m36 36h6v2h-6z"/><path d="m38 33h2v2h-2z"/><path d="m38 39h2v2h-2z"/><path d="m57 26h-8v-19a5.006 5.006 0 0 0 -5-5h-24a5.006 5.006 0 0 0 -5 5v19h-8a5.006 5.006 0 0 0 -5 5v26a5.006 5.006 0 0 0 5 5h50a5.006 5.006 0 0 0 5-5v-26a5.006 5.006 0 0 0 -5-5zm-40-19a3 3 0 0 1 3-3h24a3 3 0 0 1 3 3v36a3 3 0 0 1 -3 3h-25c-.5 0-2 0-2-3zm2 41h25a5.006 5.006 0 0 0 5-5v-11h7v24h-48v-24h7v11c0 3.131 1.5 5 4 5zm41 9a3 3 0 0 1 -3 3h-50a3 3 0 0 1 -3-3v-26a3 3 0 0 1 3-3h8v2h-7a2 2 0 0 0 -2 2v24a2 2 0 0 0 2 2h48a2 2 0 0 0 2-2v-24a2 2 0 0 0 -2-2h-7v-2h8a3 3 0 0 1 3 3z"/><path d="m54 53v-4h-2v3h-3v2h4a1 1 0 0 0 1-1z"/><path d="m45 52h2v2h-2z"/></g></svg>