<svg height="512" viewBox="0 0 64 64" width="512" xmlns="http://www.w3.org/2000/svg"><g id="Cashier"><path d="m61 47h-58l2-4h54z" fill="#ff7956"/><path d="m3 47h58v8h-58z" fill="#898890"/><path d="m57 47h4v8h-4z" fill="#57565c"/><path d="m59 25v18h-54v-18a2.006 2.006 0 0 1 2-2h50a2.006 2.006 0 0 1 2 2z" fill="#bdfdff"/><path d="m59 25v18h-4v-18a2.006 2.006 0 0 0 -2-2h4a2.006 2.006 0 0 1 2 2z" fill="#46f8ff"/><path d="m59 6v7l-3-2-3 2v-7a3 3 0 0 1 6 0z" fill="#ffd422"/><path d="m59 6v7l-3-2v-5a2.993 2.993 0 0 0 -.88-2.12 3.3 3.3 0 0 0 -.62-.48 3.026 3.026 0 0 1 1.5-.4 3 3 0 0 1 3 3z" fill="#ddb200"/><path d="m41 19h16v4h-16z" fill="#c6c5ca"/><path d="m53 19h4v4h-4z" fill="#898890"/><path d="m56 3a3 3 0 0 0 -3 3v13h-10v-12a4 4 0 0 1 4-4z" fill="#fee9ab"/><path d="m56 3a3 3 0 0 0 -3 3v13h-4v-13a3 3 0 0 1 3-3z" fill="#ffd422"/><rect fill="#c6c5ca" height="28" rx="2" width="20" x="35" y="33"/><path d="m55 35v24a2.006 2.006 0 0 1 -2 2h-4a2.006 2.006 0 0 0 2-2v-24a2.006 2.006 0 0 0 -2-2h4a2.006 2.006 0 0 1 2 2z" fill="#898890"/><path d="m47 53h4v4h-4z" fill="#57a4ff"/><path d="m47 45h4v4h-4z" fill="#ffde55"/><path d="m39 37h12v4h-12z" fill="#bdfdff"/><path d="m47 37h4v4h-4z" fill="#46f8ff"/><path d="m39 53h4v4h-4z" fill="#ff3051"/><path d="m39 45h4v4h-4z" fill="#9cdd05"/><path d="m49 53h2v4h-2z" fill="#006df0"/><path d="m49 45h2v4h-2z" fill="#ebbf00"/><path d="m41 53h2v4h-2z" fill="#cd2a00"/><path d="m41 45h2v4h-2z" fill="#5eac24"/><path d="m33 27h4v4h-4z" fill="#ff3051"/><path d="m25 35h4v4h-4z" fill="#9cdd05"/><path d="m25 27h4v4h-4z" fill="#57a4ff"/><path d="m7 11h16v8h-16z" fill="#46f8ff"/><path d="m19 11h4v8h-4z" fill="#00d7df"/><path d="m17 35h4v4h-4z" fill="#ff3051"/><path d="m17 27h4v4h-4z" fill="#ffde55"/><path d="m9 35h4v4h-4z" fill="#ffde55"/><path d="m9 27h4v4h-4z" fill="#9cdd05"/><path d="m35 27h2v4h-2z" fill="#cd2a00"/><path d="m27 35h2v4h-2z" fill="#5eac24"/><path d="m27 27h2v4h-2z" fill="#006df0"/><path d="m19 35h2v4h-2z" fill="#cd2a00"/><path d="m19 27h2v4h-2z" fill="#ebbf00"/><path d="m11 35h2v4h-2z" fill="#ebbf00"/><path d="m11 27h2v4h-2z" fill="#5eac24"/><path d="m19 15h2v2h-2z"/><path d="m9 32h4a1 1 0 0 0 1-1v-4a1 1 0 0 0 -1-1h-4a1 1 0 0 0 -1 1v4a1 1 0 0 0 1 1zm1-4h2v2h-2z"/><path d="m9 40h4a1 1 0 0 0 1-1v-4a1 1 0 0 0 -1-1h-4a1 1 0 0 0 -1 1v4a1 1 0 0 0 1 1zm1-4h2v2h-2z"/><path d="m25 40h4a1 1 0 0 0 1-1v-4a1 1 0 0 0 -1-1h-4a1 1 0 0 0 -1 1v4a1 1 0 0 0 1 1zm1-4h2v2h-2z"/><path d="m25 32h4a1 1 0 0 0 1-1v-4a1 1 0 0 0 -1-1h-4a1 1 0 0 0 -1 1v4a1 1 0 0 0 1 1zm1-4h2v2h-2z"/><path d="m17 40h4a1 1 0 0 0 1-1v-4a1 1 0 0 0 -1-1h-4a1 1 0 0 0 -1 1v4a1 1 0 0 0 1 1zm1-4h2v2h-2z"/><path d="m17 32h4a1 1 0 0 0 1-1v-4a1 1 0 0 0 -1-1h-4a1 1 0 0 0 -1 1v4a1 1 0 0 0 1 1zm1-4h2v2h-2z"/><path d="m38 31v-4a1 1 0 0 0 -1-1h-4a1 1 0 0 0 -1 1v4a1 1 0 0 0 1 1h4a1 1 0 0 0 1-1zm-2-1h-2v-2h2z"/><path d="m44 26h12v2h-12z"/><path d="m61.9 46.553-1.9-3.789v-17.764a3 3 0 0 0 -2-2.816v-3.184a1 1 0 0 0 -1-1h-3v-4.465l2-1.335 2.445 1.63a1 1 0 0 0 1.555-.83v-7a4 4 0 0 0 -4-4h-9a5.006 5.006 0 0 0 -5 5v11h-1a1 1 0 0 0 -1 1v3h-20v-2h3a1 1 0 0 0 1-1v-8a1 1 0 0 0 -1-1h-16a1 1 0 0 0 -1 1v8a1 1 0 0 0 1 1h3v2h-3a3 3 0 0 0 -3 3v17.764l-1.895 3.789a1 1 0 0 0 -.105.447v8a1 1 0 0 0 1 1h31v3a3 3 0 0 0 3 3h16a3 3 0 0 0 3-3v-3h5a1 1 0 0 0 1-1v-8a1 1 0 0 0 -.1-.447zm-5.9-2.553h2.382l1 2h-3.382zm2-38v5.131l-1.445-.963a1 1 0 0 0 -1.11 0l-1.445.963v-5.131a2 2 0 0 1 4 0zm-14 1a3 3 0 0 1 3-3h5.556a3.959 3.959 0 0 0 -.556 2v12h-8zm-2 13h14v2h-14zm-34-8h14v6h-14zm4 8h6v2h-6zm-5 4h50a1 1 0 0 1 1 1v17h-2v-7a3 3 0 0 0 -3-3h-16a3 3 0 0 0 -3 3v7h-28v-17a1 1 0 0 1 1-1zm27 20v2h-29.382l1-2zm-30 10v-6h30v2h-5v2h5v2zm50 5a1 1 0 0 1 -1 1h-16a1 1 0 0 1 -1-1v-24a1 1 0 0 1 1-1h16a1 1 0 0 1 1 1zm2-5v-6h4v6z"/><path d="m51 36h-12a1 1 0 0 0 -1 1v4a1 1 0 0 0 1 1h12a1 1 0 0 0 1-1v-4a1 1 0 0 0 -1-1zm-1 4h-10v-2h10z"/><path d="m43 44h-4a1 1 0 0 0 -1 1v4a1 1 0 0 0 1 1h4a1 1 0 0 0 1-1v-4a1 1 0 0 0 -1-1zm-1 4h-2v-2h2z"/><path d="m51 44h-4a1 1 0 0 0 -1 1v4a1 1 0 0 0 1 1h4a1 1 0 0 0 1-1v-4a1 1 0 0 0 -1-1zm-1 4h-2v-2h2z"/><path d="m51 52h-4a1 1 0 0 0 -1 1v4a1 1 0 0 0 1 1h4a1 1 0 0 0 1-1v-4a1 1 0 0 0 -1-1zm-1 4h-2v-2h2z"/><path d="m43 52h-4a1 1 0 0 0 -1 1v4a1 1 0 0 0 1 1h4a1 1 0 0 0 1-1v-4a1 1 0 0 0 -1-1zm-1 4h-2v-2h2z"/></g></svg>