<svg height="512" viewBox="0 0 64 64" width="512" xmlns="http://www.w3.org/2000/svg"><g id="Clipboard"><path d="m3 11h42v50h-42z" fill="#a78966"/><path d="m41 11h4v50h-4z" fill="#806749"/><path d="m61 21v36a4 4 0 0 1 -4 4h-25c-2.21 0-3-1.79-3-4v-36a4 4 0 0 1 4-4h24a4 4 0 0 1 4 4z" fill="#c6c5ca"/><path d="m61 21v36a4 4 0 0 1 -4 4h-4a4 4 0 0 0 4-4v-36a4 4 0 0 0 -4-4h4a4 4 0 0 1 4 4z" fill="#898890"/><path d="m47 45h10v12h-10z" fill="#57a4ff"/><path d="m47 31h10v10h-10z" fill="#ff3051"/><rect fill="#bdfdff" height="6" rx="1" width="24" x="33" y="21"/><path d="m33 45h10v12h-10z" fill="#9cdd05"/><path d="m33 31h10v10h-10z" fill="#ffde55"/><path d="m53 45h4v12h-4z" fill="#006df0"/><path d="m53 31h4v10h-4z" fill="#cd2a00"/><path d="m57 22v4a1 1 0 0 1 -1 1h-4a1 1 0 0 0 1-1v-4a1 1 0 0 0 -1-1h4a1 1 0 0 1 1 1z" fill="#46f8ff"/><path d="m39 45h4v12h-4z" fill="#5eac24"/><path d="m39 31h4v10h-4z" fill="#ebbf00"/><path d="m33 9v8h-18v-8a2.015 2.015 0 0 1 2-2 2.015 2.015 0 0 0 2-2 2.006 2.006 0 0 1 2-2h6a2.006 2.006 0 0 1 2 2 2.015 2.015 0 0 0 2 2 2.006 2.006 0 0 1 2 2z" fill="#898890"/><path d="m33 9v8h-4v-8a2.006 2.006 0 0 0 -2-2 2.015 2.015 0 0 1 -2-2 2.006 2.006 0 0 0 -2-2h4a2.006 2.006 0 0 1 2 2 2.015 2.015 0 0 0 2 2 2.006 2.006 0 0 1 2 2z" fill="#57565c"/><path d="m33 17a4 4 0 0 0 -4 4v36h-20a2.006 2.006 0 0 1 -2-2v-38a2.006 2.006 0 0 1 2-2h6v2z" fill="#fee9ab"/><circle cx="24" cy="9" fill="#c6c5ca" r="2"/><path d="m26 9a2 2 0 0 1 -3 1.73 2 2 0 0 0 0-3.46 2 2 0 0 1 3 1.73z" fill="#898890"/><path d="m11 45h6v6h-6z" fill="#ff3051"/><path d="m11 33h6v6h-6z" fill="#ffde55"/><path d="m11 21h6v6h-6z" fill="#9cdd05"/><path d="m14 45h3v6h-3z" fill="#cd2a00"/><path d="m14 33h3v6h-3z" fill="#ebbf00"/><path d="m14 21h3v6h-3z" fill="#5eac24"/><path d="m24 6a3 3 0 1 0 3 3 3 3 0 0 0 -3-3zm0 4a1 1 0 1 1 1-1 1 1 0 0 1 -1 1z"/><path d="m57 16h-11v-5a1 1 0 0 0 -1-1h-11v-1a3 3 0 0 0 -3-3 1 1 0 0 1 -1-1 3 3 0 0 0 -3-3h-6a3 3 0 0 0 -3 3 1 1 0 0 1 -1 1 3 3 0 0 0 -3 3v1h-11a1 1 0 0 0 -1 1v50a1 1 0 0 0 1 1h54a5.006 5.006 0 0 0 5-5v-36a5.006 5.006 0 0 0 -5-5zm-13-4v4h-10v-4zm-16 9v35h-19a1 1 0 0 1 -1-1v-38a1 1 0 0 1 1-1h5v1a1 1 0 0 0 1 1h14.026a4.948 4.948 0 0 0 -1.026 3zm-12-12a1 1 0 0 1 1-1 3 3 0 0 0 3-3 1 1 0 0 1 1-1h6a1 1 0 0 1 1 1 3 3 0 0 0 3 3 1 1 0 0 1 1 1v7h-16zm-12 3h10v2h-5a3 3 0 0 0 -3 3v38a3 3 0 0 0 3 3h19.062a5.8 5.8 0 0 0 .57 2h-24.632zm56 45a3 3 0 0 1 -3 3h-25c-.5 0-2 0-2-3v-36a3 3 0 0 1 3-3h24a3 3 0 0 1 3 3z"/><path d="m56 20h-22a2 2 0 0 0 -2 2v4a2 2 0 0 0 2 2h22a2 2 0 0 0 2-2v-4a2 2 0 0 0 -2-2zm-22 6v-4h22v4z"/><path d="m43 30h-10a1 1 0 0 0 -1 1v10a1 1 0 0 0 1 1h10a1 1 0 0 0 1-1v-10a1 1 0 0 0 -1-1zm-1 10h-8v-8h8z"/><path d="m57 30h-10a1 1 0 0 0 -1 1v10a1 1 0 0 0 1 1h10a1 1 0 0 0 1-1v-10a1 1 0 0 0 -1-1zm-1 10h-8v-8h8z"/><path d="m57 44h-10a1 1 0 0 0 -1 1v12a1 1 0 0 0 1 1h10a1 1 0 0 0 1-1v-12a1 1 0 0 0 -1-1zm-1 12h-8v-10h8z"/><path d="m37 39h2v-2h2v-2h-2v-2h-2v2h-2v2h2z"/><path d="m49 35h6v2h-6z"/><path d="m43 44h-10a1 1 0 0 0 -1 1v12a1 1 0 0 0 1 1h10a1 1 0 0 0 1-1v-12a1 1 0 0 0 -1-1zm-1 12h-8v-10h8z"/><path d="m36.832 54.555 1.168-1.752 1.168 1.752 1.664-1.11-1.63-2.445 1.63-2.445-1.664-1.11-1.168 1.752-1.168-1.752-1.664 1.11 1.63 2.445-1.63 2.445z"/><path d="m49 50h6v2h-6z"/><path d="m51 47h2v2h-2z"/><path d="m51 53h2v2h-2z"/><path d="m17 20h-6a1 1 0 0 0 -1 1v6a1 1 0 0 0 1 1h6a1 1 0 0 0 1-1v-6a1 1 0 0 0 -1-1zm-1 6h-4v-4h4z"/><path d="m17 32h-6a1 1 0 0 0 -1 1v6a1 1 0 0 0 1 1h6a1 1 0 0 0 1-1v-6a1 1 0 0 0 -1-1zm-1 6h-4v-4h4z"/><path d="m17 44h-6a1 1 0 0 0 -1 1v6a1 1 0 0 0 1 1h6a1 1 0 0 0 1-1v-6a1 1 0 0 0 -1-1zm-1 6h-4v-4h4z"/><path d="m20 20h6v2h-6z"/><path d="m20 26h6v2h-6z"/><path d="m20 32h6v2h-6z"/><path d="m20 38h6v2h-6z"/><path d="m20 44h6v2h-6z"/><path d="m20 50h6v2h-6z"/></g></svg>