<svg height="512" viewBox="0 0 64 64" width="512" xmlns="http://www.w3.org/2000/svg"><g id="Computing"><path d="m50 15h-36a4 4 0 0 0 -4 4v24h44v-24a4 4 0 0 0 -4-4z" fill="#46f8ff"/><path d="m54 19v24h-4v-24a4 4 0 0 0 -4-4h4a4 4 0 0 1 4 4z" fill="#00d7df"/><rect fill="#c6c5ca" height="28" rx="2" width="20" x="41" y="3"/><path d="m61 5v24a2.006 2.006 0 0 1 -2 2h-4a2.006 2.006 0 0 0 2-2v-24a2.006 2.006 0 0 0 -2-2h4a2.006 2.006 0 0 1 2 2z" fill="#898890"/><path d="m53 23h4v4h-4z" fill="#57a4ff"/><path d="m55 23h2v4h-2z" fill="#006df0"/><path d="m53 15h4v4h-4z" fill="#ffde55"/><path d="m55 15h2v4h-2z" fill="#ffcd00"/><path d="m45 7h12v4h-12z" fill="#bdfdff"/><path d="m53 7h4v4h-4z" fill="#46f8ff"/><path d="m54 43v2a4 4 0 0 1 -4 4h-36a4 4 0 0 1 -4-4v-2z" fill="#ff7956"/><path d="m54 43v2a4 4 0 0 1 -4 4h-4a4 4 0 0 0 4-4v-2z" fill="#ff5023"/><path d="m45 23h4v4h-4z" fill="#ff3051"/><path d="m47 23h2v4h-2z" fill="#cd2a00"/><path d="m45 15h4v4h-4z" fill="#9cdd05"/><path d="m47 15h2v4h-2z" fill="#5eac24"/><path d="m41 59a2.015 2.015 0 0 1 -2 2h-14a2.006 2.006 0 0 1 -2-2 2.015 2.015 0 0 1 2-2h14a2.006 2.006 0 0 1 2 2z" fill="#ff7956"/><path d="m41 59a2.015 2.015 0 0 1 -2 2h-4a2.015 2.015 0 0 0 2-2 2.006 2.006 0 0 0 -2-2h4a2.006 2.006 0 0 1 2 2z" fill="#ff5023"/><path d="m29 49h6v8h-6z" fill="#fee9ab"/><path d="m32 49h3v8h-3z" fill="#ffd422"/><path d="m3 5h32v16h-32z" fill="#0b7"/><path d="m31 5h4v16h-4z" fill="#00665a"/><circle cx="19" cy="13" fill="#ffde55" r="4"/><path d="m23 13a3.994 3.994 0 0 1 -6 3.46 3.993 3.993 0 0 0 0-6.92 3.994 3.994 0 0 1 6 3.46z" fill="#ebbf00"/><circle cx="26" cy="32" fill="#ffcd00" r="8"/><path d="m34 32a8 8 0 0 1 -8 8 8.239 8.239 0 0 1 -2-.25 8.005 8.005 0 0 0 0-15.5 8.239 8.239 0 0 1 2-.25 8 8 0 0 1 8 8z" fill="#ddb200"/><path d="m59 2h-16a3 3 0 0 0 -3 3v9h-4v-9a1 1 0 0 0 -1-1h-32a1 1 0 0 0 -1 1v16a1 1 0 0 0 1 1h6v23a5.006 5.006 0 0 0 5 5h14v6h-3a3 3 0 0 0 0 6h14a3 3 0 0 0 0-6h-3v-6h14a5.006 5.006 0 0 0 5-5v-13h4a3 3 0 0 0 3-3v-24a3 3 0 0 0 -3-3zm-55 4h30v14h-30zm36 53a1 1 0 0 1 -1 1h-14a1 1 0 0 1 0-2h14a1 1 0 0 1 1 1zm-6-3h-4v-6h4zm16-8h-36a3 3 0 0 1 -3-3v-1h42v1a3 3 0 0 1 -3 3zm3-6h-42v-20h24a1 1 0 0 0 1-1v-5h4v13a3 3 0 0 0 3 3h10zm7-13a1 1 0 0 1 -1 1h-16a1 1 0 0 1 -1-1v-24a1 1 0 0 1 1-1h16a1 1 0 0 1 1 1z"/><path d="m57 6h-12a1 1 0 0 0 -1 1v4a1 1 0 0 0 1 1h12a1 1 0 0 0 1-1v-4a1 1 0 0 0 -1-1zm-1 4h-10v-2h10z"/><path d="m49 14h-4a1 1 0 0 0 -1 1v4a1 1 0 0 0 1 1h4a1 1 0 0 0 1-1v-4a1 1 0 0 0 -1-1zm-1 4h-2v-2h2z"/><path d="m57 14h-4a1 1 0 0 0 -1 1v4a1 1 0 0 0 1 1h4a1 1 0 0 0 1-1v-4a1 1 0 0 0 -1-1zm-1 4h-2v-2h2z"/><path d="m57 22h-4a1 1 0 0 0 -1 1v4a1 1 0 0 0 1 1h4a1 1 0 0 0 1-1v-4a1 1 0 0 0 -1-1zm-1 4h-2v-2h2z"/><path d="m49 22h-4a1 1 0 0 0 -1 1v4a1 1 0 0 0 1 1h4a1 1 0 0 0 1-1v-4a1 1 0 0 0 -1-1zm-1 4h-2v-2h2z"/><path d="m19 8a5 5 0 1 0 5 5 5.006 5.006 0 0 0 -5-5zm0 8a3 3 0 1 1 3-3 3 3 0 0 1 -3 3z"/><path d="m5 8v2h2v-1h1v-2h-2a1 1 0 0 0 -1 1z"/><path d="m7 16h-2v2a1 1 0 0 0 1 1h2v-2h-1z"/><path d="m32 7h-2v2h1v1h2v-2a1 1 0 0 0 -1-1z"/><path d="m31 17h-1v2h2a1 1 0 0 0 1-1v-2h-2z"/><path d="m26 23a9 9 0 1 0 9 9 9.011 9.011 0 0 0 -9-9zm0 16a7 7 0 1 1 7-7 7.008 7.008 0 0 1 -7 7z"/><path d="m26 29a1 1 0 0 1 1 1h2a3 3 0 0 0 -2-2.816v-1.184h-2v1.184a2.993 2.993 0 0 0 1 5.816 1 1 0 1 1 -1 1h-2a3 3 0 0 0 2 2.816v1.184h2v-1.184a2.993 2.993 0 0 0 -1-5.816 1 1 0 0 1 0-2z"/></g></svg>