<svg height="512" viewBox="0 0 64 64" width="512" xmlns="http://www.w3.org/2000/svg"><g id="Counter"><path d="m3 33h58v4h-58z" fill="#a78966"/><path d="m57 33h4v4h-4z" fill="#806749"/><path d="m5 37h54v24h-54z" fill="#c0ab91"/><path d="m55 37h4v24h-4z" fill="#a78966"/><path d="m59 23v10h-16v-10a4 4 0 0 1 4-4h8a4 4 0 0 1 4 4z" fill="#9cdd05"/><circle cx="51" cy="11" fill="#ffb655" r="8"/><path d="m59 23v10h-4v-10a4 4 0 0 0 -4-4h4a4 4 0 0 1 4 4z" fill="#5eac24"/><path d="m59 11a8 8 0 0 1 -8 8 8.239 8.239 0 0 1 -2-.25 8.005 8.005 0 0 0 0-15.5 8.239 8.239 0 0 1 2-.25 8 8 0 0 1 8 8z" fill="#ff9811"/><path d="m43 43h12v12h-12z" fill="#57a4ff"/><path d="m26 43h12v12h-12z" fill="#ff3051"/><rect fill="#c6c5ca" height="16" rx="2" width="24" x="7" y="7"/><path d="m31 9v12a2.006 2.006 0 0 1 -2 2h-4a2.006 2.006 0 0 0 2-2v-12a2.006 2.006 0 0 0 -2-2h4a2.006 2.006 0 0 1 2 2z" fill="#898890"/><path d="m25 31a2.015 2.015 0 0 1 -2 2h-8a2.006 2.006 0 0 1 -2-2 2.015 2.015 0 0 1 2-2h8a2.006 2.006 0 0 1 2 2z" fill="#898890"/><path d="m25 31a2.015 2.015 0 0 1 -2 2h-4a2.015 2.015 0 0 0 2-2 2.006 2.006 0 0 0 -2-2h4a2.006 2.006 0 0 1 2 2z" fill="#57565c"/><path d="m23 29h-8l2-6h4z" fill="#fee9ab"/><path d="m23 29h-3l-2-6h3z" fill="#ffd422"/><path d="m9 43h12v12h-12z" fill="#ffde55"/><path d="m51 43h4v12h-4z" fill="#006df0"/><path d="m34 43h4v12h-4z" fill="#cd2a00"/><path d="m17 43h4v12h-4z" fill="#ebbf00"/><path d="m61 32h-1v-9a5 5 0 0 0 -3.64-4.79 9 9 0 1 0 -10.72 0 5 5 0 0 0 -3.64 4.79v9h-16.18a2.962 2.962 0 0 0 -2.06-3.89l-1.37-4.11h6.61a3.009 3.009 0 0 0 3-3v-12a3.009 3.009 0 0 0 -3-3h-20a3.009 3.009 0 0 0 -3 3v12a3.009 3.009 0 0 0 3 3h6.61l-1.37 4.11a2.962 2.962 0 0 0 -2.06 3.89h-9.18a1 1 0 0 0 -1 1v4a1 1 0 0 0 1 1h1v23a1 1 0 0 0 1 1h54a1 1 0 0 0 1-1v-23h1a1 1 0 0 0 1-1v-4a1 1 0 0 0 -1-1zm-17-21a7 7 0 1 1 7 7 7.008 7.008 0 0 1 -7-7zm0 12a3.009 3.009 0 0 1 3-3h8a3.009 3.009 0 0 1 3 3v9h-14zm-35-1a1 1 0 0 1 -1-1v-12a1 1 0 0 1 1-1h20a1 1 0 0 1 1 1v12a1 1 0 0 1 -1 1zm12.61 6h-5.22l1.33-4h2.56zm-6.61 2h8a1 1 0 0 1 0 2h-8a1 1 0 0 1 0-2zm43 30h-52v-22h52zm2-24h-56v-2h56z"/><path d="m21 42h-12a1 1 0 0 0 -1 1v12a1 1 0 0 0 1 1h12a1 1 0 0 0 1-1v-12a1 1 0 0 0 -1-1zm-1 12h-10v-10h10z"/><path d="m38 42h-12a1 1 0 0 0 -1 1v12a1 1 0 0 0 1 1h12a1 1 0 0 0 1-1v-12a1 1 0 0 0 -1-1zm-1 12h-10v-10h10z"/><path d="m19 48v2h-3v3h-2v-3h-3v-2h3v-3h2v3z"/><path d="m28 48h8v2h-8z"/><path d="m55 42h-12a1 1 0 0 0 -1 1v12a1 1 0 0 0 1 1h12a1 1 0 0 0 1-1v-12a1 1 0 0 0 -1-1zm-1 12h-10v-10h10z"/><path d="m45 46h8v2h-8z"/><path d="m45 50h8v2h-8z"/></g></svg>