<svg height="512" viewBox="0 0 64 64" width="512" xmlns="http://www.w3.org/2000/svg"><g id="Document-2" data-name="Document"><rect fill="#fee9ab" height="58" rx="2" width="42" x="19" y="3"/><path d="m61 5v54a2.006 2.006 0 0 1 -2 2h-4a2.006 2.006 0 0 0 2-2v-54a2.006 2.006 0 0 0 -2-2h4a2.006 2.006 0 0 1 2 2z" fill="#ffd422"/><path d="m54.49 40.86 2.82 2.83-11.31 11.31-7.07-7.07 2.83-2.83 4.24 4.24z" fill="#9cdd05"/><path d="m57.31 43.69-2 2-2.82-2.83 2-2z" fill="#5eac24"/><path d="m25 9h30v4h-30z" fill="#ff7956"/><path d="m51 9h4v4h-4z" fill="#ff5023"/><path d="m35 21v36a4 4 0 0 1 -4 4h-25c-2.21 0-3-1.79-3-4v-36a4 4 0 0 1 4-4h24a4 4 0 0 1 4 4z" fill="#c6c5ca"/><path d="m21 45h10v12h-10z" fill="#57a4ff"/><path d="m21 31h10v10h-10z" fill="#ff3051"/><rect fill="#bdfdff" height="6" rx="1" width="24" x="7" y="21"/><path d="m7 45h10v12h-10z" fill="#9cdd05"/><path d="m7 31h10v10h-10z" fill="#ffde55"/><path d="m27 45h4v12h-4z" fill="#006df0"/><path d="m27 31h4v10h-4z" fill="#cd2a00"/><path d="m31 22v4a1 1 0 0 1 -1 1h-4a1 1 0 0 0 1-1v-4a1 1 0 0 0 -1-1h4a1 1 0 0 1 1 1z" fill="#46f8ff"/><path d="m13 45h4v12h-4z" fill="#5eac24"/><path d="m13 31h4v10h-4z" fill="#ebbf00"/><path d="m59 2h-38a3 3 0 0 0 -3 3v11h-11a5.006 5.006 0 0 0 -5 5v36c0 3.131 1.5 5 4 5h53a3 3 0 0 0 3-3v-54a3 3 0 0 0 -3-3zm-53 58c-.5 0-2 0-2-3v-36a3 3 0 0 1 3-3h24a3 3 0 0 1 3 3v36a3 3 0 0 1 -3 3zm54-1a1 1 0 0 1 -1 1h-24.026a4.948 4.948 0 0 0 1.026-3v-36a5.006 5.006 0 0 0 -5-5h-11v-11a1 1 0 0 1 1-1h38a1 1 0 0 1 1 1z"/><path d="m30 20h-22a2 2 0 0 0 -2 2v4a2 2 0 0 0 2 2h22a2 2 0 0 0 2-2v-4a2 2 0 0 0 -2-2zm-22 6v-4h22v4z"/><path d="m17 30h-10a1 1 0 0 0 -1 1v10a1 1 0 0 0 1 1h10a1 1 0 0 0 1-1v-10a1 1 0 0 0 -1-1zm-1 10h-8v-8h8z"/><path d="m31 30h-10a1 1 0 0 0 -1 1v10a1 1 0 0 0 1 1h10a1 1 0 0 0 1-1v-10a1 1 0 0 0 -1-1zm-1 10h-8v-8h8z"/><path d="m31 44h-10a1 1 0 0 0 -1 1v12a1 1 0 0 0 1 1h10a1 1 0 0 0 1-1v-12a1 1 0 0 0 -1-1zm-1 12h-8v-10h8z"/><path d="m11 39h2v-2h2v-2h-2v-2h-2v2h-2v2h2z"/><path d="m23 35h6v2h-6z"/><path d="m17 44h-10a1 1 0 0 0 -1 1v12a1 1 0 0 0 1 1h10a1 1 0 0 0 1-1v-12a1 1 0 0 0 -1-1zm-1 12h-8v-10h8z"/><path d="m10.832 54.555 1.168-1.752 1.168 1.752 1.664-1.11-1.63-2.445 1.63-2.445-1.664-1.11-1.168 1.752-1.168-1.752-1.664 1.11 1.63 2.445-1.63 2.445z"/><path d="m23 50h6v2h-6z"/><path d="m25 47h2v2h-2z"/><path d="m25 53h2v2h-2z"/><path d="m55.192 40.151a1 1 0 0 0 -1.414 0l-7.778 7.778-3.536-3.535a1 1 0 0 0 -1.414 0l-2.828 2.828a1 1 0 0 0 0 1.414l7.071 7.071a1 1 0 0 0 1.414 0l11.314-11.313a1 1 0 0 0 0-1.415zm-9.192 13.435-5.657-5.657 1.414-1.414 3.536 3.535a1 1 0 0 0 1.414 0l7.778-7.778 1.415 1.415z"/><path d="m56 13v-4a1 1 0 0 0 -1-1h-30a1 1 0 0 0 -1 1v4a1 1 0 0 0 1 1h30a1 1 0 0 0 1-1zm-2-1h-28v-2h28z"/><path d="m38 18h4v2h-4z"/><path d="m44 18h12v2h-12z"/><path d="m38 24h4v2h-4z"/><path d="m44 24h12v2h-12z"/><path d="m38 30h4v2h-4z"/><path d="m44 30h12v2h-12z"/><path d="m38 36h4v2h-4z"/><path d="m44 36h12v2h-12z"/></g></svg>