<svg height="512" viewBox="0 0 64 64" width="512" xmlns="http://www.w3.org/2000/svg"><g id="Document"><path d="m39 59a2.006 2.006 0 0 1 -2 2h-32a2.006 2.006 0 0 1 -2-2v-50h36z" fill="#fee9ab"/><path d="m61 19v22a4 4 0 0 1 -8 0v-22z" fill="#ffd422"/><path d="m61 19v22a3.994 3.994 0 0 1 -6 3.46 3.98 3.98 0 0 0 2-3.46v-22z" fill="#ebbf00"/><path d="m58 51a3 3 0 0 1 0 6h-2v-6z" fill="#c6c5ca"/><path d="m57 45h-12v-36h4a4 4 0 0 1 4 4v28a4 4 0 0 0 4 4z" fill="#fee9ab"/><path d="m56 51v6h-1-3v-3-3h3z" fill="#ffde55"/><path d="m13 54h39v3h-39z" fill="#9cdd05"/><path d="m13 51h39v3h-39z" fill="#ff3051"/><path d="m45 57v1a3 3 0 0 1 -6 0v-1z" fill="#ffd422"/><path d="m39 9h6v42h-6z" fill="#ffd422"/><path d="m39 5v4h-36v-4a2.006 2.006 0 0 1 2-2h32a2.006 2.006 0 0 1 2 2z" fill="#ff7956"/><path d="m39 5v4h-5v-4a2.006 2.006 0 0 0 -2-2h5a2.006 2.006 0 0 1 2 2z" fill="#ff5023"/><path d="m23 31h12v12h-12z" fill="#57a4ff"/><path d="m23 15h12v12h-12z" fill="#ff3051"/><path d="m7 31h12v12h-12z" fill="#9cdd05"/><path d="m7 15h12v12h-12z" fill="#ffde55"/><path d="m13 54v3l-6-3 6-3z" fill="#898890"/><path d="m31 31h4v12h-4z" fill="#006df0"/><path d="m31 15h4v12h-4z" fill="#cd2a00"/><path d="m15 31h4v12h-4z" fill="#5eac24"/><path d="m15 15h4v12h-4z" fill="#ebbf00"/><path d="m57 46a5.006 5.006 0 0 0 5-5v-22a1 1 0 0 0 -1-1h-7v-5a5.006 5.006 0 0 0 -5-5h-9v-3a3 3 0 0 0 -3-3h-32a3 3 0 0 0 -3 3v54a3 3 0 0 0 3 3h32a2.981 2.981 0 0 0 2.286-1.08 3.986 3.986 0 0 0 6.714-2.92h12a4 4 0 0 0 0-8h-12v-4zm3-5a3 3 0 0 1 -6 0v-21h6zm-8-28v28a4.948 4.948 0 0 0 1.026 3h-7.026v-34h3a3 3 0 0 1 3 3zm-47-9h32a1 1 0 0 1 1 1v3h-34v-3a1 1 0 0 1 1-1zm33 55a1 1 0 0 1 -1 1h-32a1 1 0 0 1 -1-1v-49h34v40h-25v.005a1 1 0 0 0 -.447.1l-6 3a1 1 0 0 0 0 1.79l6 3a1 1 0 0 0 .447.105h25zm-26-6.382v2.764l-2.764-1.382zm30 7.382a2 2 0 0 1 -2-2h4a2 2 0 0 1 -2 2zm-28-4v-1h37v1zm46-2a2 2 0 0 1 -2 2h-1v-4h1a2 2 0 0 1 2 2zm-5 2h-2v-4h2zm-4-3h-37v-1h37zm-11-3v-40h4v40z"/><path d="m7 28h12a1 1 0 0 0 1-1v-12a1 1 0 0 0 -1-1h-12a1 1 0 0 0 -1 1v12a1 1 0 0 0 1 1zm1-12h10v10h-10z"/><path d="m23 28h12a1 1 0 0 0 1-1v-12a1 1 0 0 0 -1-1h-12a1 1 0 0 0 -1 1v12a1 1 0 0 0 1 1zm1-12h10v10h-10z"/><path d="m23 44h12a1 1 0 0 0 1-1v-12a1 1 0 0 0 -1-1h-12a1 1 0 0 0 -1 1v12a1 1 0 0 0 1 1zm1-12h10v10h-10z"/><path d="m14 17h-2v3h-3v2h3v3h2v-3h3v-2h-3z"/><path d="m25 20h8v2h-8z"/><path d="m7 44h12a1 1 0 0 0 1-1v-12a1 1 0 0 0 -1-1h-12a1 1 0 0 0 -1 1v12a1 1 0 0 0 1 1zm1-12h10v10h-10z"/><path d="m15.293 33.293-2.293 2.293-2.293-2.293-1.414 1.414 2.293 2.293-2.293 2.293 1.414 1.414 2.293-2.293 2.293 2.293 1.414-1.414-2.293-2.293 2.293-2.293z"/><path d="m25 36h8v2h-8z"/><path d="m28 33h2v2h-2z"/><path d="m28 39h2v2h-2z"/></g></svg>