<svg height="512" viewBox="0 0 64 64" width="512" xmlns="http://www.w3.org/2000/svg"><g id="Dollar"><circle cx="49" cy="15" fill="#ffcd00" r="12"/><path d="m61 15a11.988 11.988 0 0 1 -14 11.83 12 12 0 0 0 0-23.66 11.988 11.988 0 0 1 14 11.83z" fill="#ddb200"/><path d="m59 31a2.015 2.015 0 0 1 -2 2h-16a2.006 2.006 0 0 1 -2-2 2.015 2.015 0 0 1 2-2h16a2.006 2.006 0 0 1 2 2z" fill="#fee9ab"/><path d="m57 33a2.006 2.006 0 0 1 2 2 2.015 2.015 0 0 1 -2 2h-16a2.006 2.006 0 0 1 -2-2 2.015 2.015 0 0 1 2-2z" fill="#ffd422"/><path d="m57 37a2.006 2.006 0 0 1 2 2 2.015 2.015 0 0 1 -2 2h-16a2.006 2.006 0 0 1 -2-2 2.015 2.015 0 0 1 2-2z" fill="#fee9ab"/><path d="m57 41a2.006 2.006 0 0 1 2 2 2.015 2.015 0 0 1 -2 2h-16a2.006 2.006 0 0 1 -2-2 2.015 2.015 0 0 1 2-2z" fill="#ffd422"/><path d="m57 45a2.006 2.006 0 0 1 2 2 2.015 2.015 0 0 1 -2 2h-16a2.006 2.006 0 0 1 -2-2 2.015 2.015 0 0 1 2-2z" fill="#fee9ab"/><path d="m57 49a2.006 2.006 0 0 1 2 2 2.015 2.015 0 0 1 -2 2h-16a2.006 2.006 0 0 1 -2-2 2.015 2.015 0 0 1 2-2z" fill="#ffd422"/><path d="m57 53a2.006 2.006 0 0 1 2 2 2.015 2.015 0 0 1 -2 2h-16a2.006 2.006 0 0 1 -2-2 2.015 2.015 0 0 1 2-2z" fill="#fee9ab"/><path d="m57 57a2.006 2.006 0 0 1 2 2 2.015 2.015 0 0 1 -2 2h-16a2.006 2.006 0 0 1 -2-2 2.015 2.015 0 0 1 2-2z" fill="#ffd422"/><path d="m59 31a2.015 2.015 0 0 1 -2 2h-4a2.015 2.015 0 0 0 2-2 2.006 2.006 0 0 0 -2-2h4a2.006 2.006 0 0 1 2 2z" fill="#ffd422"/><path d="m59 35a2.015 2.015 0 0 1 -2 2h-4a2.015 2.015 0 0 0 2-2 2.006 2.006 0 0 0 -2-2h4a2.006 2.006 0 0 1 2 2z" fill="#ebbf00"/><path d="m59 39a2.015 2.015 0 0 1 -2 2h-4a2.015 2.015 0 0 0 2-2 2.006 2.006 0 0 0 -2-2h4a2.006 2.006 0 0 1 2 2z" fill="#ffd422"/><path d="m59 43a2.015 2.015 0 0 1 -2 2h-4a2.015 2.015 0 0 0 2-2 2.006 2.006 0 0 0 -2-2h4a2.006 2.006 0 0 1 2 2z" fill="#ebbf00"/><path d="m59 47a2.015 2.015 0 0 1 -2 2h-4a2.015 2.015 0 0 0 2-2 2.006 2.006 0 0 0 -2-2h4a2.006 2.006 0 0 1 2 2z" fill="#ffd422"/><path d="m59 51a2.015 2.015 0 0 1 -2 2h-4a2.015 2.015 0 0 0 2-2 2.006 2.006 0 0 0 -2-2h4a2.006 2.006 0 0 1 2 2z" fill="#ebbf00"/><path d="m59 55a2.015 2.015 0 0 1 -2 2h-4a2.015 2.015 0 0 0 2-2 2.006 2.006 0 0 0 -2-2h4a2.006 2.006 0 0 1 2 2z" fill="#ffd422"/><path d="m59 59a2.015 2.015 0 0 1 -2 2h-4a2.015 2.015 0 0 0 2-2 2.006 2.006 0 0 0 -2-2h4a2.006 2.006 0 0 1 2 2z" fill="#ebbf00"/><path d="m39 12v40a4 4 0 0 1 -4 4h-28a4 4 0 0 1 -4-4v-40a4 4 0 0 1 4-4h28a4.023 4.023 0 0 1 4 4z" fill="#c6c5ca"/><path d="m39 12v40a4 4 0 0 1 -4 4h-4a4 4 0 0 0 4-4v-40a4.023 4.023 0 0 0 -4-4h4a4.023 4.023 0 0 1 4 4z" fill="#898890"/><path d="m23 40h12v12h-12z" fill="#57a4ff"/><path d="m23 24h12v12h-12z" fill="#ff3051"/><rect fill="#bdfdff" height="8" rx="1" width="28" x="7" y="12"/><path d="m35 13v6a1 1 0 0 1 -1 1h-4a1 1 0 0 0 1-1v-6a1 1 0 0 0 -1-1h4a1 1 0 0 1 1 1z" fill="#46f8ff"/><path d="m7 40h12v12h-12z" fill="#9cdd05"/><path d="m7 24h12v12h-12z" fill="#ffde55"/><path d="m31 40h4v12h-4z" fill="#006df0"/><path d="m31 24h4v12h-4z" fill="#cd2a00"/><path d="m15 40h4v12h-4z" fill="#5eac24"/><path d="m15 24h4v12h-4z" fill="#ebbf00"/><path d="m34 11h-26a2 2 0 0 0 -2 2v6a2 2 0 0 0 2 2h26a2 2 0 0 0 2-2v-6a2 2 0 0 0 -2-2zm-26 8v-6h26v6z"/><path d="m19 23h-12a1 1 0 0 0 -1 1v12a1 1 0 0 0 1 1h12a1 1 0 0 0 1-1v-12a1 1 0 0 0 -1-1zm-1 12h-10v-10h10z"/><path d="m35 23h-12a1 1 0 0 0 -1 1v12a1 1 0 0 0 1 1h12a1 1 0 0 0 1-1v-12a1 1 0 0 0 -1-1zm-1 12h-10v-10h10z"/><path d="m35 39h-12a1 1 0 0 0 -1 1v12a1 1 0 0 0 1 1h12a1 1 0 0 0 1-1v-12a1 1 0 0 0 -1-1zm-1 12h-10v-10h10z"/><path d="m12 34h2v-3h3v-2h-3v-3h-2v3h-3v2h3z"/><path d="m25 29h8v2h-8z"/><path d="m19 39h-12a1 1 0 0 0 -1 1v12a1 1 0 0 0 1 1h12a1 1 0 0 0 1-1v-12a1 1 0 0 0 -1-1zm-1 12h-10v-10h10z"/><path d="m10.707 49.707 2.293-2.293 2.293 2.293 1.414-1.414-2.293-2.293 2.293-2.293-1.414-1.414-2.293 2.293-2.293-2.293-1.414 1.414 2.293 2.293-2.293 2.293z"/><path d="m25 45h8v2h-8z"/><path d="m28 42h2v2h-2z"/><path d="m28 48h2v2h-2z"/><path d="m57 28h-16a2.966 2.966 0 0 0 -1 .184v-3.824a12.989 12.989 0 1 0 -1.981-16.319 4.955 4.955 0 0 0 -3.019-1.041h-28a5.006 5.006 0 0 0 -5 5v40a5.006 5.006 0 0 0 5 5h28a4.952 4.952 0 0 0 3.14-1.141 2.991 2.991 0 0 0 .64 1.141 2.987 2.987 0 0 0 2.22 5h16a2.987 2.987 0 0 0 2.22-5 2.954 2.954 0 0 0 0-4 2.954 2.954 0 0 0 0-4 2.954 2.954 0 0 0 0-4 2.954 2.954 0 0 0 0-4 2.954 2.954 0 0 0 0-4 2.954 2.954 0 0 0 0-4 2.987 2.987 0 0 0 -2.22-5zm-16 2h16a1 1 0 0 1 0 2h-16a1 1 0 0 1 0-2zm17 5a1 1 0 0 1 -1 1h-16a1 1 0 0 1 0-2h16a1 1 0 0 1 1 1zm0 4a1 1 0 0 1 -1 1h-16a1 1 0 0 1 0-2h16a1 1 0 0 1 1 1zm0 4a1 1 0 0 1 -1 1h-16a1 1 0 0 1 0-2h16a1 1 0 0 1 1 1zm0 4a1 1 0 0 1 -1 1h-16a1 1 0 0 1 0-2h16a1 1 0 0 1 1 1zm0 4a1 1 0 0 1 -1 1h-16a1 1 0 0 1 0-2h16a1 1 0 0 1 1 1zm0 4a1 1 0 0 1 -1 1h-16a1 1 0 0 1 0-2h16a1 1 0 0 1 1 1zm-9-51a11 11 0 1 1 -9 17.307v-9.307a4.933 4.933 0 0 0 -.6-2.331 10.929 10.929 0 0 1 9.6-5.669zm-14 51h-28a3 3 0 0 1 -3-3v-40a3 3 0 0 1 3-3h28a3 3 0 0 1 3 3v40a3 3 0 0 1 -3 3zm22 5h-16a1 1 0 0 1 0-2h16a1 1 0 0 1 0 2z"/><path d="m49 20a2 2 0 0 1 -2-2h-2a4 4 0 0 0 3 3.858v2.142h2v-2.142a3.992 3.992 0 0 0 -1-7.858 2 2 0 1 1 2-2h2a4 4 0 0 0 -3-3.858v-2.142h-2v2.142a3.992 3.992 0 0 0 1 7.858 2 2 0 0 1 0 4z"/></g></svg>