<svg height="512" viewBox="0 0 64 64" width="512" xmlns="http://www.w3.org/2000/svg"><g id="Gift_Voucher" data-name="Gift Voucher"><rect fill="#b2fa09" height="28" rx="4" width="58" x="3" y="33"/><path d="m61 37v20a4 4 0 0 1 -4 4h-5a4 4 0 0 0 4-4v-20a4 4 0 0 0 -4-4h5a4 4 0 0 1 4 4z" fill="#9cdd05"/><path d="m61 7v36a4 4 0 0 1 -4 4h-25a2.645 2.645 0 0 1 -2.71-2 6.275 6.275 0 0 1 -.29-2v-36a4 4 0 0 1 4-4h24a4 4 0 0 1 4 4z" fill="#c6c5ca"/><path d="m61 7v36a4 4 0 0 1 -4 4h-4a4 4 0 0 0 4-4v-36a4 4 0 0 0 -4-4h4a4 4 0 0 1 4 4z" fill="#898890"/><path d="m47 31h10v12h-10z" fill="#57a4ff"/><path d="m47 17h10v10h-10z" fill="#ff3051"/><rect fill="#bdfdff" height="6" rx="1" width="24" x="33" y="7"/><path d="m57 8v4a1 1 0 0 1 -1 1h-4a1 1 0 0 0 1-1v-4a1 1 0 0 0 -1-1h4a1 1 0 0 1 1 1z" fill="#46f8ff"/><path d="m33 31h10v12h-10z" fill="#9cdd05"/><path d="m33 17h10v10h-10z" fill="#ffde55"/><path d="m53 31h4v12h-4z" fill="#006df0"/><path d="m53 17h4v10h-4z" fill="#cd2a00"/><path d="m39 31h4v12h-4z" fill="#5eac24"/><path d="m39 17h4v10h-4z" fill="#ebbf00"/><path d="m32 47v2h-7.54a3.98 3.98 0 0 0 -3.46-2 3.98 3.98 0 0 0 3.46-2h4.83a2.645 2.645 0 0 0 2.71 2z" fill="#ffde55"/><path d="m25 51v4h-4a4.01 4.01 0 0 1 -4-4v-4h4a4.01 4.01 0 0 1 4 4z" fill="#ff3051"/><path d="m25 39v4a4.01 4.01 0 0 1 -4 4h-4v-4a4.01 4.01 0 0 1 4-4z" fill="#ff3051"/><path d="m25 51v4h-4v-4a4.01 4.01 0 0 0 -4-4h4a4.01 4.01 0 0 1 4 4z" fill="#cd2a00"/><path d="m25 39v4a4.01 4.01 0 0 1 -4 4h-4a4.01 4.01 0 0 0 4-4v-4z" fill="#cd2a00"/><circle cx="15" cy="17" fill="#ffcd00" r="12"/><path d="m27 17a12.014 12.014 0 0 1 -14.5 11.74 12 12 0 0 0 0-23.48 12.014 12.014 0 0 1 14.5 11.74z" fill="#ddb200"/><path d="m19 54.46v6.54h-4v-6.54a3.98 3.98 0 0 0 2-3.46 3.98 3.98 0 0 0 2 3.46z" fill="#ffde55"/><path d="m19 33v6.54a3.98 3.98 0 0 0 -2 3.46 3.98 3.98 0 0 0 -2-3.46v-6.54z" fill="#ffde55"/><path d="m17 47v4a4.01 4.01 0 0 1 -4 4h-4v-4a4.01 4.01 0 0 1 4-4z" fill="#ff3051"/><path d="m17 43v4h-4a4.01 4.01 0 0 1 -4-4v-4h4a4.01 4.01 0 0 1 4 4z" fill="#ff3051"/><path d="m9.54 45a3.98 3.98 0 0 0 3.46 2 3.98 3.98 0 0 0 -3.46 2h-6.54v-4z" fill="#ffde55"/><path d="m57 2h-24a5.006 5.006 0 0 0 -5 5v25h-21a5.006 5.006 0 0 0 -5 5v20a5.006 5.006 0 0 0 5 5h50a5.006 5.006 0 0 0 5-5v-50a5.006 5.006 0 0 0 -5-5zm-33 45a5.048 5.048 0 0 0 .991-1h3.644a3.492 3.492 0 0 0 2.365 1.878v.122h-6.012a5.048 5.048 0 0 0 -.988-1zm-14.988 1h-5.012v-2h5.012a5.048 5.048 0 0 0 .988 1 5.048 5.048 0 0 0 -.988 1zm8.988-2v-3a3 3 0 0 1 3-3h3v3a3 3 0 0 1 -3 3zm-1-6a5.043 5.043 0 0 0 -1-.99v-5.01h2v5.013a5.043 5.043 0 0 0 -1 .987zm-1 3v3h-3a3 3 0 0 1 -3-3v-3h3a3 3 0 0 1 3 3zm-6 8a3 3 0 0 1 3-3h3v3a3 3 0 0 1 -3 3h-3zm7 3a5.043 5.043 0 0 0 1 .99v5.01h-2v-5.013a5.043 5.043 0 0 0 1-.987zm1-3v-3h3a3 3 0 0 1 3 3v3h-3a3 3 0 0 1 -3-3zm10.062-7h-2.17a5 5 0 0 0 .108-1v-4a1 1 0 0 0 -1-1h-4a5 5 0 0 0 -1 .108v-4.108h8s.025 9.681.062 10zm-21.062-10h7v4.108a5 5 0 0 0 -1-.108h-4a1 1 0 0 0 -1 1v4a5 5 0 0 0 .108 1h-4.108v-7a3 3 0 0 1 3-3zm-3 23v-7h4.108a5 5 0 0 0 -.108 1v4a1 1 0 0 0 1 1h4a5 5 0 0 0 1-.108v4.108h-7a3 3 0 0 1 -3-3zm53 3h-37v-4.108a5 5 0 0 0 1 .108h4a1 1 0 0 0 1-1v-4a5 5 0 0 0 -.108-1h6.108a1 1 0 0 0 1-1v-1h24a4.948 4.948 0 0 0 3-1.026v10.026a3 3 0 0 1 -3 3zm0-14h-25c-.5 0-2 0-2-3v-36a3 3 0 0 1 3-3h24a3 3 0 0 1 3 3v36a3 3 0 0 1 -3 3z"/><path d="m56 6h-22a2 2 0 0 0 -2 2v4a2 2 0 0 0 2 2h22a2 2 0 0 0 2-2v-4a2 2 0 0 0 -2-2zm-22 6v-4h22v4z"/><path d="m43 16h-10a1 1 0 0 0 -1 1v10a1 1 0 0 0 1 1h10a1 1 0 0 0 1-1v-10a1 1 0 0 0 -1-1zm-1 10h-8v-8h8z"/><path d="m57 16h-10a1 1 0 0 0 -1 1v10a1 1 0 0 0 1 1h10a1 1 0 0 0 1-1v-10a1 1 0 0 0 -1-1zm-1 10h-8v-8h8z"/><path d="m57 30h-10a1 1 0 0 0 -1 1v12a1 1 0 0 0 1 1h10a1 1 0 0 0 1-1v-12a1 1 0 0 0 -1-1zm-1 12h-8v-10h8z"/><path d="m37 25h2v-2h2v-2h-2v-2h-2v2h-2v2h2z"/><path d="m49 21h6v2h-6z"/><path d="m43 30h-10a1 1 0 0 0 -1 1v12a1 1 0 0 0 1 1h10a1 1 0 0 0 1-1v-12a1 1 0 0 0 -1-1zm-1 12h-8v-10h8z"/><path d="m36.832 40.555 1.168-1.752 1.168 1.752 1.664-1.11-1.63-2.445 1.63-2.445-1.664-1.11-1.168 1.752-1.168-1.752-1.664 1.11 1.63 2.445-1.63 2.445z"/><path d="m49 36h6v2h-6z"/><path d="m51 33h2v2h-2z"/><path d="m51 39h2v2h-2z"/><path d="m15 4a13 13 0 1 0 13 13 13.015 13.015 0 0 0 -13-13zm0 24a11 11 0 1 1 11-11 11.013 11.013 0 0 1 -11 11z"/><path d="m15 12a2 2 0 0 1 2 2h2a4 4 0 0 0 -3-3.858v-2.142h-2v2.142a3.992 3.992 0 0 0 1 7.858 2 2 0 1 1 -2 2h-2a4 4 0 0 0 3 3.858v2.142h2v-2.142a3.992 3.992 0 0 0 -1-7.858 2 2 0 0 1 0-4z"/></g></svg>