<svg height="512" viewBox="0 0 64 64" width="512" xmlns="http://www.w3.org/2000/svg"><g id="Laptop"><path d="m62 49v4a4 4 0 0 1 -4 4h-50a4 4 0 0 1 -4-4v-4z" fill="#c6c5ca"/><path d="m62 49v4a4 4 0 0 1 -4 4h-5a4 4 0 0 0 4-4v-4z" fill="#898890"/><path d="m59 11v38h-54v-38a2.006 2.006 0 0 1 2-2h50a2.006 2.006 0 0 1 2 2z" fill="#ff7956"/><path d="m59 11v38h-4v-38a2.006 2.006 0 0 0 -2-2h4a2.006 2.006 0 0 1 2 2z" fill="#ff5023"/><path d="m9 13h46v36h-46z" fill="#46f8ff"/><path d="m51 13h4v36h-4z" fill="#00d7df"/><path d="m34 33h12v12h-12z" fill="#57a4ff"/><path d="m34 17h12v12h-12z" fill="#ff3051"/><path d="m43 49v2a2.006 2.006 0 0 1 -2 2h-18a2.006 2.006 0 0 1 -2-2v-2z" fill="#898890"/><path d="m43 49v2a2.006 2.006 0 0 1 -2 2h-4a2.006 2.006 0 0 0 2-2v-2z" fill="#57565c"/><path d="m18 33h12v12h-12z" fill="#9cdd05"/><path d="m18 17h12v12h-12z" fill="#ffde55"/><path d="m42 33h4v12h-4z" fill="#006df0"/><path d="m42 17h4v12h-4z" fill="#cd2a00"/><path d="m26 33h4v12h-4z" fill="#5eac24"/><path d="m26 17h4v12h-4z" fill="#ebbf00"/><path d="m61 48h-1v-37a3 3 0 0 0 -3-3h-50a3 3 0 0 0 -3 3v37h-1a1 1 0 0 0 -1 1v4a5.006 5.006 0 0 0 5 5h50a5.006 5.006 0 0 0 5-5v-4a1 1 0 0 0 -1-1zm-55-37a1 1 0 0 1 1-1h50a1 1 0 0 1 1 1v37h-2v-35a1 1 0 0 0 -1-1h-46a1 1 0 0 0 -1 1v35h-2zm16 39h20v1a1 1 0 0 1 -1 1h-18a1 1 0 0 1 -1-1zm-12-2v-34h44v34zm50 5a3 3 0 0 1 -3 3h-50a3 3 0 0 1 -3-3v-3h16v1a3 3 0 0 0 3 3h18a3 3 0 0 0 3-3v-1h16z"/><path d="m30 16h-12a1 1 0 0 0 -1 1v12a1 1 0 0 0 1 1h12a1 1 0 0 0 1-1v-12a1 1 0 0 0 -1-1zm-1 12h-10v-10h10z"/><path d="m46 16h-12a1 1 0 0 0 -1 1v12a1 1 0 0 0 1 1h12a1 1 0 0 0 1-1v-12a1 1 0 0 0 -1-1zm-1 12h-10v-10h10z"/><path d="m46 32h-12a1 1 0 0 0 -1 1v12a1 1 0 0 0 1 1h12a1 1 0 0 0 1-1v-12a1 1 0 0 0 -1-1zm-1 12h-10v-10h10z"/><path d="m23 27h2v-3h3v-2h-3v-3h-2v3h-3v2h3z"/><path d="m36 22h8v2h-8z"/><path d="m30 32h-12a1 1 0 0 0 -1 1v12a1 1 0 0 0 1 1h12a1 1 0 0 0 1-1v-12a1 1 0 0 0 -1-1zm-1 12h-10v-10h10z"/><path d="m21.707 42.707 2.293-2.293 2.293 2.293 1.414-1.414-2.293-2.293 2.293-2.293-1.414-1.414-2.293 2.293-2.293-2.293-1.414 1.414 2.293 2.293-2.293 2.293z"/><path d="m36 38h8v2h-8z"/><path d="m39 35h2v2h-2z"/><path d="m39 41h2v2h-2z"/></g></svg>