<svg height="512" viewBox="0 0 64 64" width="512" xmlns="http://www.w3.org/2000/svg"><g id="Money_Bag" data-name="Money Bag"><path d="m29.46 19.15a3.96 3.96 0 0 0 -.46 1.85v29.92a5.474 5.474 0 0 1 -1 .08h-18a7 7 0 0 1 -7-7v-18a7 7 0 0 1 7-7h18a7.021 7.021 0 0 1 1.46.15z" fill="#c0ab91"/><path d="m61 21v36a4 4 0 0 1 -4 4h-25c-2.21 0-3-1.79-3-4v-36a4.017 4.017 0 0 1 4-4h24a4 4 0 0 1 4 4z" fill="#c6c5ca"/><path d="m61 21v36a4 4 0 0 1 -4 4h-4a4 4 0 0 0 4-4v-36a4 4 0 0 0 -4-4h4a4 4 0 0 1 4 4z" fill="#898890"/><path d="m47 45h10v12h-10z" fill="#57a4ff"/><path d="m47 31h10v10h-10z" fill="#ff3051"/><rect fill="#bdfdff" height="6" rx="1" width="24" x="33" y="21"/><path d="m57 22v4a1 1 0 0 1 -1 1h-4a1 1 0 0 0 1-1v-4a1 1 0 0 0 -1-1h4a1 1 0 0 1 1 1z" fill="#46f8ff"/><path d="m33 45h10v12h-10z" fill="#9cdd05"/><path d="m33 31h10v10h-10z" fill="#ffde55"/><path d="m53 45h4v12h-4z" fill="#006df0"/><path d="m53 31h4v10h-4z" fill="#cd2a00"/><path d="m39 45h4v12h-4z" fill="#5eac24"/><path d="m39 31h4v10h-4z" fill="#ebbf00"/><path d="m32 3-4 12h-18l-4-12c2.17 0 2.17 4 4.33 4s2.17-4 4.33-4 2.17 4 4.33 4 2.17-4 4.34-4 2.16 4 4.33 4 2.17-4 4.34-4z" fill="#c0ab91"/><path d="m32 3-4 12h-4l2.76-8.28a1.576 1.576 0 0 0 .9.28c2.17 0 2.17-4 4.34-4z" fill="#a78966"/><path d="m29 28.37v13.27a12.005 12.005 0 1 1 0-13.27z" fill="#ffcd00"/><path d="m29 28.37v13.27a12 12 0 0 1 -12.01 5.19 11.954 11.954 0 0 0 8.01-5.19v-13.27a11.922 11.922 0 0 0 -8.01-5.2 11.992 11.992 0 0 1 12.01 5.2z" fill="#ddb200"/><path d="m10 15h18v4h-18z" fill="#a78966"/><path d="m24 15h4v4h-4z" fill="#806749"/><path d="m57 16h-24a4.982 4.982 0 0 0 -4 2.031v-2.869l3.948-11.846a1 1 0 0 0 -.948-1.316c-1.68 0-2.471 1.458-3.048 2.524-.498.918-.833 1.476-1.289 1.476s-.792-.558-1.29-1.477c-.573-1.065-1.368-2.523-3.048-2.523s-2.47 1.458-3.046 2.523c-.498.919-.833 1.477-1.288 1.477s-.788-.558-1.285-1.476c-.577-1.065-1.366-2.524-3.045-2.524s-2.468 1.459-3.045 2.524c-.497.918-.831 1.476-1.285 1.476s-.788-.558-1.285-1.476c-.577-1.065-1.367-2.524-3.046-2.524a1 1 0 0 0 -.948 1.316l3.948 11.846v2.907a8.008 8.008 0 0 0 -7 7.931v18a8.009 8.009 0 0 0 8 8h18v5c0 3.131 1.5 5 4 5h25a5.006 5.006 0 0 0 5-5v-36a5.006 5.006 0 0 0 -5-5zm-29 25.307a11 11 0 1 1 0-12.6zm-17-25.307h16v2h-16zm-2.548-8.8a2.579 2.579 0 0 0 1.879.8c1.679 0 2.469-1.459 3.045-2.524.5-.918.831-1.476 1.285-1.476s.788.558 1.285 1.476c.577 1.065 1.366 2.524 3.045 2.524s2.47-1.458 3.046-2.523c.498-.919.833-1.477 1.288-1.477s.792.558 1.29 1.477c.577 1.065 1.368 2.523 3.048 2.523a2.585 2.585 0 0 0 1.887-.811l-2.27 6.811h-16.56zm1.548 42.8a6.006 6.006 0 0 1 -6-6v-18a6.006 6.006 0 0 1 6-6h18 .1a4.946 4.946 0 0 0 -.1 1v4.638a13 13 0 1 0 0 18.722v5.64zm50 7a3 3 0 0 1 -3 3h-25c-.5 0-2 0-2-3v-36a3 3 0 0 1 3-3h24a3 3 0 0 1 3 3z"/><path d="m56 20h-22a2 2 0 0 0 -2 2v4a2 2 0 0 0 2 2h22a2 2 0 0 0 2-2v-4a2 2 0 0 0 -2-2zm-22 6v-4h22v4z"/><path d="m43 30h-10a1 1 0 0 0 -1 1v10a1 1 0 0 0 1 1h10a1 1 0 0 0 1-1v-10a1 1 0 0 0 -1-1zm-1 10h-8v-8h8z"/><path d="m57 30h-10a1 1 0 0 0 -1 1v10a1 1 0 0 0 1 1h10a1 1 0 0 0 1-1v-10a1 1 0 0 0 -1-1zm-1 10h-8v-8h8z"/><path d="m57 44h-10a1 1 0 0 0 -1 1v12a1 1 0 0 0 1 1h10a1 1 0 0 0 1-1v-12a1 1 0 0 0 -1-1zm-1 12h-8v-10h8z"/><path d="m37 39h2v-2h2v-2h-2v-2h-2v2h-2v2h2z"/><path d="m49 35h6v2h-6z"/><path d="m43 44h-10a1 1 0 0 0 -1 1v12a1 1 0 0 0 1 1h10a1 1 0 0 0 1-1v-12a1 1 0 0 0 -1-1zm-1 12h-8v-10h8z"/><path d="m36.832 54.555 1.168-1.752 1.168 1.752 1.664-1.11-1.63-2.445 1.63-2.445-1.664-1.11-1.168 1.752-1.168-1.752-1.664 1.11 1.63 2.445-1.63 2.445z"/><path d="m49 50h6v2h-6z"/><path d="m51 47h2v2h-2z"/><path d="m51 53h2v2h-2z"/><path d="m19 30a2 2 0 0 1 2 2h2a4 4 0 0 0 -3-3.858v-2.142h-2v2.142a3.992 3.992 0 0 0 1 7.858 2 2 0 1 1 -2 2h-2a4 4 0 0 0 3 3.858v2.142h2v-2.142a3.992 3.992 0 0 0 -1-7.858 2 2 0 0 1 0-4z"/><path d="m60 4h2v2h-2z"/><path d="m56 4h2v2h-2z"/><path d="m58 2h2v2h-2z"/><path d="m58 6h2v2h-2z"/><path d="m44 6h2v2h-2z"/><path d="m40 6h2v2h-2z"/><path d="m42 4h2v2h-2z"/><path d="m42 8h2v2h-2z"/><path d="m52 9h2v2h-2z"/><path d="m48 9h2v2h-2z"/><path d="m50 7h2v2h-2z"/><path d="m50 11h2v2h-2z"/><path d="m36 10h2v2h-2z"/><path d="m32 10h2v2h-2z"/><path d="m34 8h2v2h-2z"/><path d="m34 12h2v2h-2z"/></g></svg>