<svg height="512" viewBox="0 0 64 64" width="512" xmlns="http://www.w3.org/2000/svg"><g id="Monitor"><path d="m61 39v4a4 4 0 0 1 -4 4h-50a4 4 0 0 1 -4-4v-4z" fill="#ff7956"/><path d="m61 7v32h-58v-32a4 4 0 0 1 4-4h50a4 4 0 0 1 4 4z" fill="#46f8ff"/><path d="m35 7h20v6h-20z" fill="#9cdd05"/><path d="m53.68 27.61-7.07 7.07-7.07-9.9-2.13 2.12-1.41-9.9 9.9 1.41-2.12 2.13z" fill="#fee9ab"/><path d="m53.68 27.61-7.07 7.07-1.67-2.33 4.74-4.74-13.68-10.61 9.9 1.41-2.12 2.13z" fill="#ffd422"/><path d="m46 59a2.015 2.015 0 0 1 -2 2h-24a2.006 2.006 0 0 1 -2-2 2.015 2.015 0 0 1 2-2h24a2.006 2.006 0 0 1 2 2z" fill="#ff7956"/><path d="m27 47h10v10h-10z" fill="#fee9ab"/><path d="m61 39v4a4 4 0 0 1 -4 4h-4a4 4 0 0 0 4-4v-4z" fill="#ff5023"/><path d="m61 7v32h-4v-32a4 4 0 0 0 -4-4h4a4 4 0 0 1 4 4z" fill="#00d7df"/><path d="m46 59a2.015 2.015 0 0 1 -2 2h-4a2.015 2.015 0 0 0 2-2 2.006 2.006 0 0 0 -2-2h4a2.006 2.006 0 0 1 2 2z" fill="#ff5023"/><path d="m33 47h4v10h-4z" fill="#ffd422"/><rect fill="#c6c5ca" height="28" rx="2" width="20" x="9" y="7"/><path d="m21 27h4v4h-4z" fill="#57a4ff"/><path d="m21 19h4v4h-4z" fill="#ffde55"/><path d="m13 11h12v4h-12z" fill="#bdfdff"/><path d="m51 7h4v6h-4z" fill="#5eac24"/><path d="m21 11h4v4h-4z" fill="#46f8ff"/><path d="m13 27h4v4h-4z" fill="#ff3051"/><path d="m13 19h4v4h-4z" fill="#9cdd05"/><path d="m23 27h2v4h-2z" fill="#006df0"/><path d="m23 19h2v4h-2z" fill="#ffcd00"/><path d="m15 27h2v4h-2z" fill="#cd2a00"/><path d="m15 19h2v4h-2z" fill="#5eac24"/><path d="m57 2h-50a5.006 5.006 0 0 0 -5 5v36a5.006 5.006 0 0 0 5 5h19v8h-6a3 3 0 0 0 0 6h24a3 3 0 0 0 0-6h-6v-8h19a5.006 5.006 0 0 0 5-5v-36a5.006 5.006 0 0 0 -5-5zm-50 2h50a3 3 0 0 1 3 3v31h-56v-31a3 3 0 0 1 3-3zm38 55a1 1 0 0 1 -1 1h-24a1 1 0 0 1 0-2h24a1 1 0 0 1 1 1zm-9-3h-8v-8h8zm21-10h-50a3 3 0 0 1 -3-3v-3h56v3a3 3 0 0 1 -3 3z"/><path d="m54 42h2v2h-2z"/><path d="m50 42h2v2h-2z"/><path d="m11 36h16a3 3 0 0 0 3-3v-24a3 3 0 0 0 -3-3h-16a3 3 0 0 0 -3 3v24a3 3 0 0 0 3 3zm-1-27a1 1 0 0 1 1-1h16a1 1 0 0 1 1 1v24a1 1 0 0 1 -1 1h-16a1 1 0 0 1 -1-1z"/><path d="m13 16h12a1 1 0 0 0 1-1v-4a1 1 0 0 0 -1-1h-12a1 1 0 0 0 -1 1v4a1 1 0 0 0 1 1zm1-4h10v2h-10z"/><path d="m13 24h4a1 1 0 0 0 1-1v-4a1 1 0 0 0 -1-1h-4a1 1 0 0 0 -1 1v4a1 1 0 0 0 1 1zm1-4h2v2h-2z"/><path d="m25 18h-4a1 1 0 0 0 -1 1v4a1 1 0 0 0 1 1h4a1 1 0 0 0 1-1v-4a1 1 0 0 0 -1-1zm-1 4h-2v-2h2z"/><path d="m25 26h-4a1 1 0 0 0 -1 1v4a1 1 0 0 0 1 1h4a1 1 0 0 0 1-1v-4a1 1 0 0 0 -1-1zm-1 4h-2v-2h2z"/><path d="m13 32h4a1 1 0 0 0 1-1v-4a1 1 0 0 0 -1-1h-4a1 1 0 0 0 -1 1v4a1 1 0 0 0 1 1zm1-4h2v2h-2z"/><path d="m45.32 20.408 1.286-1.287a1 1 0 0 0 -.565-1.7l-9.9-1.414a1 1 0 0 0 -1.132 1.132l1.414 9.9a1 1 0 0 0 1.7.565l1.287-1.286 6.384 8.939a1 1 0 0 0 .732.415.763.763 0 0 0 .082 0 1 1 0 0 0 .707-.293l7.072-7.072a1 1 0 0 0 -.126-1.521zm1.414 12.728-6.384-8.936a1 1 0 0 0 -.732-.415.75.75 0 0 0 -.082 0 1 1 0 0 0 -.707.293l-.708.707-.942-6.6 6.6.942-.707.708a1 1 0 0 0 .128 1.515l8.939 6.384z"/><path d="m35 14h20a1 1 0 0 0 1-1v-6a1 1 0 0 0 -1-1h-20a1 1 0 0 0 -1 1v6a1 1 0 0 0 1 1zm1-6h18v4h-18z"/></g></svg>