<svg height="512" viewBox="0 0 64 64" width="512" xmlns="http://www.w3.org/2000/svg"><g id="Network"><circle cx="29" cy="32" fill="#ebbf00" r="11"/><path d="m40 32a11.017 11.017 0 0 1 -13 10.82 11 11 0 0 0 0-21.64 11.017 11.017 0 0 1 13 10.82z" fill="#cca400"/><path d="m61 35v24a2.006 2.006 0 0 1 -2 2h-16a2.006 2.006 0 0 1 -2-2v-24a1.752 1.752 0 0 1 .04-.4 2.014 2.014 0 0 1 1.96-1.6h16a2.006 2.006 0 0 1 2 2z" fill="#c6c5ca"/><path d="m61 35v24a2.006 2.006 0 0 1 -2 2h-4a2.006 2.006 0 0 0 2-2v-24a2.006 2.006 0 0 0 -2-2h4a2.006 2.006 0 0 1 2 2z" fill="#898890"/><path d="m53 53h4v4h-4z" fill="#57a4ff"/><path d="m53 45h4v4h-4z" fill="#ffde55"/><path d="m45 37h12v4h-12z" fill="#bdfdff"/><path d="m53 37h4v4h-4z" fill="#46f8ff"/><path d="m51 16a3.995 3.995 0 0 1 1.57 7.67 3.906 3.906 0 0 1 -1.57.33 3.976 3.976 0 0 1 -3.57-2.21 3.876 3.876 0 0 1 -.43-1.79 3.968 3.968 0 0 1 1.76-3.31 4.009 4.009 0 0 1 2.24-.69z" fill="#57a4ff"/><path d="m45 53h4v4h-4z" fill="#ff3051"/><path d="m45 45h4v4h-4z" fill="#9cdd05"/><path d="m55 53h2v4h-2z" fill="#006df0"/><path d="m55 45h2v4h-2z" fill="#ebbf00"/><path d="m47 53h2v4h-2z" fill="#cd2a00"/><path d="m47 45h2v4h-2z" fill="#5eac24"/><path d="m37 32a8 8 0 0 1 -8 8h-.05a8 8 0 0 1 .05-16h.05a8 8 0 0 1 7.95 8z" fill="#ffcd00"/><path d="m37 32a8 8 0 0 1 -8 8h-.05a8.163 8.163 0 0 1 -1.93-.25 8.005 8.005 0 0 0 -.04-15.5 8.4 8.4 0 0 1 2.02-.25h.05a8 8 0 0 1 7.95 8z" fill="#ddb200"/><path d="m33 7a1.72 1.72 0 0 1 -.02.32 3.992 3.992 0 0 1 -7.96 0 1.72 1.72 0 0 1 -.02-.32 4 4 0 0 1 8 0z" fill="#57a4ff"/><path d="m32.98 56.68a1.72 1.72 0 0 1 .02.32 4 4 0 0 1 -8 0 1.72 1.72 0 0 1 .02-.32 3.992 3.992 0 0 1 7.96 0z" fill="#57a4ff"/><path d="m12 20a4.023 4.023 0 0 1 -.67 2.21 4 4 0 1 1 -3.33-6.21 3.921 3.921 0 0 1 1.54.31 3.989 3.989 0 0 1 2.46 3.69z" fill="#57a4ff"/><path d="m10.57 42.21a3.876 3.876 0 0 1 .43 1.79 3.968 3.968 0 0 1 -1.76 3.31 3.995 3.995 0 1 1 -3.81-6.98 3.906 3.906 0 0 1 1.57-.33 3.976 3.976 0 0 1 3.57 2.21z" fill="#57a4ff"/><g fill="#006df0"><path d="m55 20a3.976 3.976 0 0 1 -2.43 3.67 3.906 3.906 0 0 1 -1.57.33 3.963 3.963 0 0 1 -2.02-.54 3.941 3.941 0 0 0 2.02-3.46 4 4 0 0 0 -1.99-3.46 3.925 3.925 0 0 1 1.99-.54 4 4 0 0 1 4 4z"/><path d="m33 7a1.72 1.72 0 0 1 -.02.32 3.992 3.992 0 0 1 -3.98 3.68 3.89 3.89 0 0 1 -2-.54 3.971 3.971 0 0 0 1.98-3.14 1.72 1.72 0 0 0 .02-.32 3.98 3.98 0 0 0 -2-3.46 3.994 3.994 0 0 1 6 3.46z"/><path d="m33 57a3.994 3.994 0 0 1 -6 3.46 3.98 3.98 0 0 0 2-3.46 1.72 1.72 0 0 0 -.02-.32 3.971 3.971 0 0 0 -1.98-3.14 3.89 3.89 0 0 1 2-.54 3.992 3.992 0 0 1 3.98 3.68 1.72 1.72 0 0 1 .02.32z"/><path d="m12 20a4.023 4.023 0 0 1 -.67 2.21 3.98 3.98 0 0 1 -3.33 1.79 3.881 3.881 0 0 1 -1.99-.54 4.029 4.029 0 0 0 1.99-3.46 3.98 3.98 0 0 0 -2-3.46 3.989 3.989 0 0 1 2-.54 3.921 3.921 0 0 1 1.54.31 3.989 3.989 0 0 1 2.46 3.69z"/><path d="m11 44a3.968 3.968 0 0 1 -1.76 3.31 3.978 3.978 0 0 1 -4.24.15l.24-.15a3.968 3.968 0 0 0 1.76-3.31 3.876 3.876 0 0 0 -.43-1.79 4.088 4.088 0 0 0 -1.55-1.67 3.168 3.168 0 0 1 .41-.21 3.906 3.906 0 0 1 1.57-.33 3.976 3.976 0 0 1 3.57 2.21 3.876 3.876 0 0 1 .43 1.79z"/></g><path d="m29 23a9 9 0 1 0 9 9 9.01 9.01 0 0 0 -9-9zm0 16a7 7 0 1 1 7-7 7.008 7.008 0 0 1 -7 7z"/><path d="m29 29a1 1 0 0 1 1 1h2a3 3 0 0 0 -2-2.816v-1.184h-2v1.184a2.993 2.993 0 0 0 1 5.816 1 1 0 1 1 -1 1h-2a3 3 0 0 0 2 2.816v1.184h2v-1.184a2.993 2.993 0 0 0 -1-5.816 1 1 0 0 1 0-2z"/><path d="m59 32h-4a25.7 25.7 0 0 0 -1.233-7.841 4.993 4.993 0 0 0 -4.767-8.733 25.78 25.78 0 0 0 -15.05-8.926 4.972 4.972 0 0 0 -9.9 0 25.8 25.8 0 0 0 -14.834 8.667 4.928 4.928 0 0 0 -1.216-.167 5 5 0 0 0 -3.556 8.508 25.623 25.623 0 0 0 -.211 16.333 4.993 4.993 0 0 0 4.767 8.733 25.78 25.78 0 0 0 15.05 8.926 4.972 4.972 0 0 0 9.9 0 25.644 25.644 0 0 0 6.05-1.959v3.459a3 3 0 0 0 3 3h16a3 3 0 0 0 3-3v-24a3 3 0 0 0 -3-3zm-6 0h-10a2.981 2.981 0 0 0 -2.041.814c.018-.27.041-.539.041-.814a11.913 11.913 0 0 0 -1.07-4.926l7.184-3.967a4.865 4.865 0 0 0 4.794 1.8 23.736 23.736 0 0 1 1.092 7.093zm-24 10a10 10 0 1 1 10-10 10.011 10.011 0 0 1 -10 10zm25-22a3 3 0 1 1 -3-3 3 3 0 0 1 3 3zm-20.255-11.5a23.784 23.784 0 0 1 13.618 8.092 4.816 4.816 0 0 0 -1.163 4.734l-7.237 4a12 12 0 0 0 -8.963-5.275v-8.151a5 5 0 0 0 3.745-3.4zm-4.745-4.5a3 3 0 1 1 -3 3 3 3 0 0 1 3-3zm-4.745 4.5a5 5 0 0 0 3.745 3.4v8.152a12 12 0 0 0 -8.964 5.271l-6.384-3.523a4.905 4.905 0 0 0 -1.58-5.713 23.789 23.789 0 0 1 13.183-7.587zm-16.255 8.5a3 3 0 1 1 -3 3 3 3 0 0 1 3-3zm-3 15a23.8 23.8 0 0 1 1.174-7.357 4.934 4.934 0 0 0 5.4-1.157l6.5 3.588a11.874 11.874 0 0 0 0 9.852l-7.184 3.967a4.865 4.865 0 0 0 -4.794-1.8 23.736 23.736 0 0 1 -1.096-7.093zm-1 12a3 3 0 1 1 3 3 3 3 0 0 1 -3-3zm20.255 11.5a23.784 23.784 0 0 1 -13.618-8.092 4.816 4.816 0 0 0 1.163-4.734l7.237-4a12 12 0 0 0 8.963 5.275v8.151a5 5 0 0 0 -3.745 3.4zm4.745 4.5a3 3 0 1 1 3-3 3 3 0 0 1 -3 3zm4.746-4.5a5 5 0 0 0 -3.746-3.4v-8.151a12.015 12.015 0 0 0 10-7.167v16.529a23.617 23.617 0 0 1 -6.254 2.189zm26.254 3.5a1 1 0 0 1 -1 1h-16a1 1 0 0 1 -1-1v-24a1 1 0 0 1 1-1h16a1 1 0 0 1 1 1z"/><path d="m57 36h-12a1 1 0 0 0 -1 1v4a1 1 0 0 0 1 1h12a1 1 0 0 0 1-1v-4a1 1 0 0 0 -1-1zm-1 4h-10v-2h10z"/><path d="m49 44h-4a1 1 0 0 0 -1 1v4a1 1 0 0 0 1 1h4a1 1 0 0 0 1-1v-4a1 1 0 0 0 -1-1zm-1 4h-2v-2h2z"/><path d="m57 44h-4a1 1 0 0 0 -1 1v4a1 1 0 0 0 1 1h4a1 1 0 0 0 1-1v-4a1 1 0 0 0 -1-1zm-1 4h-2v-2h2z"/><path d="m57 52h-4a1 1 0 0 0 -1 1v4a1 1 0 0 0 1 1h4a1 1 0 0 0 1-1v-4a1 1 0 0 0 -1-1zm-1 4h-2v-2h2z"/><path d="m49 52h-4a1 1 0 0 0 -1 1v4a1 1 0 0 0 1 1h4a1 1 0 0 0 1-1v-4a1 1 0 0 0 -1-1zm-1 4h-2v-2h2z"/></g></svg>