<svg height="512" viewBox="0 0 64 64" width="512" xmlns="http://www.w3.org/2000/svg"><g id="Online_Payment" data-name="Online Payment"><path d="m50 27h-36a2 2 0 0 0 -2 2v24h40v-24a2 2 0 0 0 -2-2z" fill="#ff7956"/><path d="m52 29v24h-4v-24a2.006 2.006 0 0 0 -2-2h4a2.006 2.006 0 0 1 2 2z" fill="#ff5023"/><rect fill="#c6c5ca" height="28" rx="2" width="20" x="41" y="13"/><path d="m61 15v24a2.006 2.006 0 0 1 -2 2h-4a2.006 2.006 0 0 0 2-2v-24a2.006 2.006 0 0 0 -2-2h4a2.006 2.006 0 0 1 2 2z" fill="#898890"/><path d="m53 33h4v4h-4z" fill="#57a4ff"/><path d="m53 25h4v4h-4z" fill="#ffde55"/><path d="m45 17h12v4h-12z" fill="#bdfdff"/><path d="m53 17h4v4h-4z" fill="#46f8ff"/><path d="m54 53v4a4 4 0 0 1 -4 4h-36a4 4 0 0 1 -4-4v-4z" fill="#c6c5ca"/><path d="m54 53v4a4 4 0 0 1 -4 4h-4a4 4 0 0 0 4-4v-4z" fill="#898890"/><circle cx="51" cy="5" fill="#ff3051" r="2"/><path d="m45 33h4v4h-4z" fill="#ff3051"/><path d="m45 25h4v4h-4z" fill="#9cdd05"/><path d="m55 33h2v4h-2z" fill="#006df0"/><path d="m55 25h2v4h-2z" fill="#ebbf00"/><path d="m47 33h2v4h-2z" fill="#cd2a00"/><path d="m47 25h2v4h-2z" fill="#5eac24"/><path d="m48 41v12h-32v-22h25v8a2.006 2.006 0 0 0 2 2z" fill="#46f8ff"/><path d="m44 41h4v12h-4z" fill="#00d7df"/><path d="m39 53v2a2.006 2.006 0 0 1 -2 2h-10a2.006 2.006 0 0 1 -2-2v-2z" fill="#898890"/><path d="m39 53v2a2.006 2.006 0 0 1 -2 2h-4a2.006 2.006 0 0 0 2-2v-2z" fill="#57565c"/><path d="m38.02 44.78-4.24 4.24-4.95-6.36-2.12 2.12-.71-7.78 7.78.71-2.12 2.12z" fill="#fee9ab"/><path d="m38.02 44.78-4.24 4.24-1.31-1.69 2.55-2.55-9.02-7.78 7.78.71-2.12 2.12z" fill="#ffd422"/><circle cx="32" cy="13" fill="#ff3051" r="2"/><path d="m53 5a2 2 0 0 1 -3 1.73 2 2 0 0 0 0-3.46 2 2 0 0 1 3 1.73z" fill="#cd2a00"/><path d="m34 13a2 2 0 0 1 -3 1.73 2 2 0 0 0 0-3.46 2 2 0 0 1 3 1.73z" fill="#cd2a00"/><path d="m13.04 3h-.04a10 10 0 0 0 -.04 20h.04a10 10 0 0 0 .04-20z" fill="#ffcd00"/><path d="m23 13a10 10 0 0 1 -10 10h-.04a9.625 9.625 0 0 1 -1.95-.2 10 10 0 0 0 -.02-19.6 10.225 10.225 0 0 1 2.01-.2h.04a10 10 0 0 1 9.96 10z" fill="#ddb200"/><path d="m13 8a2 2 0 0 1 2 2h2a4 4 0 0 0 -3-3.858v-1.142h-2v1.142a3.992 3.992 0 0 0 1 7.858 2 2 0 1 1 -2 2h-2a4 4 0 0 0 3 3.858v1.142h2v-1.142a3.992 3.992 0 0 0 -1-7.858 2 2 0 0 1 0-4z"/><path d="m59 12h-7v-4.184a2.993 2.993 0 1 0 -3.816-3.816h-16.184a1 1 0 0 0 -1 1v5.184a3 3 0 0 0 -1.816 1.816h-5.235a11 11 0 1 0 0 2h5.235a2.993 2.993 0 1 0 3.816-3.816v-4.184h15.184a3 3 0 0 0 1.816 1.816v4.184h-7a3 3 0 0 0 -3 3v11h-26a3 3 0 0 0 -3 3v23h-1a1 1 0 0 0 -1 1v4a5.006 5.006 0 0 0 5 5h36a5.006 5.006 0 0 0 5-5v-4a1 1 0 0 0 -1-1h-1v-10h6a3 3 0 0 0 3-3v-24a3 3 0 0 0 -3-3zm-46 10a9 9 0 1 1 9-9 9.01 9.01 0 0 1 -9 9zm19-8a1 1 0 1 1 1-1 1 1 0 0 1 -1 1zm19-10a1 1 0 1 1 -1 1 1 1 0 0 1 1-1zm-34 48v-20h23v7a3 3 0 0 0 3 3h4v10zm9 2h12v1a1 1 0 0 1 -1 1h-10a1 1 0 0 1 -1-1zm-13-25a1 1 0 0 1 1-1h26v2h-24a1 1 0 0 0 -1 1v21h-2zm40 28a3 3 0 0 1 -3 3h-36a3 3 0 0 1 -3-3v-3h13v1a3 3 0 0 0 3 3h10a3 3 0 0 0 3-3v-1h13zm-2-5h-2v-10h2zm9-13a1 1 0 0 1 -1 1h-16a1 1 0 0 1 -1-1v-24a1 1 0 0 1 1-1h16a1 1 0 0 1 1 1z"/><path d="m57 16h-12a1 1 0 0 0 -1 1v4a1 1 0 0 0 1 1h12a1 1 0 0 0 1-1v-4a1 1 0 0 0 -1-1zm-1 4h-10v-2h10z"/><path d="m49 24h-4a1 1 0 0 0 -1 1v4a1 1 0 0 0 1 1h4a1 1 0 0 0 1-1v-4a1 1 0 0 0 -1-1zm-1 4h-2v-2h2z"/><path d="m57 24h-4a1 1 0 0 0 -1 1v4a1 1 0 0 0 1 1h4a1 1 0 0 0 1-1v-4a1 1 0 0 0 -1-1zm-1 4h-2v-2h2z"/><path d="m57 32h-4a1 1 0 0 0 -1 1v4a1 1 0 0 0 1 1h4a1 1 0 0 0 1-1v-4a1 1 0 0 0 -1-1zm-1 4h-2v-2h2z"/><path d="m49 32h-4a1 1 0 0 0 -1 1v4a1 1 0 0 0 1 1h4a1 1 0 0 0 1-1v-4a1 1 0 0 0 -1-1zm-1 4h-2v-2h2z"/><path d="m33.165 39.734 1.32-1.32a1 1 0 0 0 -.616-1.7l-7.779-.714a1 1 0 0 0 -1.09 1.091l.707 7.778a1 1 0 0 0 1.7.616l1.321-1.32 4.254 5.47a1 1 0 0 0 .727.384h.062a1 1 0 0 0 .707-.293l4.243-4.243a1 1 0 0 0 -.093-1.5zm.707 7.779-4.254-5.47a1 1 0 0 0 -.727-.384h-.062a1 1 0 0 0 -.707.293l-.612.612-.41-4.464 4.457.406-.611.611a1 1 0 0 0 .093 1.5l5.47 4.255z"/></g></svg>