<svg height="512" viewBox="0 0 64 64" width="512" xmlns="http://www.w3.org/2000/svg"><g id="Payment"><path d="m3 17h58v30h-58z" fill="#fee9ab"/><path d="m57 17h4v30h-4z" fill="#ffd422"/><rect fill="#c6c5ca" height="28" rx="2" width="20" x="37" y="3"/><path d="m57 5v24a2.006 2.006 0 0 1 -2 2h-4a2.006 2.006 0 0 0 2-2v-24a2.006 2.006 0 0 0 -2-2h4a2.006 2.006 0 0 1 2 2z" fill="#898890"/><path d="m49 23h4v4h-4z" fill="#57a4ff"/><path d="m49 15h4v4h-4z" fill="#ffde55"/><path d="m41 7h12v4h-12z" fill="#bdfdff"/><path d="m49 7h4v4h-4z" fill="#46f8ff"/><path d="m41 23h4v4h-4z" fill="#ff3051"/><path d="m41 15h4v4h-4z" fill="#9cdd05"/><path d="m51 23h2v4h-2z" fill="#006df0"/><path d="m51 15h2v4h-2z" fill="#ebbf00"/><path d="m43 23h2v4h-2z" fill="#cd2a00"/><path d="m43 15h2v4h-2z" fill="#5eac24"/><path d="m19 11h8v40h-8z" fill="#ff7956"/><path d="m23 11h4v40h-4z" fill="#ff5023"/><path d="m19 7h8v4h-8z" fill="#c6c5ca"/><path d="m23 7h4v4h-4z" fill="#898890"/><path d="m27 51-4 10v-10z" fill="#787680"/><path d="m27 51-4 10-4-10z" fill="#c6c5ca"/><path d="m27 51-4 10v-10z" fill="#787680"/><path d="m21 3h4v4h-4z" fill="#9cdd05"/><path d="m23 3h2v4h-2z" fill="#5eac24"/><path d="m7 21h4v4h-4z" fill="#ff7956"/><path d="m9 21h2v4h-2z" fill="#ff5023"/><path d="m61 16h-3v-11a3 3 0 0 0 -3-3h-16a3 3 0 0 0 -3 3v11h-8v-9a1 1 0 0 0 -1-1h-1v-3a1 1 0 0 0 -1-1h-4a1 1 0 0 0 -1 1v3h-1a1 1 0 0 0 -1 1v3h-3a1 1 0 0 0 -1 1v5h-11a1 1 0 0 0 -1 1v30a1 1 0 0 0 1 1h15v3a1 1 0 0 0 .071.371l4 10a1 1 0 0 0 1.858 0l4-10a1 1 0 0 0 .071-.371v-3h33a1 1 0 0 0 1-1v-30a1 1 0 0 0 -1-1zm-23-11a1 1 0 0 1 1-1h16a1 1 0 0 1 1 1v24a1 1 0 0 1 -1 1h-16a1 1 0 0 1 -1-1zm-18 45v-38h6v38zm2-46h2v2h-2zm-2 4h6v2h-6zm-4 4h2v4h-2zm-12 34v-28h10v7h2v-7h2v28zm19 12.308-2.523-6.308h5.046zm37-12.308h-32v-28h8v11a3 3 0 0 0 3 3h16a3 3 0 0 0 3-3v-11h2z"/><path d="m7 26h4a1 1 0 0 0 1-1v-4a1 1 0 0 0 -1-1h-4a1 1 0 0 0 -1 1v4a1 1 0 0 0 1 1zm1-4h2v2h-2z"/><path d="m12 28h4v2h-4z"/><path d="m6 28h4v2h-4z"/><path d="m40 42h4v2h-4z"/><path d="m46 42h12v2h-12z"/><path d="m48.555 39.769a1 1 0 0 0 1.279 0l1.766-1.469 1.763 1.468 1.28-1.538-2.4-2a1 1 0 0 0 -1.279 0l-1.764 1.47-1.759-1.467a1 1 0 0 0 -1.281 0l-1.76 1.467-1.757-1.466-1.282 1.536 2.4 2a1 1 0 0 0 1.282 0l1.757-1.47z"/><path d="m6 32h10v2h-10z"/><path d="m41 12h12a1 1 0 0 0 1-1v-4a1 1 0 0 0 -1-1h-12a1 1 0 0 0 -1 1v4a1 1 0 0 0 1 1zm1-4h10v2h-10z"/><path d="m41 20h4a1 1 0 0 0 1-1v-4a1 1 0 0 0 -1-1h-4a1 1 0 0 0 -1 1v4a1 1 0 0 0 1 1zm1-4h2v2h-2z"/><path d="m53 14h-4a1 1 0 0 0 -1 1v4a1 1 0 0 0 1 1h4a1 1 0 0 0 1-1v-4a1 1 0 0 0 -1-1zm-1 4h-2v-2h2z"/><path d="m53 22h-4a1 1 0 0 0 -1 1v4a1 1 0 0 0 1 1h4a1 1 0 0 0 1-1v-4a1 1 0 0 0 -1-1zm-1 4h-2v-2h2z"/><path d="m41 28h4a1 1 0 0 0 1-1v-4a1 1 0 0 0 -1-1h-4a1 1 0 0 0 -1 1v4a1 1 0 0 0 1 1zm1-4h2v2h-2z"/></g></svg>