<svg height="512" viewBox="0 0 64 64" width="512" xmlns="http://www.w3.org/2000/svg"><g id="POS"><rect fill="#898890" height="46" rx="4" width="28" x="17" y="15"/><path d="m45 19v38a4 4 0 0 1 -4 4h-4a4 4 0 0 0 4-4v-38a4 4 0 0 0 -4-4h4a4 4 0 0 1 4 4z" fill="#57565c"/><path d="m61 35v3a5 5 0 0 1 -10 0v-3z" fill="#fee9ab"/><path d="m61 35v3a5 5 0 0 1 -5 5 5.106 5.106 0 0 1 -2-.41 5.029 5.029 0 0 0 3-4.59v-3z" fill="#ffd422"/><path d="m45 43v-24a4 4 0 0 0 -4-4v-7a5 5 0 0 1 10 0v30a5 5 0 0 0 5 5z" fill="#ffd422"/><path d="m56 43h-3a5 5 0 0 1 -5-5v-30a5.013 5.013 0 0 0 -3.5-4.78 5.335 5.335 0 0 1 1.5-.22 5 5 0 0 1 5 5v30a5 5 0 0 0 5 5z" fill="#ebbf00"/><path d="m46 3a4.985 4.985 0 0 0 -5 5v15h-20v-16a4 4 0 0 1 4-4z" fill="#fee9ab"/><path d="m46 3a4.985 4.985 0 0 0 -5 5v15h-4v-15a4.985 4.985 0 0 1 5-5z" fill="#ffd422"/><path d="m37 53h4v4h-4z" fill="#ffde55"/><path d="m37 45h4v4h-4z" fill="#57a4ff"/><path d="m37 37h4v4h-4z" fill="#ffde55"/><path d="m41 29v4h-18v-2a2.006 2.006 0 0 0 -2-2z" fill="#46f8ff"/><path d="m37 29h4v4h-4z" fill="#00d7df"/><path d="m29 53h4v4h-4z" fill="#9cdd05"/><path d="m29 45h4v4h-4z" fill="#ff3051"/><path d="m29 37h4v4h-4z" fill="#9cdd05"/><path d="m39 53h2v4h-2z" fill="#ebbf00"/><path d="m39 45h2v4h-2z" fill="#006df0"/><path d="m39 37h2v4h-2z" fill="#ebbf00"/><path d="m31 53h2v4h-2z" fill="#5eac24"/><path d="m31 45h2v4h-2z" fill="#cd2a00"/><path d="m31 37h2v4h-2z" fill="#5eac24"/><rect fill="#c6c5ca" height="28" rx="2" width="20" x="3" y="29"/><path d="m15 49h4v4h-4z" fill="#57a4ff"/><path d="m15 41h4v4h-4z" fill="#ffde55"/><path d="m7 33h12v4h-12z" fill="#bdfdff"/><path d="m7 49h4v4h-4z" fill="#ff3051"/><path d="m7 41h4v4h-4z" fill="#9cdd05"/><path d="m23 31v24a2.006 2.006 0 0 1 -2 2h-4a2.006 2.006 0 0 0 2-2v-24a2.006 2.006 0 0 0 -2-2h4a2.006 2.006 0 0 1 2 2z" fill="#898890"/><path d="m15 33h4v4h-4z" fill="#46f8ff"/><path d="m17 49h2v4h-2z" fill="#006df0"/><path d="m17 41h2v4h-2z" fill="#ebbf00"/><path d="m9 49h2v4h-2z" fill="#cd2a00"/><path d="m9 41h2v4h-2z" fill="#5eac24"/><path d="m61 34h-9v-26a6.006 6.006 0 0 0 -6-6h-21a5.006 5.006 0 0 0 -5 5v7.1a5.009 5.009 0 0 0 -4 4.9v9h-11a3 3 0 0 0 -3 3v24a3 3 0 0 0 3 3h11.1a5.009 5.009 0 0 0 4.9 4h20a5.006 5.006 0 0 0 5-5v-13h10a6.006 6.006 0 0 0 6-6v-3a1 1 0 0 0 -1-1zm-39-27a3 3 0 0 1 3-3h16.531a5.98 5.98 0 0 0 -1.531 4v14h-18zm-18 48v-24a1 1 0 0 1 1-1h16a1 1 0 0 1 1 1v24a1 1 0 0 1 -1 1h-16a1 1 0 0 1 -1-1zm19.816-25h16.184v2h-16v-1a2.966 2.966 0 0 0 -.184-1zm20.184 27a3 3 0 0 1 -3 3h-20a3 3 0 0 1 -2.816-2h2.816a3 3 0 0 0 3-3v-21h17a1 1 0 0 0 1-1v-4a1 1 0 0 0 -1-1h-23v-9a3 3 0 0 1 2-2.816v6.816a1 1 0 0 0 1 1h20a1 1 0 0 0 1-1v-6.816a3 3 0 0 1 2 2.816zm-2-42.9v-6.1a4 4 0 0 1 8 0v30a5.969 5.969 0 0 0 1.54 4h-5.54v-23a5.009 5.009 0 0 0 -4-4.9zm18 23.9a4 4 0 0 1 -8 0v-2h8z"/><path d="m33 36h-4a1 1 0 0 0 -1 1v4a1 1 0 0 0 1 1h4a1 1 0 0 0 1-1v-4a1 1 0 0 0 -1-1zm-1 4h-2v-2h2z"/><path d="m41 36h-4a1 1 0 0 0 -1 1v4a1 1 0 0 0 1 1h4a1 1 0 0 0 1-1v-4a1 1 0 0 0 -1-1zm-1 4h-2v-2h2z"/><path d="m33 44h-4a1 1 0 0 0 -1 1v4a1 1 0 0 0 1 1h4a1 1 0 0 0 1-1v-4a1 1 0 0 0 -1-1zm-1 4h-2v-2h2z"/><path d="m41 44h-4a1 1 0 0 0 -1 1v4a1 1 0 0 0 1 1h4a1 1 0 0 0 1-1v-4a1 1 0 0 0 -1-1zm-1 4h-2v-2h2z"/><path d="m33 52h-4a1 1 0 0 0 -1 1v4a1 1 0 0 0 1 1h4a1 1 0 0 0 1-1v-4a1 1 0 0 0 -1-1zm-1 4h-2v-2h2z"/><path d="m41 52h-4a1 1 0 0 0 -1 1v4a1 1 0 0 0 1 1h4a1 1 0 0 0 1-1v-4a1 1 0 0 0 -1-1zm-1 4h-2v-2h2z"/><path d="m24 6h6v2h-6z"/><path d="m32 6h6v2h-6z"/><path d="m24 10h6v2h-6z"/><path d="m32 10h6v2h-6z"/><path d="m24 14h6v2h-6z"/><path d="m32 14h6v2h-6z"/><path d="m24 18h6v2h-6z"/><path d="m32 18h6v2h-6z"/><path d="m19 32h-12a1 1 0 0 0 -1 1v4a1 1 0 0 0 1 1h12a1 1 0 0 0 1-1v-4a1 1 0 0 0 -1-1zm-1 4h-10v-2h10z"/><path d="m11 40h-4a1 1 0 0 0 -1 1v4a1 1 0 0 0 1 1h4a1 1 0 0 0 1-1v-4a1 1 0 0 0 -1-1zm-1 4h-2v-2h2z"/><path d="m19 40h-4a1 1 0 0 0 -1 1v4a1 1 0 0 0 1 1h4a1 1 0 0 0 1-1v-4a1 1 0 0 0 -1-1zm-1 4h-2v-2h2z"/><path d="m19 48h-4a1 1 0 0 0 -1 1v4a1 1 0 0 0 1 1h4a1 1 0 0 0 1-1v-4a1 1 0 0 0 -1-1zm-1 4h-2v-2h2z"/><path d="m11 48h-4a1 1 0 0 0 -1 1v4a1 1 0 0 0 1 1h4a1 1 0 0 0 1-1v-4a1 1 0 0 0 -1-1zm-1 4h-2v-2h2z"/></g></svg>