<svg height="512" viewBox="0 0 64 64" width="512" xmlns="http://www.w3.org/2000/svg"><g id="Smartphone-2" data-name="Smartphone"><rect fill="#46f8ff" height="58" rx="2" width="32" x="3" y="3"/><path d="m35 5v54a2.006 2.006 0 0 1 -2 2h-5a2.006 2.006 0 0 0 2-2v-54a2.006 2.006 0 0 0 -2-2h5a2.006 2.006 0 0 1 2 2z" fill="#00d7df"/><path d="m21 15h40v38h-40z" fill="#c0ab91"/><path d="m57 15h4v38h-4z" fill="#a78966"/><path d="m43 37h12v12h-12z" fill="#57a4ff"/><path d="m43 21h12v12h-12z" fill="#ff3051"/><path d="m27 37h12v12h-12z" fill="#9cdd05"/><path d="m27 21h12v12h-12z" fill="#ffde55"/><path d="m51 37h4v12h-4z" fill="#006df0"/><path d="m51 21h4v12h-4z" fill="#cd2a00"/><path d="m35 37h4v12h-4z" fill="#5eac24"/><path d="m35 21h4v12h-4z" fill="#ebbf00"/><path d="m30 3-1 4h-20l-1-4z" fill="#ff9811"/><path d="m30 3-1 4h-4l1-4z" fill="#cc7400"/><path d="m27 34h12a1 1 0 0 0 1-1v-12a1 1 0 0 0 -1-1h-12a1 1 0 0 0 -1 1v12a1 1 0 0 0 1 1zm1-12h10v10h-10z"/><path d="m43 34h12a1 1 0 0 0 1-1v-12a1 1 0 0 0 -1-1h-12a1 1 0 0 0 -1 1v12a1 1 0 0 0 1 1zm1-12h10v10h-10z"/><path d="m43 50h12a1 1 0 0 0 1-1v-12a1 1 0 0 0 -1-1h-12a1 1 0 0 0 -1 1v12a1 1 0 0 0 1 1zm1-12h10v10h-10z"/><path d="m34 23h-2v3h-3v2h3v3h2v-3h3v-2h-3z"/><path d="m45 26h8v2h-8z"/><path d="m27 50h12a1 1 0 0 0 1-1v-12a1 1 0 0 0 -1-1h-12a1 1 0 0 0 -1 1v12a1 1 0 0 0 1 1zm1-12h10v10h-10z"/><path d="m35.293 39.293-2.293 2.293-2.293-2.293-1.414 1.414 2.293 2.293-2.293 2.293 1.414 1.414 2.293-2.293 2.293 2.293 1.414-1.414-2.293-2.293 2.293-2.293z"/><path d="m45 42h8v2h-8z"/><path d="m48 39h2v2h-2z"/><path d="m48 45h2v2h-2z"/><path d="m61 14h-25v-9a3 3 0 0 0 -3-3h-28a3 3 0 0 0 -3 3v54a3 3 0 0 0 3 3h28a3 3 0 0 0 3-3v-5h25a1 1 0 0 0 1-1v-38a1 1 0 0 0 -1-1zm-32.281-10-.5 2h-18.438l-.5-2zm5.281 55a1 1 0 0 1 -1 1h-28a1 1 0 0 1 -1-1v-54a1 1 0 0 1 1-1h2.22l.81 3.243a1 1 0 0 0 .97.757h20a1 1 0 0 0 .97-.757l.81-3.243h2.22a1 1 0 0 1 1 1v9h-13a1 1 0 0 0 -1 1v38a1 1 0 0 0 1 1h13zm26-7h-38v-36h38z"/><path d="m8 51h-2v6a1 1 0 0 0 1 1h6v-2h-5z"/><path d="m6 47h2v2h-2z"/></g></svg>