<svg height="512" viewBox="0 0 64 64" width="512" xmlns="http://www.w3.org/2000/svg"><g id="Smartphone"><path d="m61 55v4a2.006 2.006 0 0 1 -2 2h-8a2.006 2.006 0 0 1 -2-2v-12l4 6h6a2.006 2.006 0 0 1 2 2z" fill="#fee9ab"/><path d="m61 55v4a2.006 2.006 0 0 1 -2 2h-4a2.006 2.006 0 0 0 2-2v-4a2.006 2.006 0 0 0 -2-2h4a2.006 2.006 0 0 1 2 2z" fill="#ffd422"/><path d="m61 5v4a2.006 2.006 0 0 1 -2 2h-6l-4 6v-12a2.006 2.006 0 0 1 2-2h8a2.006 2.006 0 0 1 2 2z" fill="#9cdd05"/><path d="m61 5v4a2.006 2.006 0 0 1 -2 2h-4a2.006 2.006 0 0 0 2-2v-4a2.006 2.006 0 0 0 -2-2h4a2.006 2.006 0 0 1 2 2z" fill="#5eac24"/><path d="m45 48v2a2.006 2.006 0 0 1 -2 2h-22a2.006 2.006 0 0 1 -2-2v-2z" fill="#ff7956"/><path d="m45 48v2a2.006 2.006 0 0 1 -2 2h-4a2.006 2.006 0 0 0 2-2v-2z" fill="#ff5023"/><path d="m19 16h26v32h-26z" fill="#46f8ff"/><path d="m41 16h4v32h-4z" fill="#00d7df"/><path d="m45 14v2h-26v-2a2.006 2.006 0 0 1 2-2h22a2.006 2.006 0 0 1 2 2z" fill="#ff7956"/><path d="m45 14v2h-4v-2a2.006 2.006 0 0 0 -2-2h4a2.006 2.006 0 0 1 2 2z" fill="#ff5023"/><path d="m15 47v12a2.006 2.006 0 0 1 -2 2h-8a2.006 2.006 0 0 1 -2-2v-4a2.006 2.006 0 0 1 2-2h6z" fill="#9cdd05"/><path d="m15 47v12a2.006 2.006 0 0 1 -2 2h-4a2.006 2.006 0 0 0 2-2v-6z" fill="#5eac24"/><path d="m15 5v12l-4-6h-6a2.006 2.006 0 0 1 -2-2v-4a2.006 2.006 0 0 1 2-2h8a2.006 2.006 0 0 1 2 2z" fill="#fee9ab"/><path d="m15 5v12l-4-6v-6a2.006 2.006 0 0 0 -2-2h4a2.006 2.006 0 0 1 2 2z" fill="#ffd422"/><path d="m43 11h-22a3 3 0 0 0 -3 3v36a3 3 0 0 0 3 3h22a3 3 0 0 0 3-3v-36a3 3 0 0 0 -3-3zm-22 2h22a1 1 0 0 1 1 1v1h-24v-1a1 1 0 0 1 1-1zm23 4v30h-24v-30zm-1 34h-22a1 1 0 0 1 -1-1v-1h24v1a1 1 0 0 1 -1 1z"/><path d="m13 2h-8a3 3 0 0 0 -3 3v4a3 3 0 0 0 3 3h5.465l3.7 5.555a1 1 0 0 0 1.835-.555v-12a3 3 0 0 0 -3-3zm1 11.7-2.168-3.252a1 1 0 0 0 -.832-.448h-6a1 1 0 0 1 -1-1v-4a1 1 0 0 1 1-1h8a1 1 0 0 1 1 1z"/><path d="m6 6h2v2h-2z"/><path d="m9 6h3v2h-3z"/><path d="m59 2h-8a3 3 0 0 0 -3 3v12a1 1 0 0 0 1.832.555l3.703-5.555h5.465a3 3 0 0 0 3-3v-4a3 3 0 0 0 -3-3zm1 7a1 1 0 0 1 -1 1h-6a1 1 0 0 0 -.832.445l-2.168 3.255v-8.7a1 1 0 0 1 1-1h8a1 1 0 0 1 1 1z"/><path d="m56 6h2v2h-2z"/><path d="m52 6h3v2h-3z"/><path d="m15.29 46.043a1 1 0 0 0 -1.122.4l-3.703 5.557h-5.465a3 3 0 0 0 -3 3v4a3 3 0 0 0 3 3h8a3 3 0 0 0 3-3v-12a1 1 0 0 0 -.71-.957zm-1.29 12.957a1 1 0 0 1 -1 1h-8a1 1 0 0 1 -1-1v-4a1 1 0 0 1 1-1h6a1 1 0 0 0 .832-.445l2.168-3.255z"/><path d="m6 56h2v2h-2z"/><path d="m9 56h3v2h-3z"/><path d="m59 52h-5.465l-3.7-5.555a1 1 0 0 0 -1.835.555v12a3 3 0 0 0 3 3h8a3 3 0 0 0 3-3v-4a3 3 0 0 0 -3-3zm1 7a1 1 0 0 1 -1 1h-8a1 1 0 0 1 -1-1v-8.7l2.168 3.252a1 1 0 0 0 .832.448h6a1 1 0 0 1 1 1z"/><path d="m56 56h2v2h-2z"/><path d="m52 56h3v2h-3z"/><path d="m19 7h2v2h-2z"/><path d="m23 7h2v2h-2z"/><path d="m27 7h2v2h-2z"/><path d="m31 7h2v2h-2z"/><path d="m35 7h2v2h-2z"/><path d="m39 7h2v2h-2z"/><path d="m43 7h2v2h-2z"/><path d="m19 55h2v2h-2z"/><path d="m23 55h2v2h-2z"/><path d="m27 55h2v2h-2z"/><path d="m31 55h2v2h-2z"/><path d="m35 55h2v2h-2z"/><path d="m39 55h2v2h-2z"/><path d="m43 55h2v2h-2z"/><path d="m7 17h2v2h-2z"/><path d="m7 21h2v2h-2z"/><path d="m7 25h2v2h-2z"/><path d="m7 29h2v2h-2z"/><path d="m7 33h2v2h-2z"/><path d="m7 37h2v2h-2z"/><path d="m7 41h2v2h-2z"/><path d="m7 45h2v2h-2z"/><path d="m55 17h2v2h-2z"/><path d="m55 21h2v2h-2z"/><path d="m55 25h2v2h-2z"/><path d="m55 29h2v2h-2z"/><path d="m55 33h2v2h-2z"/><path d="m55 37h2v2h-2z"/><path d="m55 41h2v2h-2z"/><path d="m55 45h2v2h-2z"/><path d="m22 26h3v3h2v-3h3v-2h-3v-3h-2v3h-3z"/><path d="m34 24h8v2h-8z"/><path d="m28.293 35.293-2.293 2.293-2.293-2.293-1.414 1.414 2.293 2.293-2.293 2.293 1.414 1.414 2.293-2.293 2.293 2.293 1.414-1.414-2.293-2.293 2.293-2.293z"/><path d="m34 38h8v2h-8z"/><path d="m37 35h2v2h-2z"/><path d="m37 41h2v2h-2z"/></g></svg>