<svg height="512" viewBox="0 0 64 64" width="512" xmlns="http://www.w3.org/2000/svg"><g id="Thinking"><path d="m61 13v36a4 4 0 0 1 -4 4h-25c-2.21 0-3-1.79-3-4v-36a4 4 0 0 1 4-4h24a4 4 0 0 1 4 4z" fill="#c6c5ca"/><path d="m47 37h10v12h-10z" fill="#57a4ff"/><path d="m47 23h10v10h-10z" fill="#ff3051"/><rect fill="#bdfdff" height="6" rx="1" width="24" x="33" y="13"/><path d="m32 53h12v8h-20v-12h-7a6 6 0 0 1 -6-6v-4h-8l5-20a23.015 23.015 0 0 1 37.43-10h-12.43a4 4 0 0 0 -4 4v36c0 2.21.79 4 3 4z" fill="#ffb655"/><path d="m40 53h4v8h-4z" fill="#ff9811"/><path d="m41.43 9a22.941 22.941 0 0 0 -13.4-5.91 21.939 21.939 0 0 1 3.04-.07 22.915 22.915 0 0 1 14.36 5.98z" fill="#ff9811"/><path d="m33 37h10v12h-10z" fill="#9cdd05"/><path d="m33 23h10v10h-10z" fill="#ffde55"/><path d="m61 13v36a4 4 0 0 1 -4 4h-4a4 4 0 0 0 4-4v-36a4 4 0 0 0 -4-4h4a4 4 0 0 1 4 4z" fill="#898890"/><path d="m57 14v4a1 1 0 0 1 -1 1h-4a1 1 0 0 0 1-1v-4a1 1 0 0 0 -1-1h4a1 1 0 0 1 1 1z" fill="#46f8ff"/><path d="m53 37h4v12h-4z" fill="#006df0"/><path d="m53 23h4v10h-4z" fill="#cd2a00"/><path d="m39 37h4v12h-4z" fill="#5eac24"/><path d="m39 23h4v10h-4z" fill="#ebbf00"/><path d="m57 8h-11.209a23.992 23.992 0 0 0 -38.761 10.758l-5 20a1 1 0 0 0 .97 1.242h7v3a7.008 7.008 0 0 0 7 7h6v11a1 1 0 0 0 1 1h20a1 1 0 0 0 1-1v-7h12a5.006 5.006 0 0 0 5-5v-36a5.006 5.006 0 0 0 -5-5zm-14 52h-18v-11a1 1 0 0 0 -1-1h-7a5.006 5.006 0 0 1 -5-5v-4a1 1 0 0 0 -1-1h-6.719l4.672-18.7a22.114 22.114 0 0 1 22.071-15.281 21.86 21.86 0 0 1 11.525 3.981h-9.549a5.006 5.006 0 0 0 -5 5v36c0 3.131 1.5 5 4 5h11zm17-11a3 3 0 0 1 -3 3h-25c-.5 0-2 0-2-3v-36a3 3 0 0 1 3-3h24a3 3 0 0 1 3 3z"/><path d="m56 12h-22a2 2 0 0 0 -2 2v4a2 2 0 0 0 2 2h22a2 2 0 0 0 2-2v-4a2 2 0 0 0 -2-2zm-22 6v-4h22v4z"/><path d="m43 22h-10a1 1 0 0 0 -1 1v10a1 1 0 0 0 1 1h10a1 1 0 0 0 1-1v-10a1 1 0 0 0 -1-1zm-1 10h-8v-8h8z"/><path d="m57 22h-10a1 1 0 0 0 -1 1v10a1 1 0 0 0 1 1h10a1 1 0 0 0 1-1v-10a1 1 0 0 0 -1-1zm-1 10h-8v-8h8z"/><path d="m57 36h-10a1 1 0 0 0 -1 1v12a1 1 0 0 0 1 1h10a1 1 0 0 0 1-1v-12a1 1 0 0 0 -1-1zm-1 12h-8v-10h8z"/><path d="m37 31h2v-2h2v-2h-2v-2h-2v2h-2v2h2z"/><path d="m49 27h6v2h-6z"/><path d="m43 36h-10a1 1 0 0 0 -1 1v12a1 1 0 0 0 1 1h10a1 1 0 0 0 1-1v-12a1 1 0 0 0 -1-1zm-1 12h-8v-10h8z"/><path d="m36.832 46.555 1.168-1.752 1.168 1.752 1.664-1.11-1.63-2.445 1.63-2.445-1.664-1.11-1.168 1.752-1.168-1.752-1.664 1.11 1.63 2.445-1.63 2.445z"/><path d="m49 42h6v2h-6z"/><path d="m51 39h2v2h-2z"/><path d="m51 45h2v2h-2z"/></g></svg>