<svg height="512" viewBox="0 0 64 64" width="512" xmlns="http://www.w3.org/2000/svg"><g id="Wallet"><path d="m46 39v22h-43v-27a5 5 0 0 0 5 5z" fill="#c0ab91"/><path d="m42 39h4v22h-4z" fill="#a78966"/><path d="m61 7v36a4 4 0 0 1 -4 4h-25a3.162 3.162 0 0 1 -.9-.12c-1.53-.43-2.1-2-2.1-3.88v-36a4 4 0 0 1 4-4h24a4 4 0 0 1 4 4z" fill="#c6c5ca"/><path d="m61 7v36a4 4 0 0 1 -4 4h-4a4 4 0 0 0 4-4v-36a4 4 0 0 0 -4-4h4a4 4 0 0 1 4 4z" fill="#898890"/><path d="m47 31h10v12h-10z" fill="#57a4ff"/><path d="m47 17h10v10h-10z" fill="#ff3051"/><rect fill="#bdfdff" height="6" rx="1" width="24" x="33" y="7"/><path d="m57 8v4a1 1 0 0 1 -1 1h-4a1 1 0 0 0 1-1v-4a1 1 0 0 0 -1-1h4a1 1 0 0 1 1 1z" fill="#46f8ff"/><path d="m48 47v8h-13a5 5 0 0 1 -5-5 4.938 4.938 0 0 1 1.1-3.12 3.162 3.162 0 0 0 .9.12z" fill="#a78966"/><path d="m44 47h4v8h-4z" fill="#806749"/><path d="m33 31h10v12h-10z" fill="#9cdd05"/><path d="m33 17h10v10h-10z" fill="#ffde55"/><path d="m53 31h4v12h-4z" fill="#006df0"/><path d="m53 17h4v10h-4z" fill="#cd2a00"/><path d="m39 31h4v12h-4z" fill="#5eac24"/><path d="m39 17h4v10h-4z" fill="#ebbf00"/><path d="m29 29v10h-21a5 5 0 1 1 0-10z" fill="#a78966"/><path d="m29 13v16h-16v-13a3 3 0 0 0 3-3z" fill="#7ed63e"/><path d="m9 9h20v20h-20z" fill="#5eac24"/><path d="m34 49h2v2h-2z"/><path d="m57 2h-24a5 5 0 0 0 -5 5v1h-19a1 1 0 0 0 -1 1v19a5.992 5.992 0 0 0 -6 6v27a1 1 0 0 0 1 1h43a1 1 0 0 0 1-1v-5h1a1 1 0 0 0 1-1v-7h8a5 5 0 0 0 5-5v-36a5 5 0 0 0 -5-5zm-47 8h18v2h-12a1 1 0 0 0 -1 1 2.006 2.006 0 0 1 -2 2 1 1 0 0 0 -1 1v12h-2zm18 4v14h-14v-11.13a4.009 4.009 0 0 0 2.87-2.87zm-22.84 17.17a4.045 4.045 0 0 1 2.84-1.17h20v3h-20v2h20v3h-20a4.009 4.009 0 0 1 -2.84-6.83zm39.84 28.83h-41v-21.54a5.979 5.979 0 0 0 4 1.54h20v3a5.148 5.148 0 0 0 1.67 4.27 5.98 5.98 0 0 0 5.33 8.73h10zm2-6h-12a3.986 3.986 0 0 1 -3.43-6.04c.15.01.28.04.43.04h15zm13-11a3.009 3.009 0 0 1 -3 3h-25c-.5 0-2 0-2-3v-36a3.009 3.009 0 0 1 3-3h24a3.009 3.009 0 0 1 3 3z"/><path d="m56 6h-22a2.006 2.006 0 0 0 -2 2v4a2.006 2.006 0 0 0 2 2h22a2.006 2.006 0 0 0 2-2v-4a2.006 2.006 0 0 0 -2-2zm0 6h-22v-4h22z"/><path d="m43 16h-10a1 1 0 0 0 -1 1v10a1 1 0 0 0 1 1h10a1 1 0 0 0 1-1v-10a1 1 0 0 0 -1-1zm-1 10h-8v-8h8z"/><path d="m57 16h-10a1 1 0 0 0 -1 1v10a1 1 0 0 0 1 1h10a1 1 0 0 0 1-1v-10a1 1 0 0 0 -1-1zm-1 10h-8v-8h8z"/><path d="m57 30h-10a1 1 0 0 0 -1 1v12a1 1 0 0 0 1 1h10a1 1 0 0 0 1-1v-12a1 1 0 0 0 -1-1zm-1 12h-8v-10h8z"/><path d="m49 21h6v2h-6z"/><path d="m43 30h-10a1 1 0 0 0 -1 1v12a1 1 0 0 0 1 1h10a1 1 0 0 0 1-1v-12a1 1 0 0 0 -1-1zm-1 12h-8v-10h8z"/><path d="m36.832 40.555 1.168-1.752 1.168 1.752 1.664-1.11-1.63-2.445 1.63-2.445-1.664-1.11-1.168 1.752-1.168-1.752-1.664 1.11 1.63 2.445-1.63 2.445z"/><path d="m49 36h6v2h-6z"/><path d="m51 33h2v2h-2z"/><path d="m51 39h2v2h-2z"/><path d="m41 21v2h-2v2h-2v-2h-2v-2h2v-2h2v2z"/></g></svg>